<?xml version="1.0" encoding="UTF-8"?>
<svg id="Layer_1" data-name="Layer 1" xmlns="http://www.w3.org/2000/svg" xmlns:xlink="http://www.w3.org/1999/xlink" viewBox="0 0 1920 1080">
  <defs>
    <style>
      .cls-1 {
        fill: url(#Dégradé_sans_nom_7);
      }

      .cls-1, .cls-2, .cls-3 {
        stroke-width: 0px;
      }

      .cls-2 {
        fill: url(#Dégradé_sans_nom_7-2);
      }

      .cls-3 {
        fill: #fff;
      }
    </style>
    <linearGradient id="Dégradé_sans_nom_7" data-name="Dégradé sans nom 7" x1="116.98" y1="206.65" x2="501.66" y2="931.39" gradientUnits="userSpaceOnUse">
      <stop offset="0" stop-color="#00a2dc"/>
      <stop offset="1" stop-color="#00b8bc"/>
    </linearGradient>
    <linearGradient id="Dégradé_sans_nom_7-2" data-name="Dégradé sans nom 7" x1="1396.87" y1="494.3" x2="1499.17" y2="494.3" gradientTransform="translate(28.18 999.91) rotate(-39.29) scale(1.01) skewX(-1.27)" xlink:href="#Dégradé_sans_nom_7"/>
  </defs>
  <path class="cls-1" d="M664.31,714.96h-44.17l-72.87-152.5h64.27c11.38,0,20.61-9.23,20.61-20.61h0c0-11.38-9.23-20.61-20.61-20.61h-83.97l-12.8-26.8h34.12c11.38,0,20.61-9.23,20.61-20.61s-9.23-20.61-20.61-20.61h-53.82l-40.37-84.47h94.18c11.38,0,20.61-9.23,20.61-20.61s-9.23-20.61-20.61-20.61h-113.88l-26.69-55.85c-23.91-50.03-95.12-50.03-119.03,0l-5.59,11.7h62.36c11.38,0,20.61,9.23,20.61,20.61s-9.23,20.61-20.61,20.61h-82.06l-41.76,87.4h21.58c11.38,0,20.61,9.23,20.61,20.61s-9.23,20.61-20.61,20.61h-41.28l-12.8,26.8h88.72c11.38,0,20.61,9.23,20.61,20.61s-9.23,20.61-20.61,20.61h-108.42l-77.64,162.47h40.94c11.38,0,20.61,9.23,20.61,20.61s-9.23,20.61-20.61,20.61h-60.64l-14.44,30.22c-20.92,43.78,10.99,94.4,59.51,94.4h18.86c25.45,0,48.64-14.65,59.57-37.64l93.53-196.69c23.86-50.18,95.28-50.18,119.14,0,20.81,43.77-11.1,94.29-59.57,94.29h-3.25c-25.9,0-49.41,15.16-60.09,38.76l-3.67,8.12c-19.76,43.66,12.16,93.16,60.09,93.16h237.48c48.14,0,79.87-49.83,59.93-93.37h24.55c11.38,0,20.61-9.23,20.61-20.61s-9.23-20.61-20.61-20.61Z"/>
  <g>
    <path class="cls-3" d="M852.94,331.84l102.37,258.72h-49.18l-30.51-75.67h-100.76c-4.69,12.49-9.6,25.13-14.75,37.93-5.15,12.8-10.07,25.38-14.75,37.74h-49.38l102.37-258.72h54.6ZM825.44,386.18l-35.73,91.99h71.06l-35.33-91.99Z"/>
    <path class="cls-3" d="M1066.25,331.84h110.6c14.45,0,27.26,2.29,38.44,6.86,11.17,4.58,20.57,10.54,28.2,17.9,7.63,7.36,13.38,15.61,17.26,24.76,3.88,9.15,5.82,18.36,5.82,27.63,0,9.77-1.98,19.32-5.92,28.65-3.95,9.34-9.73,17.62-17.36,24.85-7.63,7.23-17,13.05-28.1,17.43-11.11,4.39-23.89,6.58-38.34,6.58h-63.23v104.05h-47.37v-258.72ZM1113.62,449.61h53.39c9.76,0,17.96-1.05,24.59-3.15,6.62-2.1,11.97-4.98,16.06-8.62,4.08-3.65,7.02-7.98,8.83-12.98,1.81-5.01,2.71-10.41,2.71-16.23s-1.1-11.16-3.31-16.04c-2.21-4.88-5.52-9.09-9.94-12.61-4.42-3.52-9.87-6.27-16.36-8.25-6.49-1.98-14.02-2.97-22.58-2.97h-53.39v80.86Z"/>
    <path class="cls-3" d="M1392.39,500.24c.53,8.78,2.44,16.85,5.72,24.2,3.28,7.36,7.63,13.7,13.05,19.01,5.42,5.32,11.74,9.43,18.97,12.33,7.23,2.91,15.18,4.36,23.89,4.36,7.63,0,14.92-.74,21.88-2.23,6.95-1.48,13.11-3.86,18.47-7.14,5.35-3.28,9.63-7.6,12.85-12.98,3.21-5.38,4.82-11.96,4.82-19.75,0-7.05-2.31-12.98-6.92-17.8-4.62-4.82-10.67-8.99-18.16-12.52-7.5-3.52-16.06-6.74-25.69-9.64-9.63-2.9-19.44-5.9-29.41-8.99-9.97-3.09-19.77-6.58-29.41-10.48-9.63-3.89-18.2-8.69-25.69-14.37-7.5-5.69-13.55-12.49-18.16-20.4-4.62-7.91-6.93-17.43-6.93-28.56s2.41-21.42,7.23-30.14c4.82-8.72,11.61-16.01,20.37-21.89,8.76-5.87,19.17-10.32,31.21-13.35,12.04-3.03,25.29-4.54,39.74-4.54,12.85,0,24.22,1.21,34.12,3.62,9.9,2.41,18.57,5.66,25.99,9.74,7.43,4.08,13.68,8.9,18.77,14.47,5.08,5.57,9.26,11.47,12.54,17.71,3.28,6.24,5.72,12.74,7.33,19.47,1.61,6.74,2.68,13.32,3.21,19.75h-47.97c-.8-8.28-2.78-15.45-5.92-21.51-3.15-6.06-7.09-11.06-11.84-15.02-4.75-3.96-10.24-6.89-16.46-8.81-6.22-1.92-12.81-2.88-19.77-2.88-6.29,0-12.48.59-18.57,1.76-6.09,1.18-11.54,3.06-16.36,5.66-4.82,2.6-8.7,6.03-11.64,10.29-2.95,4.27-4.42,9.49-4.42,15.67,0,7.17,2.31,13.2,6.92,18.08,4.62,4.89,10.67,9.18,18.16,12.89,7.49,3.71,16.06,7.02,25.69,9.92,9.63,2.91,19.43,5.94,29.4,9.09,9.97,3.15,19.77,6.68,29.41,10.57,9.64,3.89,18.2,8.62,25.69,14.19,7.49,5.56,13.55,12.24,18.16,20.03,4.62,7.79,6.92,17.13,6.92,28.01,0,13.11-2.64,24.57-7.93,34.4-5.29,9.83-12.61,18.05-21.98,24.67-9.37,6.62-20.51,11.59-33.42,14.93-12.92,3.34-27,5.01-42.25,5.01-13.78,0-27.2-2.23-40.24-6.68-13.05-4.45-24.69-10.85-34.93-19.19-10.24-8.35-18.53-18.51-24.89-30.51-6.36-11.99-9.73-25.47-10.14-40.43h48.58Z"/>
    <path class="cls-3" d="M1782.34,461.11l91.33,129.45h-53.39l-63.83-91.25-64.03,91.25h-52.99l90.33-129.83-89.92-128.9h52.59l63.63,91.25,64.23-91.25h53.39l-91.33,129.27Z"/>
  </g>
  <g>
    <path class="cls-3" d="M718.16,678.3v42.55h46.54v-42.55h17.58v103.06h-17.58v-46.17h-46.54v46.17h-17.44v-103.06h17.44Z"/>
    <path class="cls-3" d="M824.19,748.41c.25,2.71.86,5.3,1.85,7.76.98,2.46,2.25,4.62,3.81,6.47s3.34,3.31,5.36,4.4c2.02,1.08,4.21,1.63,6.57,1.63,4.24,0,7.77-1.18,10.6-3.55,2.83-2.36,5.08-5.86,6.76-10.49h16.03c-.94,4.43-2.5,8.4-4.69,11.89-2.19,3.5-4.79,6.45-7.79,8.87-3.01,2.41-6.32,4.26-9.94,5.54s-7.33,1.92-11.12,1.92c-5.42,0-10.31-1.08-14.66-3.25-4.36-2.17-8.07-5.07-11.12-8.72-3.05-3.64-5.41-7.89-7.06-12.74-1.65-4.85-2.47-9.96-2.47-15.33,0-5.02.82-9.84,2.47-14.44,1.65-4.6,4-8.67,7.06-12.19,3.05-3.52,6.76-6.32,11.12-8.39,4.36-2.07,9.25-3.1,14.66-3.1s9.95.95,14.18,2.84c4.24,1.9,7.84,4.5,10.82,7.79,2.98,3.3,5.27,7.19,6.87,11.67s2.4,9.33,2.4,14.55v6.87h-51.72ZM858.25,735.19c-.25-2.36-.84-4.52-1.77-6.46s-2.14-3.62-3.62-5.02c-1.48-1.4-3.23-2.49-5.24-3.25-2.02-.76-4.24-1.15-6.65-1.15-2.17,0-4.2.43-6.09,1.29-1.9.86-3.58,2.01-5.06,3.44-1.48,1.43-2.7,3.12-3.66,5.06-.96,1.95-1.61,3.98-1.96,6.09h34.06Z"/>
    <path class="cls-3" d="M963.54,779.37c-1.43.89-2.69,1.56-3.8,2.03-1.11.47-2.07.81-2.88,1.03-.82.22-1.53.34-2.15.37-.62.02-1.14.04-1.59.04-1.82,0-3.46-.31-4.91-.92-1.45-.62-2.73-1.47-3.84-2.55-1.11-1.08-2.07-2.31-2.88-3.69s-1.47-2.86-1.96-4.43c-2.22,2.32-4.32,4.22-6.32,5.73s-3.95,2.68-5.87,3.55c-1.92.86-3.84,1.47-5.76,1.81s-3.92.52-5.98.52c-3.35,0-6.49-.53-9.42-1.59s-5.48-2.57-7.65-4.54c-2.17-1.97-3.88-4.32-5.14-7.06s-1.88-5.8-1.88-9.2c0-2.91.65-5.42,1.96-7.54,1.31-2.12,3.03-3.96,5.17-5.54,2.14-1.58,4.58-2.93,7.31-4.06s5.52-2.15,8.35-3.07c2.83-.91,5.61-1.77,8.35-2.59s5.17-1.67,7.31-2.59c2.14-.91,3.87-1.95,5.17-3.1,1.3-1.16,1.96-2.55,1.96-4.17s-.41-2.91-1.22-3.99c-.81-1.08-1.85-1.96-3.1-2.62s-2.65-1.15-4.17-1.44c-1.53-.3-3.03-.44-4.51-.44s-3.02.21-4.47.63c-1.45.42-2.78,1.07-3.99,1.96-1.21.89-2.23,2.03-3.07,3.44-.84,1.4-1.38,3.09-1.63,5.06h-17.73c.25-4.38,1.31-8.19,3.18-11.41,1.87-3.22,4.24-5.9,7.09-8.02s6.08-3.69,9.68-4.73c3.59-1.03,7.24-1.55,10.93-1.55,3.99,0,7.82.44,11.49,1.33,3.67.89,6.91,2.29,9.72,4.21,2.81,1.92,5.04,4.37,6.68,7.35,1.65,2.98,2.48,6.54,2.48,10.68v36.64c0,.89.33,1.76,1,2.62.67.86,1.61,1.29,2.85,1.29.15,0,.67-.07,1.59-.22s2.13-.64,3.66-1.48v12.26ZM937.09,745.38c-1.13.64-2.61,1.23-4.43,1.77-1.82.54-3.79,1.08-5.91,1.63-2.12.54-4.25,1.15-6.39,1.81s-4.08,1.43-5.8,2.29c-1.73.86-3.14,1.87-4.25,3.03-1.11,1.16-1.66,2.53-1.66,4.1s.25,2.83.74,3.92,1.15,1.98,1.96,2.7c.81.71,1.74,1.23,2.77,1.55,1.03.32,2.09.48,3.18.48,3.4,0,6.85-1.16,10.34-3.47,3.5-2.31,6.65-5.79,9.46-10.42v-9.38Z"/>
    <path class="cls-3" d="M995.32,678.3v103.06h-17.44v-103.06h17.44Z"/>
    <path class="cls-3" d="M1040.32,685.47v20.69h13.74v14.26h-13.74v41c0,2.07.47,3.79,1.4,5.17.94,1.38,2.27,2.07,3.99,2.07.54,0,1.63-.1,3.25-.3,1.63-.2,3.87-.86,6.72-1.99v13.82c-3,1.13-5.89,1.86-8.64,2.18-2.76.32-5,.48-6.72.48-2.36,0-4.6-.47-6.72-1.4s-3.98-2.27-5.58-3.99-2.88-3.79-3.84-6.21c-.96-2.41-1.44-5.1-1.44-8.05v-42.78h-10.56v-14.26h10.56v-20.69h17.58Z"/>
    <path class="cls-3" d="M1090.65,678.3v36.05c5.42-6.45,12.29-9.68,20.61-9.68,3.84,0,7.32.62,10.42,1.85,3.1,1.23,5.75,2.93,7.94,5.1,2.19,2.17,3.89,4.7,5.1,7.61,1.21,2.91,1.81,6.01,1.81,9.31v52.82h-17.43v-48.91c0-2.31-.32-4.31-.96-5.98-.64-1.67-1.49-3.04-2.55-4.1-1.06-1.06-2.28-1.83-3.66-2.33-1.38-.49-2.81-.74-4.28-.74-2.02,0-4.04.44-6.06,1.33s-3.84,2.11-5.47,3.66c-1.63,1.55-2.94,3.37-3.95,5.47-1.01,2.09-1.51,4.32-1.51,6.69v44.92h-17.36v-103.06h17.36Z"/>
    <path class="cls-3" d="M1187.81,755.8l16.99-49.65h17.8l-31.18,88.95c-1.03,2.91-2.33,5.41-3.88,7.5s-3.23,3.82-5.03,5.17c-1.8,1.35-3.63,2.36-5.5,3.03-1.87.66-3.62,1-5.24,1-1.43,0-3.23-.27-5.4-.81-2.17-.54-4.21-1.33-6.13-2.36v-13.52c1.87.98,3.47,1.66,4.8,2.03s2.41.55,3.25.55c1.23,0,2.31-.36,3.25-1.07.93-.71,1.79-1.82,2.59-3.32.79-1.5,1.56-3.4,2.33-5.69.76-2.29,1.61-5.04,2.55-8.24-.64-1.72-1.29-3.51-1.96-5.36-.66-1.85-1.45-4.04-2.36-6.58-.91-2.54-1.99-5.52-3.25-8.94s-2.78-7.56-4.58-12.41-3.9-10.54-6.32-17.07c-2.41-6.53-5.22-14.15-8.42-22.87h18.47l17.21,49.65Z"/>
    <path class="cls-3" d="M1292.36,678.3h40.71c5.32,0,10.03.91,14.15,2.73,4.11,1.82,7.57,4.2,10.38,7.13,2.81,2.93,4.92,6.22,6.36,9.86,1.43,3.65,2.14,7.31,2.14,11.01,0,3.89-.73,7.7-2.18,11.41-1.45,3.72-3.58,7.02-6.39,9.9s-6.25,5.2-10.34,6.94c-4.09,1.75-8.79,2.62-14.11,2.62h-23.27v41.45h-17.44v-103.06ZM1309.8,725.22h19.65c3.59,0,6.61-.42,9.05-1.26,2.44-.84,4.41-1.98,5.91-3.44,1.5-1.45,2.59-3.18,3.25-5.17s1-4.15,1-6.46-.4-4.44-1.22-6.39c-.81-1.95-2.03-3.62-3.66-5.02s-3.63-2.5-6.02-3.29-5.16-1.18-8.31-1.18h-19.65v32.21Z"/>
    <path class="cls-3" d="M1405.11,678.3v103.06h-17.44v-103.06h17.44Z"/>
    <path class="cls-3" d="M1496.22,779.37c-1.43.89-2.69,1.56-3.8,2.03s-2.07.81-2.88,1.03-1.53.34-2.14.37c-.62.02-1.15.04-1.59.04-1.82,0-3.46-.31-4.91-.92s-2.73-1.47-3.84-2.55-2.07-2.31-2.88-3.69-1.47-2.86-1.96-4.43c-2.22,2.32-4.32,4.22-6.32,5.73s-3.95,2.68-5.87,3.55c-1.92.86-3.84,1.47-5.76,1.81s-3.92.52-5.98.52c-3.35,0-6.49-.53-9.42-1.59s-5.48-2.57-7.65-4.54-3.88-4.32-5.13-7.06-1.89-5.8-1.89-9.2c0-2.91.65-5.42,1.96-7.54,1.3-2.12,3.03-3.96,5.17-5.54,2.14-1.58,4.58-2.93,7.31-4.06s5.52-2.15,8.35-3.07c2.83-.91,5.62-1.77,8.35-2.59s5.17-1.67,7.31-2.59c2.14-.91,3.87-1.95,5.17-3.1s1.96-2.55,1.96-4.17-.41-2.91-1.22-3.99c-.81-1.08-1.85-1.96-3.1-2.62s-2.65-1.15-4.18-1.44-3.03-.44-4.51-.44-3.02.21-4.47.63c-1.45.42-2.78,1.07-3.99,1.96s-2.23,2.03-3.06,3.44c-.84,1.4-1.38,3.09-1.63,5.06h-17.73c.25-4.38,1.31-8.19,3.18-11.41,1.87-3.22,4.24-5.9,7.09-8.02,2.85-2.12,6.08-3.69,9.68-4.73,3.6-1.03,7.24-1.55,10.93-1.55,3.99,0,7.82.44,11.49,1.33s6.91,2.29,9.72,4.21,5.03,4.37,6.68,7.35c1.65,2.98,2.48,6.54,2.48,10.68v36.64c0,.89.33,1.76,1,2.62.66.86,1.61,1.29,2.84,1.29.15,0,.68-.07,1.59-.22.91-.15,2.13-.64,3.66-1.48v12.26ZM1469.77,745.38c-1.14.64-2.61,1.23-4.44,1.77-1.82.54-3.79,1.08-5.91,1.63-2.12.54-4.25,1.15-6.39,1.81-2.15.66-4.08,1.43-5.8,2.29-1.72.86-3.14,1.87-4.25,3.03-1.11,1.16-1.66,2.53-1.66,4.1s.25,2.83.74,3.92c.49,1.08,1.14,1.98,1.96,2.7.81.71,1.74,1.23,2.77,1.55,1.03.32,2.09.48,3.18.48,3.4,0,6.85-1.16,10.34-3.47,3.5-2.31,6.65-5.79,9.46-10.42v-9.38Z"/>
    <path class="cls-3" d="M1533.02,685.47v20.69h13.74v14.26h-13.74v41c0,2.07.47,3.79,1.4,5.17.94,1.38,2.27,2.07,3.99,2.07.54,0,1.63-.1,3.25-.3,1.63-.2,3.87-.86,6.72-1.99v13.82c-3,1.13-5.89,1.86-8.64,2.18-2.76.32-5,.48-6.72.48-2.36,0-4.6-.47-6.72-1.4s-3.98-2.27-5.58-3.99-2.88-3.79-3.84-6.21c-.96-2.41-1.44-5.1-1.44-8.05v-42.78h-10.56v-14.26h10.56v-20.69h17.58Z"/>
    <path class="cls-3" d="M1572.19,706.15v-14.33c0-2.37.48-4.54,1.44-6.54s2.29-3.72,3.99-5.17,3.73-2.57,6.1-3.36,4.97-1.18,7.83-1.18c.84,0,1.77.02,2.81.07s2.22.21,3.55.48,2.82.68,4.47,1.22,3.53,1.28,5.65,2.22v13.59c-2.12-.79-3.97-1.4-5.54-1.85-1.58-.44-2.89-.76-3.95-.96-1.06-.2-1.89-.31-2.48-.33-.59-.02-.94-.04-1.03-.04-.64,0-1.29.11-1.96.33s-1.26.55-1.77,1c-.52.44-.94,1-1.26,1.66-.32.66-.48,1.44-.48,2.33v10.86h13.81v14.55h-13.81v60.65h-17.36v-60.65h-11.82v-14.55h11.82Z"/>
    <path class="cls-3" d="M1617.26,743.83c0-5.32.79-10.35,2.36-15.11,1.58-4.75,3.88-8.91,6.91-12.49,3.03-3.57,6.73-6.39,11.12-8.46,4.38-2.07,9.41-3.1,15.07-3.1s10.63,1.03,15.03,3.1c4.41,2.07,8.13,4.89,11.16,8.46,3.03,3.57,5.34,7.73,6.94,12.49,1.6,4.75,2.4,9.79,2.4,15.11s-.79,10.42-2.36,15.15c-1.58,4.73-3.87,8.86-6.87,12.41-3,3.55-6.71,6.34-11.12,8.39-4.41,2.04-9.42,3.07-15.03,3.07s-10.7-1.02-15.11-3.07c-4.41-2.04-8.13-4.84-11.15-8.39-3.03-3.55-5.35-7.68-6.94-12.41-1.6-4.73-2.4-9.78-2.4-15.15ZM1634.85,743.83c0,3.35.4,6.51,1.22,9.49.81,2.98,1.99,5.58,3.55,7.79s3.44,3.98,5.65,5.28c2.22,1.31,4.7,1.96,7.46,1.96s5.24-.65,7.46-1.96c2.22-1.3,4.11-3.07,5.69-5.28,1.58-2.22,2.79-4.81,3.66-7.79.86-2.98,1.29-6.14,1.29-9.49s-.43-6.44-1.29-9.42c-.86-2.98-2.08-5.59-3.66-7.83-1.58-2.24-3.47-4.01-5.69-5.32-2.22-1.3-4.7-1.96-7.46-1.96s-5.24.65-7.46,1.96c-2.22,1.31-4.1,3.08-5.65,5.32s-2.73,4.85-3.55,7.83c-.81,2.98-1.22,6.12-1.22,9.42Z"/>
    <path class="cls-3" d="M1710.51,706.15h12.86l2.88,9.24c2.27-3.5,4.63-6.16,7.09-7.98,2.46-1.82,5.12-2.73,7.98-2.73.94,0,2.37.18,4.32.55,1.95.37,4.3,1.34,7.06,2.92v15c-1.82-.69-3.38-1.22-4.66-1.59s-2.35-.64-3.21-.81c-.86-.17-1.53-.27-1.99-.3-.47-.02-.8-.04-1-.04-2.22,0-4.19.44-5.91,1.33s-3.18,2.08-4.36,3.58-2.09,3.24-2.73,5.21-.96,4.04-.96,6.21v44.62h-17.36v-75.21Z"/>
    <path class="cls-3" d="M1765.41,706.15h17.44v8.05c2.95-3.35,6.03-5.77,9.23-7.28,3.2-1.5,6.28-2.25,9.23-2.25,1.77,0,3.47.17,5.1.52,1.63.35,3.2,1,4.73,1.96,1.52.96,3.03,2.32,4.51,4.06s2.95,4.05,4.43,6.91c1.82-2.56,3.68-4.7,5.58-6.43,1.89-1.72,3.81-3.1,5.76-4.14,1.95-1.03,3.89-1.77,5.84-2.22s3.88-.66,5.8-.66c3.79,0,7.23.68,10.31,2.03,3.08,1.36,5.7,3.21,7.87,5.58s3.84,5.15,5.02,8.35c1.18,3.2,1.77,6.65,1.77,10.34v50.39h-17.43v-49.65c0-2.41-.3-4.42-.89-6.02s-1.38-2.87-2.36-3.81c-.98-.93-2.1-1.6-3.32-1.99-1.23-.39-2.47-.59-3.69-.59-1.73,0-3.46.42-5.21,1.26-1.75.84-3.31,1.99-4.69,3.47-1.38,1.48-2.5,3.23-3.36,5.25-.86,2.02-1.29,4.21-1.29,6.57v45.51h-17.36v-49.65c0-2.41-.31-4.42-.92-6.02s-1.4-2.87-2.36-3.81c-.96-.93-1.99-1.6-3.1-1.99-1.11-.39-2.16-.59-3.14-.59-2.22,0-4.31.55-6.28,1.66s-3.67,2.5-5.1,4.18-2.56,3.52-3.4,5.54c-.84,2.02-1.26,3.94-1.26,5.76v44.92h-17.44v-75.21Z"/>
  </g>
  <rect class="cls-2" x="1443.61" y="416.75" width="48.26" height="105.8" transform="translate(614.89 -813.89) rotate(38.65)"/>
</svg>