<?xml version="1.0" encoding="UTF-8"?>
<svg version="1.1" xmlns="http://www.w3.org/2000/svg" width="304" height="453">
<path d="M0 0 C2.59745249 1.49442472 4.873288 3.02563175 6.99609375 5.1484375 C6.99609375 5.8084375 6.99609375 6.4684375 6.99609375 7.1484375 C7.65609375 7.1484375 8.31609375 7.1484375 8.99609375 7.1484375 C12.50913264 13.33807745 15.73161868 19.59054167 18.7109375 26.05078125 C19.18847473 27.0803595 19.18847473 27.0803595 19.67565918 28.1307373 C20.45078752 29.80253994 21.22367696 31.47538033 21.99609375 33.1484375 C22.57158966 33.15208313 23.14708557 33.15572876 23.74002075 33.15948486 C29.74277789 33.20137265 35.7447749 33.27076203 41.74707031 33.35595703 C43.98559966 33.38414112 46.22422805 33.40536836 48.46289062 33.41943359 C51.68541069 33.44089798 54.90674313 33.4875681 58.12890625 33.5390625 C59.12600616 33.54029114 60.12310608 33.54151978 61.15042114 33.54278564 C67.05826754 33.66664729 70.5042039 34.20088327 74.99609375 38.1484375 C77.35879567 41.69249038 77.70942872 43.92012836 77.99609375 48.1484375 C76.99375434 52.70452572 75.29852652 55.84600473 71.99609375 59.1484375 C67.55283734 60.98710967 63.63231356 61.43981648 58.84765625 61.5625 C58.19026459 61.58186615 57.53287292 61.6012323 56.8555603 61.6211853 C54.7775324 61.68046211 52.69944751 61.72715544 50.62109375 61.7734375 C49.20310225 61.81166528 47.78513278 61.85071973 46.3671875 61.890625 C42.91035914 61.98611921 39.45336392 62.07033939 35.99609375 62.1484375 C36.82753906 63.79392578 36.82753906 63.79392578 37.67578125 65.47265625 C38.40765933 66.92702937 39.1394242 68.38145946 39.87109375 69.8359375 C40.23589844 70.55716797 40.60070312 71.27839844 40.9765625 72.02148438 C42.81401795 75.67969114 44.55747877 79.309607 45.99609375 83.1484375 C46.63635498 83.16302002 47.27661621 83.17760254 47.9362793 83.19262695 C50.85264206 83.26735132 53.76789062 83.36393043 56.68359375 83.4609375 C57.69099609 83.48349609 58.69839844 83.50605469 59.73632812 83.52929688 C68.93046045 83.86307726 68.93046045 83.86307726 72.99609375 87.1484375 C74.10984375 87.98375 74.10984375 87.98375 75.24609375 88.8359375 C77.69794864 92.0758886 78.18137319 95.18345745 77.99609375 99.1484375 C76.38611416 104.51503612 74.38910125 106.83567775 69.99609375 110.1484375 C70.63111816 110.16302002 71.26614258 110.17760254 71.92041016 110.19262695 C74.82122456 110.26748839 77.72093581 110.36402176 80.62109375 110.4609375 C82.11962891 110.49477539 82.11962891 110.49477539 83.6484375 110.52929688 C89.11993099 110.72858968 93.30203467 111.02911092 97.99609375 114.1484375 C101.07221564 117.55711311 102.86650768 119.80074241 103.30859375 124.3984375 C102.8824773 129.51183494 100.70572142 132.1652694 97.43359375 135.9609375 C94.55718177 138.33710392 91.66189936 138.2676242 88.109375 138.24609375 C87.17158203 138.24287109 86.23378906 138.23964844 85.26757812 138.23632812 C84.29111328 138.22794922 83.31464844 138.21957031 82.30859375 138.2109375 C81.32052734 138.20642578 80.33246094 138.20191406 79.31445312 138.19726562 C76.87493901 138.18548053 74.43554686 138.16902761 71.99609375 138.1484375 C72.723125 139.58509766 72.723125 139.58509766 73.46484375 141.05078125 C77.07184184 148.20660005 80.60950695 155.38544391 83.99609375 162.6484375 C86.73622097 168.51877713 89.54260745 174.35078143 92.43359375 180.1484375 C92.77583984 180.83744141 93.11808594 181.52644531 93.47070312 182.23632812 C94.9231494 185.40169509 94.9231494 185.40169509 96.99609375 188.1484375 C100.46213055 188.18057294 103.91798225 188.07974984 107.3828125 187.98828125 C112.65560869 188.22199438 115.89355029 189.1438979 119.80859375 192.7109375 C120.53046875 193.5153125 121.25234375 194.3196875 121.99609375 195.1484375 C122.32609375 195.4784375 122.65609375 195.8084375 122.99609375 196.1484375 C123.50070758 201.54201479 123.93436908 206.47294585 121.24609375 211.2734375 C116.95561081 214.84883995 113.5680966 215.50551409 107.99609375 216.1484375 C108.01929688 216.7775 108.0425 217.4065625 108.06640625 218.0546875 C108.24124849 226.3472054 107.05840766 232.76241221 102.99609375 240.1484375 C102.33609375 240.1484375 101.67609375 240.1484375 100.99609375 240.1484375 C100.61710937 241.04175781 100.61710937 241.04175781 100.23046875 241.953125 C98.84443003 244.41816854 97.50891141 245.59825078 95.24609375 247.2734375 C94.59125 247.77101563 93.93640625 248.26859375 93.26171875 248.78125 C87.11232809 252.49208919 81.15973126 252.45024883 74.19238281 252.45483398 C73.11516968 252.4631575 72.03795654 252.47148102 70.92810059 252.48005676 C67.37260302 252.50412013 63.81728908 252.51292484 60.26171875 252.51953125 C57.78318223 252.52850083 55.30464626 252.53762274 52.82611084 252.54689026 C47.63113083 252.56337321 42.43621522 252.57107904 37.24121094 252.57397461 C30.5990499 252.57935543 23.95751309 252.61702706 17.31549454 252.66271877 C12.19551406 252.69252763 7.07567951 252.69969903 1.95561981 252.70070076 C-0.49229977 252.70489593 -2.94022008 252.71730174 -5.38805389 252.73821831 C-8.82002455 252.76520839 -12.250593 252.76028311 -15.68261719 252.74780273 C-17.18547272 252.77005417 -17.18547272 252.77005417 -18.71868896 252.79275513 C-27.7831638 252.69934517 -34.48258822 249.522546 -41.31640625 243.6484375 C-46.95748535 237.5839914 -50.11815397 229.40111912 -50.62890625 221.1484375 C-50.22263172 213.40382926 -46.51930623 205.94925801 -43.00390625 199.1484375 C-42.34390625 199.1484375 -41.68390625 199.1484375 -41.00390625 199.1484375 C-40.77703125 198.5709375 -40.55015625 197.9934375 -40.31640625 197.3984375 C-37.07112043 191.83509038 -30.96501672 188.99929977 -25.00390625 187.1484375 C-22.4902007 186.76503665 -19.96797988 186.43503391 -17.44140625 186.1484375 C-9.89984304 185.27274047 -4.29021807 183.98033491 0.87109375 178.2109375 C4.76973815 172.59230293 5.89539032 167.92606287 4.99609375 161.1484375 C3.42703223 156.02067974 1.70829168 152.00941482 -3.00390625 149.1484375 C-3.00390625 148.4884375 -3.00390625 147.8284375 -3.00390625 147.1484375 C-9.6166244 144.84836162 -16.10441572 143.69959364 -22.83203125 146.19921875 C-27.71825539 148.29429709 -27.71825539 148.29429709 -31.00390625 152.1484375 C-31.66390625 152.1484375 -32.32390625 152.1484375 -33.00390625 152.1484375 C-33.18264282 152.98133301 -33.18264282 152.98133301 -33.36499023 153.83105469 C-34.08562634 156.44484067 -35.09642507 158.76154446 -36.2265625 161.2265625 C-36.67870117 162.21479004 -37.13083984 163.20301758 -37.59667969 164.22119141 C-38.08168945 165.26968262 -38.56669922 166.31817383 -39.06640625 167.3984375 C-39.56301758 168.47657715 -40.05962891 169.5547168 -40.57128906 170.66552734 C-44.25917128 178.63216136 -48.08690704 186.51390395 -52.07763672 194.33251953 C-53.66917013 197.45266331 -55.24363476 200.58130647 -56.81640625 203.7109375 C-57.63044922 205.32162109 -57.63044922 205.32162109 -58.4609375 206.96484375 C-59.77227909 209.67052322 -60.98220711 212.39578885 -62.15307617 215.16430664 C-63.9436956 219.34002087 -65.84374907 223.46386518 -67.75390625 227.5859375 C-68.15867187 228.48892578 -68.5634375 229.39191406 -68.98046875 230.32226562 C-73.24298281 239.46284314 -78.71322467 246.74406312 -88.015625 251.08203125 C-98.78443881 254.58889503 -113.81674458 254.02585984 -124.00390625 249.1484375 C-130.9474786 244.39961669 -136.81423183 238.40849646 -139.00390625 230.1484375 C-140.74980804 217.67409571 -138.05062109 208.0635994 -132.00390625 197.1484375 C-131.61267578 196.43308838 -131.22144531 195.71773926 -130.81835938 194.98071289 C-128.11278196 192.24856024 -125.93050149 192.6028948 -122.1484375 192.5390625 C-121.48680099 192.52252625 -120.82516449 192.50598999 -120.14347839 192.48895264 C-118.03436024 192.44044462 -115.92596302 192.41909823 -113.81640625 192.3984375 C-112.3847293 192.37027973 -110.95308597 192.34035255 -109.52148438 192.30859375 C-106.01578232 192.23468857 -102.5102175 192.18512962 -99.00390625 192.1484375 C-99.00390625 190.4984375 -99.00390625 188.8484375 -99.00390625 187.1484375 C-99.65987793 187.13385498 -100.31584961 187.11927246 -100.99169922 187.10424805 C-103.95470656 187.02992336 -106.91656742 186.93321381 -109.87890625 186.8359375 C-111.42771484 186.80209961 -111.42771484 186.80209961 -113.0078125 186.76757812 C-113.99394531 186.73212891 -114.98007813 186.69667969 -115.99609375 186.66015625 C-116.9072998 186.63397217 -117.81850586 186.60778809 -118.75732422 186.58081055 C-119.49869629 186.43812744 -120.24006836 186.29544434 -121.00390625 186.1484375 C-123.00390625 183.1484375 -123.00390625 183.1484375 -122.84765625 179.9140625 C-121.94039583 175.86499284 -120.44679663 172.52199049 -118.50390625 168.8984375 C-117.77151014 167.48406929 -117.04112298 166.06865941 -116.3125 164.65234375 C-115.74184814 163.54850342 -115.74184814 163.54850342 -115.15966797 162.42236328 C-113.21579775 158.59785817 -111.39185336 154.71801237 -109.56640625 150.8359375 C-109.19483398 150.04880371 -108.82326172 149.26166992 -108.44042969 148.45068359 C-106.4897877 144.31542322 -104.54843186 140.17585879 -102.609375 136.03515625 C-102.01757446 134.77602417 -102.01757446 134.77602417 -101.41381836 133.49145508 C-100.66838343 131.90534654 -99.92549106 130.31803921 -99.18579102 128.72924805 C-92.6142753 114.75880655 -92.6142753 114.75880655 -89.00390625 111.1484375 C-86.97909546 110.8699646 -86.97909546 110.8699646 -84.46240234 110.82958984 C-83.52157806 110.80972015 -82.58075378 110.78985046 -81.61141968 110.76937866 C-80.59367462 110.75782745 -79.57592957 110.74627625 -78.52734375 110.734375 C-77.48695953 110.71500885 -76.44657532 110.6956427 -75.37466431 110.6756897 C-72.04282905 110.61578023 -68.71095946 110.56946298 -65.37890625 110.5234375 C-63.12368262 110.4852682 -60.86847373 110.4462171 -58.61328125 110.40625 C-53.0769535 110.31006951 -47.5405374 110.22505554 -42.00390625 110.1484375 C-42.00390625 108.8284375 -42.00390625 107.5084375 -42.00390625 106.1484375 C-43.20515137 106.13385498 -44.40639648 106.11927246 -45.64404297 106.10424805 C-50.09096398 106.04637758 -54.53737259 105.96914488 -58.98388672 105.88598633 C-60.91023456 105.85268381 -62.83668124 105.82466861 -64.76318359 105.80200195 C-67.52874975 105.76855326 -70.29340578 105.71624414 -73.05859375 105.66015625 C-73.92322235 105.65376633 -74.78785095 105.6473764 -75.67868042 105.64079285 C-78.10498047 105.58081055 -78.10498047 105.58081055 -82.00390625 105.1484375 C-84.12847927 101.96157798 -84.25960406 100.92048539 -83.625 97.26171875 C-82.35109333 92.92723127 -80.24287458 87.38740583 -77.00390625 84.1484375 C-75.44442083 83.99157501 -73.87847957 83.89767111 -72.3125 83.83203125 C-71.36826172 83.79013672 -70.42402344 83.74824219 -69.45117188 83.70507812 C-68.45794922 83.66576172 -67.46472656 83.62644531 -66.44140625 83.5859375 C-65.44431641 83.54275391 -64.44722656 83.49957031 -63.41992188 83.45507812 C-60.94806475 83.34863452 -58.47610315 83.24661822 -56.00390625 83.1484375 C-56.00390625 81.8284375 -56.00390625 80.5084375 -56.00390625 79.1484375 C-57.25107422 79.07496094 -57.25107422 79.07496094 -58.5234375 79 C-60.15345703 78.88785156 -60.15345703 78.88785156 -61.81640625 78.7734375 C-62.89535156 78.70382813 -63.97429687 78.63421875 -65.0859375 78.5625 C-68.00390625 78.1484375 -68.00390625 78.1484375 -71.00390625 76.1484375 C-71.73164999 70.48743093 -70.15913764 66.57550221 -67.50390625 61.7109375 C-66.77027248 60.31149179 -66.03721719 58.9117427 -65.3046875 57.51171875 C-64.92521973 56.79709473 -64.54575195 56.0824707 -64.15478516 55.34619141 C-63.00127102 53.14340518 -61.89217171 50.92365525 -60.796875 48.69140625 C-60.44367188 47.97202881 -60.09046875 47.25265137 -59.7265625 46.51147461 C-59.05182291 45.13414652 -58.37857209 43.75608779 -57.70703125 42.37719727 C-56.83617601 40.61900015 -55.92183252 38.88252438 -55.00390625 37.1484375 C-54.65005859 36.43236328 -54.29621094 35.71628906 -53.93164062 34.97851562 C-50.88583506 32.08700619 -47.38311744 32.54506423 -43.3984375 32.5390625 C-42.55923264 32.52252625 -41.72002777 32.50598999 -40.85539246 32.48895264 C-38.17565667 32.44037727 -35.49648868 32.41908122 -32.81640625 32.3984375 C-30.99932024 32.37028569 -29.1822608 32.34035937 -27.36523438 32.30859375 C-22.91150507 32.2346161 -18.45809274 32.18510007 -14.00390625 32.1484375 C-14.00390625 30.4984375 -14.00390625 28.8484375 -14.00390625 27.1484375 C-14.93251465 27.13385498 -15.86112305 27.11927246 -16.81787109 27.10424805 C-20.25857121 27.04324578 -23.69846277 26.969107 -27.13867188 26.88598633 C-28.62847197 26.85270287 -30.1183992 26.82468153 -31.60839844 26.80200195 C-33.74859877 26.76851679 -35.88763044 26.71620961 -38.02734375 26.66015625 C-39.959729 26.62088013 -39.959729 26.62088013 -41.93115234 26.58081055 C-42.94516113 26.43812744 -43.95916992 26.29544434 -45.00390625 26.1484375 C-47.00390625 23.1484375 -47.00390625 23.1484375 -46.87890625 20.9609375 C-45.32388126 15.9626429 -42.90059796 11.49347507 -40.00390625 7.1484375 C-39.34390625 7.1484375 -38.68390625 7.1484375 -38.00390625 7.1484375 C-37.77960938 6.55546875 -37.5553125 5.9625 -37.32421875 5.3515625 C-30.36954875 -6.25327146 -10.47033018 -4.97914521 0 0 Z " fill="#01AFC9" transform="translate(160.00390625,101.8515625)"/>
<path d="M0 0 C2.59745249 1.49442472 4.873288 3.02563175 6.99609375 5.1484375 C6.99609375 5.8084375 6.99609375 6.4684375 6.99609375 7.1484375 C7.65609375 7.1484375 8.31609375 7.1484375 8.99609375 7.1484375 C12.50913264 13.33807745 15.73161868 19.59054167 18.7109375 26.05078125 C19.18847473 27.0803595 19.18847473 27.0803595 19.67565918 28.1307373 C20.45078752 29.80253994 21.22367696 31.47538033 21.99609375 33.1484375 C22.57158966 33.15208313 23.14708557 33.15572876 23.74002075 33.15948486 C29.74277789 33.20137265 35.7447749 33.27076203 41.74707031 33.35595703 C43.98559966 33.38414112 46.22422805 33.40536836 48.46289062 33.41943359 C51.68541069 33.44089798 54.90674313 33.4875681 58.12890625 33.5390625 C59.12600616 33.54029114 60.12310608 33.54151978 61.15042114 33.54278564 C67.05826754 33.66664729 70.5042039 34.20088327 74.99609375 38.1484375 C77.35879567 41.69249038 77.70942872 43.92012836 77.99609375 48.1484375 C76.99375434 52.70452572 75.29852652 55.84600473 71.99609375 59.1484375 C67.55283734 60.98710967 63.63231356 61.43981648 58.84765625 61.5625 C58.19026459 61.58186615 57.53287292 61.6012323 56.8555603 61.6211853 C54.7775324 61.68046211 52.69944751 61.72715544 50.62109375 61.7734375 C49.20310225 61.81166528 47.78513278 61.85071973 46.3671875 61.890625 C42.91035914 61.98611921 39.45336392 62.07033939 35.99609375 62.1484375 C36.82753906 63.79392578 36.82753906 63.79392578 37.67578125 65.47265625 C38.40765933 66.92702937 39.1394242 68.38145946 39.87109375 69.8359375 C40.23589844 70.55716797 40.60070312 71.27839844 40.9765625 72.02148438 C42.81401795 75.67969114 44.55747877 79.309607 45.99609375 83.1484375 C46.63635498 83.16302002 47.27661621 83.17760254 47.9362793 83.19262695 C50.85264206 83.26735132 53.76789062 83.36393043 56.68359375 83.4609375 C57.69099609 83.48349609 58.69839844 83.50605469 59.73632812 83.52929688 C68.93046045 83.86307726 68.93046045 83.86307726 72.99609375 87.1484375 C74.10984375 87.98375 74.10984375 87.98375 75.24609375 88.8359375 C77.69794864 92.0758886 78.18137319 95.18345745 77.99609375 99.1484375 C76.38611416 104.51503612 74.38910125 106.83567775 69.99609375 110.1484375 C70.63111816 110.16302002 71.26614258 110.17760254 71.92041016 110.19262695 C74.82122456 110.26748839 77.72093581 110.36402176 80.62109375 110.4609375 C82.11962891 110.49477539 82.11962891 110.49477539 83.6484375 110.52929688 C89.11993099 110.72858968 93.30203467 111.02911092 97.99609375 114.1484375 C101.07221564 117.55711311 102.86650768 119.80074241 103.30859375 124.3984375 C102.8824773 129.51183494 100.70572142 132.1652694 97.43359375 135.9609375 C94.55718177 138.33710392 91.66189936 138.2676242 88.109375 138.24609375 C87.17158203 138.24287109 86.23378906 138.23964844 85.26757812 138.23632812 C84.29111328 138.22794922 83.31464844 138.21957031 82.30859375 138.2109375 C81.32052734 138.20642578 80.33246094 138.20191406 79.31445312 138.19726562 C76.87493901 138.18548053 74.43554686 138.16902761 71.99609375 138.1484375 C72.723125 139.58509766 72.723125 139.58509766 73.46484375 141.05078125 C77.07184184 148.20660005 80.60950695 155.38544391 83.99609375 162.6484375 C86.73622097 168.51877713 89.54260745 174.35078143 92.43359375 180.1484375 C92.77583984 180.83744141 93.11808594 181.52644531 93.47070312 182.23632812 C94.9231494 185.40169509 94.9231494 185.40169509 96.99609375 188.1484375 C100.46213055 188.18057294 103.91798225 188.07974984 107.3828125 187.98828125 C112.65560869 188.22199438 115.89355029 189.1438979 119.80859375 192.7109375 C120.53046875 193.5153125 121.25234375 194.3196875 121.99609375 195.1484375 C122.32609375 195.4784375 122.65609375 195.8084375 122.99609375 196.1484375 C123.50070758 201.54201479 123.93436908 206.47294585 121.24609375 211.2734375 C116.95561081 214.84883995 113.5680966 215.50551409 107.99609375 216.1484375 C108.01929688 216.7775 108.0425 217.4065625 108.06640625 218.0546875 C108.24124849 226.3472054 107.05840766 232.76241221 102.99609375 240.1484375 C102.33609375 240.1484375 101.67609375 240.1484375 100.99609375 240.1484375 C100.61710937 241.04175781 100.61710937 241.04175781 100.23046875 241.953125 C98.84443003 244.41816854 97.50891141 245.59825078 95.24609375 247.2734375 C94.59125 247.77101563 93.93640625 248.26859375 93.26171875 248.78125 C87.11232809 252.49208919 81.15973126 252.45024883 74.19238281 252.45483398 C73.11516968 252.4631575 72.03795654 252.47148102 70.92810059 252.48005676 C67.37260302 252.50412013 63.81728908 252.51292484 60.26171875 252.51953125 C57.78318223 252.52850083 55.30464626 252.53762274 52.82611084 252.54689026 C47.63113083 252.56337321 42.43621522 252.57107904 37.24121094 252.57397461 C30.5990499 252.57935543 23.95751309 252.61702706 17.31549454 252.66271877 C12.19551406 252.69252763 7.07567951 252.69969903 1.95561981 252.70070076 C-0.49229977 252.70489593 -2.94022008 252.71730174 -5.38805389 252.73821831 C-8.82002455 252.76520839 -12.250593 252.76028311 -15.68261719 252.74780273 C-17.18547272 252.77005417 -17.18547272 252.77005417 -18.71868896 252.79275513 C-27.7831638 252.69934517 -34.48258822 249.522546 -41.31640625 243.6484375 C-46.95748535 237.5839914 -50.11815397 229.40111912 -50.62890625 221.1484375 C-50.22263172 213.40382926 -46.51930623 205.94925801 -43.00390625 199.1484375 C-42.34390625 199.1484375 -41.68390625 199.1484375 -41.00390625 199.1484375 C-40.77703125 198.5709375 -40.55015625 197.9934375 -40.31640625 197.3984375 C-37.07112043 191.83509038 -30.96501672 188.99929977 -25.00390625 187.1484375 C-22.4902007 186.76503665 -19.96797988 186.43503391 -17.44140625 186.1484375 C-9.89984304 185.27274047 -4.29021807 183.98033491 0.87109375 178.2109375 C4.76973815 172.59230293 5.89539032 167.92606287 4.99609375 161.1484375 C3.42703223 156.02067974 1.70829168 152.00941482 -3.00390625 149.1484375 C-3.00390625 148.4884375 -3.00390625 147.8284375 -3.00390625 147.1484375 C-9.6166244 144.84836162 -16.10441572 143.69959364 -22.83203125 146.19921875 C-27.71825539 148.29429709 -27.71825539 148.29429709 -31.00390625 152.1484375 C-31.66390625 152.1484375 -32.32390625 152.1484375 -33.00390625 152.1484375 C-33.18264282 152.98133301 -33.18264282 152.98133301 -33.36499023 153.83105469 C-34.08562634 156.44484067 -35.09642507 158.76154446 -36.2265625 161.2265625 C-36.67870117 162.21479004 -37.13083984 163.20301758 -37.59667969 164.22119141 C-38.08168945 165.26968262 -38.56669922 166.31817383 -39.06640625 167.3984375 C-39.56301758 168.47657715 -40.05962891 169.5547168 -40.57128906 170.66552734 C-44.25917128 178.63216136 -48.08690704 186.51390395 -52.07763672 194.33251953 C-53.66917013 197.45266331 -55.24363476 200.58130647 -56.81640625 203.7109375 C-57.63044922 205.32162109 -57.63044922 205.32162109 -58.4609375 206.96484375 C-59.77227909 209.67052322 -60.98220711 212.39578885 -62.15307617 215.16430664 C-63.9436956 219.34002087 -65.84374907 223.46386518 -67.75390625 227.5859375 C-68.15867187 228.48892578 -68.5634375 229.39191406 -68.98046875 230.32226562 C-73.24298281 239.46284314 -78.71322467 246.74406312 -88.015625 251.08203125 C-98.78443881 254.58889503 -113.81674458 254.02585984 -124.00390625 249.1484375 C-130.9474786 244.39961669 -136.81423183 238.40849646 -139.00390625 230.1484375 C-140.74980804 217.67409571 -138.05062109 208.0635994 -132.00390625 197.1484375 C-131.61267578 196.43308838 -131.22144531 195.71773926 -130.81835938 194.98071289 C-128.11278196 192.24856024 -125.93050149 192.6028948 -122.1484375 192.5390625 C-121.48680099 192.52252625 -120.82516449 192.50598999 -120.14347839 192.48895264 C-118.03436024 192.44044462 -115.92596302 192.41909823 -113.81640625 192.3984375 C-112.3847293 192.37027973 -110.95308597 192.34035255 -109.52148438 192.30859375 C-106.01578232 192.23468857 -102.5102175 192.18512962 -99.00390625 192.1484375 C-99.00390625 190.4984375 -99.00390625 188.8484375 -99.00390625 187.1484375 C-99.65987793 187.13385498 -100.31584961 187.11927246 -100.99169922 187.10424805 C-103.95470656 187.02992336 -106.91656742 186.93321381 -109.87890625 186.8359375 C-111.42771484 186.80209961 -111.42771484 186.80209961 -113.0078125 186.76757812 C-113.99394531 186.73212891 -114.98007813 186.69667969 -115.99609375 186.66015625 C-116.9072998 186.63397217 -117.81850586 186.60778809 -118.75732422 186.58081055 C-119.49869629 186.43812744 -120.24006836 186.29544434 -121.00390625 186.1484375 C-123.00390625 183.1484375 -123.00390625 183.1484375 -122.84765625 179.9140625 C-121.94039583 175.86499284 -120.44679663 172.52199049 -118.50390625 168.8984375 C-117.77151014 167.48406929 -117.04112298 166.06865941 -116.3125 164.65234375 C-115.74184814 163.54850342 -115.74184814 163.54850342 -115.15966797 162.42236328 C-113.21579775 158.59785817 -111.39185336 154.71801237 -109.56640625 150.8359375 C-109.19483398 150.04880371 -108.82326172 149.26166992 -108.44042969 148.45068359 C-106.4897877 144.31542322 -104.54843186 140.17585879 -102.609375 136.03515625 C-102.01757446 134.77602417 -102.01757446 134.77602417 -101.41381836 133.49145508 C-100.66838343 131.90534654 -99.92549106 130.31803921 -99.18579102 128.72924805 C-92.6142753 114.75880655 -92.6142753 114.75880655 -89.00390625 111.1484375 C-86.97909546 110.8699646 -86.97909546 110.8699646 -84.46240234 110.82958984 C-83.52157806 110.80972015 -82.58075378 110.78985046 -81.61141968 110.76937866 C-80.59367462 110.75782745 -79.57592957 110.74627625 -78.52734375 110.734375 C-77.48695953 110.71500885 -76.44657532 110.6956427 -75.37466431 110.6756897 C-72.04282905 110.61578023 -68.71095946 110.56946298 -65.37890625 110.5234375 C-63.12368262 110.4852682 -60.86847373 110.4462171 -58.61328125 110.40625 C-53.0769535 110.31006951 -47.5405374 110.22505554 -42.00390625 110.1484375 C-42.00390625 108.8284375 -42.00390625 107.5084375 -42.00390625 106.1484375 C-43.20515137 106.13385498 -44.40639648 106.11927246 -45.64404297 106.10424805 C-50.09096398 106.04637758 -54.53737259 105.96914488 -58.98388672 105.88598633 C-60.91023456 105.85268381 -62.83668124 105.82466861 -64.76318359 105.80200195 C-67.52874975 105.76855326 -70.29340578 105.71624414 -73.05859375 105.66015625 C-73.92322235 105.65376633 -74.78785095 105.6473764 -75.67868042 105.64079285 C-78.10498047 105.58081055 -78.10498047 105.58081055 -82.00390625 105.1484375 C-84.12847927 101.96157798 -84.25960406 100.92048539 -83.625 97.26171875 C-82.35109333 92.92723127 -80.24287458 87.38740583 -77.00390625 84.1484375 C-75.44442083 83.99157501 -73.87847957 83.89767111 -72.3125 83.83203125 C-71.36826172 83.79013672 -70.42402344 83.74824219 -69.45117188 83.70507812 C-68.45794922 83.66576172 -67.46472656 83.62644531 -66.44140625 83.5859375 C-65.44431641 83.54275391 -64.44722656 83.49957031 -63.41992188 83.45507812 C-60.94806475 83.34863452 -58.47610315 83.24661822 -56.00390625 83.1484375 C-56.00390625 81.8284375 -56.00390625 80.5084375 -56.00390625 79.1484375 C-57.25107422 79.07496094 -57.25107422 79.07496094 -58.5234375 79 C-60.15345703 78.88785156 -60.15345703 78.88785156 -61.81640625 78.7734375 C-62.89535156 78.70382813 -63.97429687 78.63421875 -65.0859375 78.5625 C-68.00390625 78.1484375 -68.00390625 78.1484375 -71.00390625 76.1484375 C-71.73164999 70.48743093 -70.15913764 66.57550221 -67.50390625 61.7109375 C-66.77027248 60.31149179 -66.03721719 58.9117427 -65.3046875 57.51171875 C-64.92521973 56.79709473 -64.54575195 56.0824707 -64.15478516 55.34619141 C-63.00127102 53.14340518 -61.89217171 50.92365525 -60.796875 48.69140625 C-60.44367188 47.97202881 -60.09046875 47.25265137 -59.7265625 46.51147461 C-59.05182291 45.13414652 -58.37857209 43.75608779 -57.70703125 42.37719727 C-56.83617601 40.61900015 -55.92183252 38.88252438 -55.00390625 37.1484375 C-54.65005859 36.43236328 -54.29621094 35.71628906 -53.93164062 34.97851562 C-50.88583506 32.08700619 -47.38311744 32.54506423 -43.3984375 32.5390625 C-42.55923264 32.52252625 -41.72002777 32.50598999 -40.85539246 32.48895264 C-38.17565667 32.44037727 -35.49648868 32.41908122 -32.81640625 32.3984375 C-30.99932024 32.37028569 -29.1822608 32.34035937 -27.36523438 32.30859375 C-22.91150507 32.2346161 -18.45809274 32.18510007 -14.00390625 32.1484375 C-14.00390625 30.4984375 -14.00390625 28.8484375 -14.00390625 27.1484375 C-14.93251465 27.13385498 -15.86112305 27.11927246 -16.81787109 27.10424805 C-20.25857121 27.04324578 -23.69846277 26.969107 -27.13867188 26.88598633 C-28.62847197 26.85270287 -30.1183992 26.82468153 -31.60839844 26.80200195 C-33.74859877 26.76851679 -35.88763044 26.71620961 -38.02734375 26.66015625 C-39.959729 26.62088013 -39.959729 26.62088013 -41.93115234 26.58081055 C-42.94516113 26.43812744 -43.95916992 26.29544434 -45.00390625 26.1484375 C-47.00390625 23.1484375 -47.00390625 23.1484375 -46.87890625 20.9609375 C-45.32388126 15.9626429 -42.90059796 11.49347507 -40.00390625 7.1484375 C-39.34390625 7.1484375 -38.68390625 7.1484375 -38.00390625 7.1484375 C-37.77960938 6.55546875 -37.5553125 5.9625 -37.32421875 5.3515625 C-30.36954875 -6.25327146 -10.47033018 -4.97914521 0 0 Z M-38.00390625 13.1484375 C-40.32062073 16.92154759 -40.32062073 16.92154759 -41.00390625 21.1484375 C-40.24247314 21.16302002 -39.48104004 21.17760254 -38.6965332 21.19262695 C-35.23598737 21.26724291 -31.7763918 21.36386009 -28.31640625 21.4609375 C-27.11822266 21.48349609 -25.92003906 21.50605469 -24.68554688 21.52929688 C-22.95014648 21.5824707 -22.95014648 21.5824707 -21.1796875 21.63671875 C-20.11661377 21.66290283 -19.05354004 21.68908691 -17.95825195 21.71606445 C-14.63040009 22.2031007 -12.6898217 23.14922719 -10.00390625 25.1484375 C-9.375 27.3046875 -9.375 27.3046875 -9.44140625 29.6484375 C-9.44011719 30.421875 -9.43882812 31.1953125 -9.4375 31.9921875 C-10.00390625 34.1484375 -10.00390625 34.1484375 -11.52270508 35.7512207 C-15.01813328 37.71957016 -18.35835256 37.62756395 -22.26953125 37.66015625 C-23.45962799 37.68708305 -23.45962799 37.68708305 -24.67376709 37.71455383 C-27.20042656 37.76860676 -29.72689769 37.80253562 -32.25390625 37.8359375 C-33.97007826 37.8691151 -35.68622544 37.90360517 -37.40234375 37.93945312 C-41.60272857 38.02433005 -45.80305802 38.09116471 -50.00390625 38.1484375 C-52.28754676 42.80909877 -54.56607274 47.47221108 -56.83984375 52.13769531 C-57.61447455 53.72529855 -58.39051169 55.31221638 -59.16796875 56.8984375 C-60.28363386 59.17530508 -61.39425901 61.45456975 -62.50390625 63.734375 C-62.85388672 64.44588715 -63.20386719 65.15739929 -63.56445312 65.89047241 C-65.38055138 69.35872376 -65.38055138 69.35872376 -66.00390625 73.1484375 C-65.17246094 73.18582031 -64.34101562 73.22320312 -63.484375 73.26171875 C-62.39769531 73.32746094 -61.31101562 73.39320313 -60.19140625 73.4609375 C-59.11246094 73.51894531 -58.03351563 73.57695312 -56.921875 73.63671875 C-53.78722484 74.18643652 -52.82645148 74.60294933 -51.00390625 77.1484375 C-50.06640625 80.0234375 -50.06640625 80.0234375 -50.00390625 83.1484375 C-51.37890625 85.828125 -51.37890625 85.828125 -54.00390625 88.1484375 C-57.31981272 88.69327793 -60.59163787 88.50615578 -63.94140625 88.3984375 C-70.67121569 88.22365458 -70.67121569 88.22365458 -76.4296875 91.12890625 C-78.06314868 94.1597236 -79.00390625 96.69476015 -79.00390625 100.1484375 C-77.30862793 100.17031128 -77.30862793 100.17031128 -75.57910156 100.19262695 C-71.38184126 100.25064435 -67.18511552 100.32787687 -62.98828125 100.41088867 C-61.17261436 100.44412186 -59.35684457 100.47215884 -57.54101562 100.49487305 C-54.92924183 100.52844891 -52.31840971 100.58076512 -49.70703125 100.63671875 C-48.49119354 100.64630363 -48.49119354 100.64630363 -47.25079346 100.65608215 C-43.9027248 100.74322664 -41.44149146 100.90275549 -38.4909668 102.55932617 C-36.64724606 104.52957379 -36.49056985 105.4789962 -36.56640625 108.1484375 C-36.56769531 108.8290625 -36.56898437 109.5096875 -36.5703125 110.2109375 C-37.13605423 112.7389366 -37.98739469 113.54110709 -40.00390625 115.1484375 C-42.14897156 115.54716492 -42.14897156 115.54716492 -44.65893555 115.58081055 C-45.5996843 115.60060471 -46.54043304 115.62039886 -47.50968933 115.64079285 C-48.5222731 115.64718277 -49.53485687 115.65357269 -50.578125 115.66015625 C-52.1365789 115.68708305 -52.1365789 115.68708305 -53.72651672 115.71455383 C-57.04810516 115.76877793 -60.36954891 115.80259178 -63.69140625 115.8359375 C-65.94207748 115.86909984 -68.19272959 115.90358847 -70.44335938 115.93945312 C-75.96341193 116.02451118 -81.48348294 116.09280973 -87.00390625 116.1484375 C-92.2447523 126.58237299 -97.43185805 137.04095038 -102.54101562 147.54003906 C-103.26837277 149.03327586 -103.99722316 150.52578618 -104.72753906 152.01757812 C-109.42940769 161.62228573 -113.90209018 171.27063487 -118.00390625 181.1484375 C-116.14185547 181.20451172 -116.14185547 181.20451172 -114.2421875 181.26171875 C-112.60023114 181.327397 -110.95830538 181.3938437 -109.31640625 181.4609375 C-108.49978516 181.48349609 -107.68316406 181.50605469 -106.84179688 181.52929688 C-102.21136626 181.73551038 -98.64028993 181.95747431 -95.00390625 185.1484375 C-94.4453125 187.0859375 -94.4453125 187.0859375 -94.56640625 189.1484375 C-94.58832031 189.8290625 -94.61023438 190.5096875 -94.6328125 191.2109375 C-95.00390625 193.1484375 -95.00390625 193.1484375 -97.00390625 196.1484375 C-100.24900278 197.23013634 -102.33981975 197.16001419 -105.73828125 197.0078125 C-117.25780632 196.14694 -117.25780632 196.14694 -127.89306641 199.40283203 C-130.84459799 202.8201138 -132.03638118 206.81836627 -133.00390625 211.1484375 C-133.20242187 211.8290625 -133.4009375 212.5096875 -133.60546875 213.2109375 C-135.29789104 221.4407557 -134.34064351 228.98711479 -130.00390625 236.1484375 C-126.34118446 241.59019559 -122.0322762 244.72588958 -116.00390625 247.1484375 C-112.12156285 247.80459854 -108.37006987 247.80600653 -104.44140625 247.7109375 C-102.95737305 247.72737305 -102.95737305 247.72737305 -101.44335938 247.74414062 C-93.63607233 247.6664304 -88.30123098 245.90898844 -82.31640625 240.8984375 C-75.974768 233.35702985 -72.03634813 224.34410678 -67.81640625 215.5234375 C-67.14783896 214.13461979 -66.47913638 212.74586719 -65.81030273 211.35717773 C-61.54249367 202.47339267 -57.40638013 193.53614957 -53.36938477 184.54492188 C-50.351241 177.84330697 -47.15450048 171.25255341 -43.8046875 164.7109375 C-42.63559513 162.39811268 -41.50532407 160.06509844 -40.421875 157.7109375 C-36.75994302 149.82667233 -32.61176148 143.78501945 -24.140625 140.625 C-15.99685863 138.80865723 -8.4053709 139.41439299 -1.16015625 143.6015625 C4.68444871 147.79443127 8.45116998 153.08775283 9.99609375 160.1484375 C10.99396648 167.65096211 9.2325516 173.41566021 5.99609375 180.1484375 C5.65964844 180.88191406 5.32320312 181.61539063 4.9765625 182.37109375 C3.68386424 184.71443124 2.43280308 185.1041335 -0.00390625 186.1484375 C-1.11765625 186.8909375 -1.11765625 186.8909375 -2.25390625 187.6484375 C-7.67262833 190.60410409 -12.82485718 191.16529055 -18.87890625 191.3984375 C-26.26531068 191.94868732 -31.72675206 194.72578598 -36.8515625 200.078125 C-41.86648095 206.41146181 -44.58249186 212.86723333 -44.50390625 221.0234375 C-44.49746094 221.72525146 -44.49101563 222.42706543 -44.484375 223.15014648 C-44.19145726 231.48384892 -41.12991059 236.32785414 -35.31640625 242.0234375 C-28.72793857 248.07138788 -19.16598738 248.59491586 -10.6640625 248.55249023 C-9.1936702 248.56278511 -9.1936702 248.56278511 -7.693573 248.57328796 C-4.48436604 248.59144517 -1.27565306 248.58773477 1.93359375 248.58203125 C4.18221188 248.58659785 6.43082862 248.59190484 8.67944336 248.59791565 C13.37977794 248.60682463 18.07994239 248.60444819 22.78027344 248.59448242 C28.78555581 248.58298662 34.79025069 248.60322547 40.79545593 248.63239956 C45.43505545 248.65079602 50.07451499 248.65046234 54.71414185 248.64476204 C56.92759018 248.6446093 59.14104828 248.65061448 61.35446167 248.66305351 C64.45542695 248.67802939 67.555317 248.66723814 70.65625 248.65014648 C72.00941818 248.66464844 72.00941818 248.66464844 73.3899231 248.67944336 C81.28824726 248.58886646 87.72802028 246.30659923 94.30859375 241.9609375 C100.19534106 235.80038799 103.12478546 229.19109304 103.18359375 220.7109375 C103.19777344 219.78410156 103.21195313 218.85726562 103.2265625 217.90234375 C102.98116937 214.97010377 102.21810952 212.80982361 100.99609375 210.1484375 C101.888125 210.19484375 102.78015625 210.24125 103.69921875 210.2890625 C104.8696875 210.32515625 106.04015625 210.36125 107.24609375 210.3984375 C108.40625 210.44484375 109.56640625 210.49125 110.76171875 210.5390625 C114.0617326 210.42135139 114.0617326 210.42135139 116.359375 208.31640625 C118.48139723 205.50561308 118.92436131 203.66332719 118.99609375 200.1484375 C117.262645 196.41999786 117.262645 196.41999786 113.99609375 194.1484375 C112.40347309 193.99668201 110.80544519 193.89943425 109.20703125 193.83203125 C108.26601563 193.79013672 107.325 193.74824219 106.35546875 193.70507812 C105.370625 193.66576172 104.38578125 193.62644531 103.37109375 193.5859375 C101.88222656 193.52116211 101.88222656 193.52116211 100.36328125 193.45507812 C97.90769537 193.34882681 95.45200672 193.24678786 92.99609375 193.1484375 C90.8911516 188.7946453 88.7870711 184.44043754 86.68359375 180.0859375 C86.21098114 179.10761459 86.21098114 179.10761459 85.7288208 178.10952759 C80.97724036 168.27175475 76.24609778 158.42450592 71.54956055 148.56030273 C69.08623368 143.39429935 66.57223844 138.25917615 63.99609375 133.1484375 C64.81811279 133.16938477 65.64013184 133.19033203 66.48706055 133.21191406 C70.21911339 133.29517059 73.95097069 133.34712997 77.68359375 133.3984375 C79.62395508 133.44871094 79.62395508 133.44871094 81.60351562 133.5 C83.47426758 133.51933594 83.47426758 133.51933594 85.3828125 133.5390625 C86.52967529 133.56000977 87.67653809 133.58095703 88.8581543 133.60253906 C92.69029701 133.04797706 94.3033048 131.88794339 96.99609375 129.1484375 C98.24447756 125.74314754 98.24447756 125.74314754 97.99609375 122.1484375 C95.90984036 118.72102121 94.82166265 117.42362713 90.99609375 116.1484375 C88.26449815 116.06336671 85.55917932 116.03252185 82.828125 116.05078125 C81.63590584 116.05290367 81.63590584 116.05290367 80.41960144 116.05506897 C77.8825605 116.06066372 75.345608 116.07321522 72.80859375 116.0859375 C71.0878919 116.09095318 69.36718867 116.09551597 67.64648438 116.09960938 C63.42965345 116.11063143 59.21288859 116.12789244 54.99609375 116.1484375 C54.85300781 115.37113281 54.70992187 114.59382813 54.5625 113.79296875 C54.02225371 111.27057744 53.2416266 109.39039662 51.99609375 107.1484375 C52.94871094 107.11105469 53.90132812 107.07367188 54.8828125 107.03515625 C56.13707031 106.96941406 57.39132813 106.90367187 58.68359375 106.8359375 C59.92496094 106.77792969 61.16632813 106.71992188 62.4453125 106.66015625 C66.760645 106.03825465 69.70326962 104.85261476 72.37109375 101.3359375 C73.2569909 98.23529746 72.89554554 96.23227221 71.99609375 93.1484375 C69.86037202 90.42968473 68.67532297 89.28331819 65.24707031 88.60253906 C63.70744629 88.57111816 63.70744629 88.57111816 62.13671875 88.5390625 C61.13157227 88.50844727 60.12642578 88.47783203 59.09082031 88.44628906 C57.82206055 88.43049805 56.55330078 88.41470703 55.24609375 88.3984375 C49.18234375 88.2746875 49.18234375 88.2746875 42.99609375 88.1484375 C37.71609375 77.2584375 32.43609375 66.3684375 26.99609375 55.1484375 C31.36601562 55.21804687 31.36601562 55.21804687 35.82421875 55.2890625 C38.64728046 55.3202617 41.47032292 55.34454741 44.29345703 55.36816406 C46.25480756 55.38827382 48.21609819 55.41556568 50.17724609 55.45019531 C52.9972207 55.49874171 55.8164024 55.52141236 58.63671875 55.5390625 C59.51289856 55.55970764 60.38907837 55.58035278 61.29180908 55.60162354 C66.2487016 55.63335654 66.2487016 55.63335654 70.51855469 53.30761719 C72.46748518 50.45957665 72.99609375 48.60671152 72.99609375 45.1484375 C71.22569926 42.40127363 69.93317531 40.61697828 66.99609375 39.1484375 C65.454672 39.03020779 63.90848278 38.97143939 62.36279297 38.94311523 C61.40194794 38.92317001 60.44110291 38.90322479 59.45114136 38.88267517 C58.41152252 38.86596268 57.37190369 38.84925018 56.30078125 38.83203125 C55.23820099 38.81125015 54.17562073 38.79046906 53.08084106 38.76905823 C49.67765937 38.70353489 46.27439886 38.64466477 42.87109375 38.5859375 C40.56770009 38.54275493 38.26431449 38.49914073 35.9609375 38.45507812 C30.30607354 38.34785068 24.65113072 38.24608948 18.99609375 38.1484375 C18.51329956 37.07499084 18.51329956 37.07499084 18.02075195 35.9798584 C16.69719164 33.04843511 15.34619789 30.130226 13.99609375 27.2109375 C13.53847656 26.18935547 13.08085937 25.16777344 12.609375 24.11523438 C8.48707241 15.27769526 3.17663366 6.33342825 -6.3828125 2.73828125 C-19.63786361 -0.2445991 -29.52177071 2.75894344 -38.00390625 13.1484375 Z " fill="#F8FDFD" transform="translate(160.00390625,101.8515625)"/>
</svg>
