<?xml version="1.0" encoding="UTF-8"?>
<!DOCTYPE svg PUBLIC "-//W3C//DTD SVG 1.1//EN" "http://www.w3.org/Graphics/SVG/1.1/DTD/svg11.dtd">
<svg xmlns="http://www.w3.org/2000/svg" version="1.1" width="1299px" height="510px" style="shape-rendering:geometricPrecision; text-rendering:geometricPrecision; image-rendering:optimizeQuality; fill-rule:evenodd; clip-rule:evenodd" xmlns:xlink="http://www.w3.org/1999/xlink">
<g><path style="opacity:1" fill="#424153" d="M 896.5,37.5 C 896.427,39.0269 897.094,40.0269 898.5,40.5C 899.5,40.8333 900.167,41.5 900.5,42.5C 900.427,44.0269 901.094,45.0269 902.5,45.5C 902.427,47.0269 903.094,48.0269 904.5,48.5C 904.427,50.0269 905.094,51.0269 906.5,51.5C 913.668,62.6749 917.668,75.0082 918.5,88.5C 918.5,90.5 918.5,92.5 918.5,94.5C 902.26,95.128 886.26,94.4613 870.5,92.5C 869.427,85.5403 867.427,78.8736 864.5,72.5C 864.715,70.8212 864.048,69.8212 862.5,69.5C 859.543,65.2079 856.21,61.2079 852.5,57.5C 852.027,56.0937 851.027,55.427 849.5,55.5C 849.027,54.0937 848.027,53.427 846.5,53.5C 823.839,44.0878 801.506,44.9211 779.5,56C 762.167,71.6667 762.167,87.3333 779.5,103C 794.432,112.299 810.432,119.132 827.5,123.5C 827.5,124.167 827.5,124.833 827.5,125.5C 822.439,130.229 818.106,135.562 814.5,141.5C 811.864,144.31 809.364,147.31 807,150.5C 805.549,152.464 803.716,153.797 801.5,154.5C 799.035,154.233 796.701,153.566 794.5,152.5C 792.898,150.926 790.898,150.259 788.5,150.5C 779.593,147.754 770.927,144.421 762.5,140.5C 762.027,139.094 761.027,138.427 759.5,138.5C 757.181,138.008 755.181,137.008 753.5,135.5C 753.027,134.094 752.027,133.427 750.5,133.5C 750.027,132.094 749.027,131.427 747.5,131.5C 747.027,130.094 746.027,129.427 744.5,129.5C 743.738,127.738 742.404,126.738 740.5,126.5C 720.57,109.709 713.903,88.7094 720.5,63.5C 721.924,61.4855 722.59,59.1522 722.5,56.5C 722.796,54.597 723.463,52.9303 724.5,51.5C 725.906,51.0269 726.573,50.0269 726.5,48.5C 726.328,47.5084 726.662,46.8417 727.5,46.5C 729.262,45.7377 730.262,44.4044 730.5,42.5C 731.906,42.0269 732.573,41.0269 732.5,39.5C 735.543,35.4564 739.209,32.1231 743.5,29.5C 745.027,29.573 746.027,28.9063 746.5,27.5C 748.027,27.573 749.027,26.9063 749.5,25.5C 749.842,24.6618 750.508,24.3284 751.5,24.5C 753.027,24.573 754.027,23.9063 754.5,22.5C 758.203,20.3213 762.203,18.6546 766.5,17.5C 769.152,17.5905 771.485,16.9238 773.5,15.5C 776.152,15.5905 778.485,14.9238 780.5,13.5C 804.08,8.35978 827.746,8.19311 851.5,13C 869.201,16.5117 884.201,24.6783 896.5,37.5 Z"/></g>
<g><path style="opacity:0.929" fill="#8c8b95" d="M 780.5,13.5 C 778.485,14.9238 776.152,15.5905 773.5,15.5C 775.515,14.0762 777.848,13.4095 780.5,13.5 Z"/></g>
<g><path style="opacity:0.133" fill="#e4e4e7" d="M 220.5,16.5 C 201.757,16.1802 183.09,16.5135 164.5,17.5C 173.475,16.1683 182.809,15.5016 192.5,15.5C 202.006,15.5002 211.339,15.8335 220.5,16.5 Z"/></g>
<g><path style="opacity:0.133" fill="#e4e4e7" d="M 1059.5,16.5 C 1041.99,16.17 1024.66,16.5033 1007.5,17.5C 1006.96,17.44 1006.62,17.1067 1006.5,16.5C 1024.33,15.1727 1042,15.1727 1059.5,16.5 Z"/></g>
<g><path style="opacity:1" fill="#424152" d="M 220.5,16.5 C 254.108,100.717 287.441,185.05 320.5,269.5C 320.286,271.144 320.62,272.644 321.5,274C 305.17,274.5 288.837,274.667 272.5,274.5C 262.11,249.664 252.11,224.664 242.5,199.5C 225.837,198.833 209.003,198.5 192,198.5C 174.82,198.5 157.986,199.167 141.5,200.5C 132.561,224.983 123.228,249.316 113.5,273.5C 96.7355,274.824 80.0688,274.824 63.5,273.5C 96.7762,188.003 130.443,102.67 164.5,17.5C 183.09,16.5135 201.757,16.1802 220.5,16.5 Z M 191.5,73.5 C 192.167,73.5 192.833,73.5 193.5,73.5C 204.218,102.604 215.218,131.604 226.5,160.5C 215.353,161.832 203.853,162.499 192,162.5C 180.328,162.5 168.828,162.167 157.5,161.5C 169.404,132.466 180.737,103.132 191.5,73.5 Z"/></g>
<g><path style="opacity:0.235" fill="#d6d6da" d="M 548.5,16.5 C 510.167,16.5 471.833,16.5 433.5,16.5C 433.5,102.5 433.5,188.5 433.5,274.5C 433.5,274.833 433.5,275.167 433.5,275.5C 432.501,189.002 432.167,102.335 432.5,15.5C 471.337,15.1681 510.004,15.5015 548.5,16.5 Z"/></g>
<g><path style="opacity:1" fill="#403f51" d="M 548.5,16.5 C 567.652,16.2823 584.985,21.6157 600.5,32.5C 601.035,34.4456 602.368,35.4456 604.5,35.5C 607.784,37.117 610.451,39.4503 612.5,42.5C 613.08,44.7488 614.413,46.4154 616.5,47.5C 623.755,54.6702 628.421,63.3369 630.5,73.5C 630.41,76.1522 631.076,78.4855 632.5,80.5C 637.146,118.693 622.146,146.193 587.5,163C 577.32,167.603 566.653,170.103 555.5,170.5C 530.5,170.5 505.5,170.5 480.5,170.5C 480.5,205.167 480.5,239.833 480.5,274.5C 464.833,274.5 449.167,274.5 433.5,274.5C 433.5,188.5 433.5,102.5 433.5,16.5C 471.833,16.5 510.167,16.5 548.5,16.5 Z M 481.5,53.5 C 505.555,52.9809 529.555,53.6476 553.5,55.5C 554.93,56.5375 556.597,57.2041 558.5,57.5C 561.829,58.8307 565.162,60.164 568.5,61.5C 568.973,62.9063 569.973,63.573 571.5,63.5C 571.833,64.5 572.5,65.1667 573.5,65.5C 574.167,66.8333 575.167,67.8333 576.5,68.5C 585.02,79.424 587.687,91.7574 584.5,105.5C 583.463,106.93 582.796,108.597 582.5,110.5C 581.89,111.391 581.557,112.391 581.5,113.5C 580.094,113.973 579.427,114.973 579.5,116.5C 578.094,116.973 577.427,117.973 577.5,119.5C 573.419,122.923 569.086,125.923 564.5,128.5C 561.603,129.129 558.936,130.129 556.5,131.5C 551.5,132.167 546.5,132.833 541.5,133.5C 521.5,133.5 501.5,133.5 481.5,133.5C 481.5,106.833 481.5,80.1667 481.5,53.5 Z"/></g>
<g><path style="opacity:0.922" fill="#898994" d="M 773.5,15.5 C 771.485,16.9238 769.152,17.5905 766.5,17.5C 768.515,16.0762 770.848,15.4095 773.5,15.5 Z"/></g>
<g><path style="opacity:1" fill="#424153" d="M 1151.5,148.5 C 1151.43,150.027 1152.09,151.027 1153.5,151.5C 1155.55,153.55 1157.21,155.883 1158.5,158.5C 1158.43,160.027 1159.09,161.027 1160.5,161.5C 1160.74,163.404 1161.74,164.738 1163.5,165.5C 1163.43,167.027 1164.09,168.027 1165.5,168.5C 1167.55,170.55 1169.21,172.883 1170.5,175.5C 1170.43,177.027 1171.09,178.027 1172.5,178.5C 1172.74,180.404 1173.74,181.738 1175.5,182.5C 1175.43,184.027 1176.09,185.027 1177.5,185.5C 1179.55,187.55 1181.21,189.883 1182.5,192.5C 1182.43,194.027 1183.09,195.027 1184.5,195.5C 1186.55,197.55 1188.21,199.883 1189.5,202.5C 1189.43,204.027 1190.09,205.027 1191.5,205.5C 1193.26,206.262 1194.26,207.596 1194.5,209.5C 1194.43,211.027 1195.09,212.027 1196.5,212.5C 1198.55,214.55 1200.21,216.883 1201.5,219.5C 1201.43,221.027 1202.09,222.027 1203.5,222.5C 1205.26,223.262 1206.26,224.596 1206.5,226.5C 1206.43,228.027 1207.09,229.027 1208.5,229.5C 1210.55,231.55 1212.21,233.883 1213.5,236.5C 1213.43,238.027 1214.09,239.027 1215.5,239.5C 1217.26,240.262 1218.26,241.596 1218.5,243.5C 1218.43,245.027 1219.09,246.027 1220.5,246.5C 1222.55,248.55 1224.21,250.883 1225.5,253.5C 1225.43,255.027 1226.09,256.027 1227.5,256.5C 1229.26,257.262 1230.26,258.596 1230.5,260.5C 1230.43,262.027 1231.09,263.027 1232.5,263.5C 1234.55,265.55 1236.21,267.883 1237.5,270.5C 1237.43,272.027 1238.09,273.027 1239.5,273.5C 1221.63,274.813 1203.63,274.813 1185.5,273.5C 1176.14,260.799 1167.14,247.799 1158.5,234.5C 1158.45,232.368 1157.45,231.035 1155.5,230.5C 1153.81,228.795 1152.47,226.795 1151.5,224.5C 1151.45,222.368 1150.45,221.035 1148.5,220.5C 1146.81,218.795 1145.47,216.795 1144.5,214.5C 1144.45,212.368 1143.45,211.035 1141.5,210.5C 1139.81,208.795 1138.47,206.795 1137.5,204.5C 1137.45,202.368 1136.45,201.035 1134.5,200.5C 1132.81,198.795 1131.47,196.795 1130.5,194.5C 1130.45,192.368 1129.45,191.035 1127.5,190.5C 1126.22,188.877 1124.89,187.21 1123.5,185.5C 1102.26,214.983 1081.26,244.649 1060.5,274.5C 1042.83,274.667 1025.16,274.5 1007.5,274C 1008.82,273.184 1009.49,272.017 1009.5,270.5C 1009.43,268.973 1010.09,267.973 1011.5,267.5C 1012.91,267.027 1013.57,266.027 1013.5,264.5C 1014.79,261.883 1016.45,259.55 1018.5,257.5C 1019.91,257.027 1020.57,256.027 1020.5,254.5C 1021.91,254.027 1022.57,253.027 1022.5,251.5C 1024.26,250.738 1025.26,249.404 1025.5,247.5C 1026.91,247.027 1027.57,246.027 1027.5,244.5C 1028.91,244.027 1029.57,243.027 1029.5,241.5C 1030.79,238.883 1032.45,236.55 1034.5,234.5C 1035.91,234.027 1036.57,233.027 1036.5,231.5C 1037.91,231.027 1038.57,230.027 1038.5,228.5C 1040.26,227.738 1041.26,226.404 1041.5,224.5C 1042.91,224.027 1043.57,223.027 1043.5,221.5C 1044.91,221.027 1045.57,220.027 1045.5,218.5C 1046.79,215.883 1048.45,213.55 1050.5,211.5C 1051.91,211.027 1052.57,210.027 1052.5,208.5C 1053.91,208.027 1054.57,207.027 1054.5,205.5C 1056.26,204.738 1057.26,203.404 1057.5,201.5C 1058.91,201.027 1059.57,200.027 1059.5,198.5C 1060.91,198.027 1061.57,197.027 1061.5,195.5C 1062.79,192.883 1064.45,190.55 1066.5,188.5C 1067.91,188.027 1068.57,187.027 1068.5,185.5C 1069.91,185.027 1070.57,184.027 1070.5,182.5C 1072.26,181.738 1073.26,180.404 1073.5,178.5C 1074.91,178.027 1075.57,177.027 1075.5,175.5C 1076.91,175.027 1077.57,174.027 1077.5,172.5C 1078.79,169.883 1080.45,167.55 1082.5,165.5C 1083.91,165.027 1084.57,164.027 1084.5,162.5C 1085.79,159.883 1087.45,157.55 1089.5,155.5C 1090.91,155.027 1091.57,154.027 1091.5,152.5C 1092.91,152.027 1093.57,151.027 1093.5,149.5C 1094.91,149.027 1095.57,148.027 1095.5,146.5C 1095.65,145.448 1095.48,144.448 1095,143.5C 1089.95,136.62 1085.11,129.62 1080.5,122.5C 1080.45,120.368 1079.45,119.035 1077.5,118.5C 1075.81,116.795 1074.47,114.795 1073.5,112.5C 1073.45,110.368 1072.45,109.035 1070.5,108.5C 1063.6,99.0446 1056.93,89.3779 1050.5,79.5C 1050.45,77.368 1049.45,76.0347 1047.5,75.5C 1045.81,73.7952 1044.47,71.7952 1043.5,69.5C 1043.45,67.368 1042.45,66.0347 1040.5,65.5C 1033.6,56.0446 1026.93,46.3779 1020.5,36.5C 1020.45,34.368 1019.45,33.0347 1017.5,32.5C 1015.81,30.7952 1014.47,28.7952 1013.5,26.5C 1013.45,24.368 1012.45,23.0347 1010.5,22.5C 1009.11,21.1007 1008.11,19.4341 1007.5,17.5C 1024.66,16.5033 1041.99,16.17 1059.5,16.5C 1061.55,18.5496 1063.21,20.883 1064.5,23.5C 1064.43,25.0269 1065.09,26.0269 1066.5,26.5C 1068.55,28.5496 1070.21,30.883 1071.5,33.5C 1071.43,35.0269 1072.09,36.0269 1073.5,36.5C 1073.43,38.0269 1074.09,39.0269 1075.5,39.5C 1075.74,41.4044 1076.74,42.7377 1078.5,43.5C 1078.43,45.0269 1079.09,46.0269 1080.5,46.5C 1080.43,48.0269 1081.09,49.0269 1082.5,49.5C 1084.55,51.5496 1086.21,53.883 1087.5,56.5C 1087.43,58.0269 1088.09,59.0269 1089.5,59.5C 1091.55,61.5496 1093.21,63.883 1094.5,66.5C 1094.43,68.0269 1095.09,69.0269 1096.5,69.5C 1098.55,71.5496 1100.21,73.883 1101.5,76.5C 1101.43,78.0269 1102.09,79.0269 1103.5,79.5C 1103.43,81.0269 1104.09,82.0269 1105.5,82.5C 1105.74,84.4044 1106.74,85.7377 1108.5,86.5C 1108.43,88.0269 1109.09,89.0269 1110.5,89.5C 1110.43,91.0269 1111.09,92.0269 1112.5,92.5C 1114.55,94.5496 1116.21,96.883 1117.5,99.5C 1117.43,101.027 1118.09,102.027 1119.5,102.5C 1120.83,103.833 1122.17,105.167 1123.5,106.5C 1125.26,105.738 1126.26,104.404 1126.5,102.5C 1127.91,102.027 1128.57,101.027 1128.5,99.5C 1129.79,96.883 1131.45,94.5496 1133.5,92.5C 1134.91,92.0269 1135.57,91.0269 1135.5,89.5C 1137.26,88.7377 1138.26,87.4044 1138.5,85.5C 1139.91,85.0269 1140.57,84.0269 1140.5,82.5C 1141.79,79.883 1143.45,77.5496 1145.5,75.5C 1146.91,75.0269 1147.57,74.0269 1147.5,72.5C 1148.79,69.883 1150.45,67.5496 1152.5,65.5C 1153.91,65.0269 1154.57,64.0269 1154.5,62.5C 1156.26,61.7377 1157.26,60.4044 1157.5,58.5C 1158.91,58.0269 1159.57,57.0269 1159.5,55.5C 1160.79,52.883 1162.45,50.5496 1164.5,48.5C 1165.91,48.0269 1166.57,47.0269 1166.5,45.5C 1167.79,42.883 1169.45,40.5496 1171.5,38.5C 1172.91,38.0269 1173.57,37.0269 1173.5,35.5C 1175.26,34.7377 1176.26,33.4044 1176.5,31.5C 1177.91,31.0269 1178.57,30.0269 1178.5,28.5C 1179.79,25.883 1181.45,23.5496 1183.5,21.5C 1184.91,21.0269 1185.57,20.0269 1185.5,18.5C 1185.41,17.5041 1185.75,16.6708 1186.5,16C 1204.83,15.3333 1223.17,15.3333 1241.5,16C 1210.97,59.0282 1180.64,102.195 1150.5,145.5C 1151.13,146.417 1151.46,147.417 1151.5,148.5 Z"/></g>
<g><path style="opacity:0.58" fill="#a3a2aa" d="M 1185.5,18.5 C 1185.57,20.0269 1184.91,21.0269 1183.5,21.5C 1183.43,19.9731 1184.09,18.9731 1185.5,18.5 Z"/></g>
<g><path style="opacity:0.953" fill="#a2a2aa" d="M 1010.5,22.5 C 1012.45,23.0347 1013.45,24.368 1013.5,26.5C 1012.03,25.5637 1011.03,24.2303 1010.5,22.5 Z"/></g>
<g><path style="opacity:0.788" fill="#a2a1aa" d="M 754.5,22.5 C 754.027,23.9063 753.027,24.573 751.5,24.5C 751.973,23.0937 752.973,22.427 754.5,22.5 Z"/></g>
<g><path style="opacity:0.565" fill="#a3a2ab" d="M 1064.5,23.5 C 1065.91,23.9731 1066.57,24.9731 1066.5,26.5C 1065.09,26.0269 1064.43,25.0269 1064.5,23.5 Z"/></g>
<g><path style="opacity:0.804" fill="#9b9aa3" d="M 749.5,25.5 C 749.027,26.9063 748.027,27.573 746.5,27.5C 746.973,26.0937 747.973,25.427 749.5,25.5 Z"/></g>
<g><path style="opacity:0.808" fill="#9998a2" d="M 746.5,27.5 C 746.027,28.9063 745.027,29.573 743.5,29.5C 743.973,28.0937 744.973,27.427 746.5,27.5 Z"/></g>
<g><path style="opacity:0.62" fill="#9c9ca6" d="M 1178.5,28.5 C 1178.57,30.0269 1177.91,31.0269 1176.5,31.5C 1176.43,29.9731 1177.09,28.9731 1178.5,28.5 Z"/></g>
<g><path style="opacity:0.965" fill="#a09fa8" d="M 1017.5,32.5 C 1019.45,33.0347 1020.45,34.368 1020.5,36.5C 1019.03,35.5637 1018.03,34.2303 1017.5,32.5 Z"/></g>
<g><path style="opacity:0.973" fill="#a09fa9" d="M 600.5,32.5 C 602.23,33.0256 603.564,34.0256 604.5,35.5C 602.368,35.4456 601.035,34.4456 600.5,32.5 Z"/></g>
<g><path style="opacity:0.71" fill="#9b9aa4" d="M 1176.5,31.5 C 1176.26,33.4044 1175.26,34.7377 1173.5,35.5C 1173.74,33.5956 1174.74,32.2623 1176.5,31.5 Z"/></g>
<g><path style="opacity:0.537" fill="#a6a6af" d="M 1071.5,33.5 C 1072.91,33.9731 1073.57,34.9731 1073.5,36.5C 1072.09,36.0269 1071.43,35.0269 1071.5,33.5 Z"/></g>
<g><path style="opacity:0.545" fill="#a7a7af" d="M 1173.5,35.5 C 1173.57,37.0269 1172.91,38.0269 1171.5,38.5C 1171.43,36.9731 1172.09,35.9731 1173.5,35.5 Z"/></g>
<g><path style="opacity:0.655" fill="#b6b6bd" d="M 896.5,37.5 C 897.906,37.9731 898.573,38.9731 898.5,40.5C 897.094,40.0269 896.427,39.0269 896.5,37.5 Z"/></g>
<g><path style="opacity:0.627" fill="#9998a2" d="M 1073.5,36.5 C 1074.91,36.9731 1075.57,37.9731 1075.5,39.5C 1074.09,39.0269 1073.43,38.0269 1073.5,36.5 Z"/></g>
<g><path style="opacity:0.769" fill="#a6a6ae" d="M 732.5,39.5 C 732.573,41.0269 731.906,42.0269 730.5,42.5C 730.427,40.9731 731.094,39.9731 732.5,39.5 Z"/></g>
<g><path style="opacity:0.729" fill="#9999a3" d="M 1075.5,39.5 C 1077.26,40.2623 1078.26,41.5956 1078.5,43.5C 1076.74,42.7377 1075.74,41.4044 1075.5,39.5 Z"/></g>
<g><path style="opacity:0.765" fill="#b2b2b9" d="M 612.5,42.5 C 614.587,43.5846 615.92,45.2512 616.5,47.5C 614.413,46.4154 613.08,44.7488 612.5,42.5 Z"/></g>
<g><path style="opacity:0.725" fill="#9998a2" d="M 730.5,42.5 C 730.262,44.4044 729.262,45.7377 727.5,46.5C 727.738,44.5956 728.738,43.2623 730.5,42.5 Z"/></g>
<g><path style="opacity:0.478" fill="#b3b3b9" d="M 900.5,42.5 C 901.906,42.9731 902.573,43.9731 902.5,45.5C 901.094,45.0269 900.427,44.0269 900.5,42.5 Z"/></g>
<g><path style="opacity:0.51" fill="#abaab2" d="M 1078.5,43.5 C 1079.91,43.9731 1080.57,44.9731 1080.5,46.5C 1079.09,46.0269 1078.43,45.0269 1078.5,43.5 Z"/></g>
<g><path style="opacity:0.592" fill="#9d9da5" d="M 902.5,45.5 C 903.906,45.9731 904.573,46.9731 904.5,48.5C 903.094,48.0269 902.427,47.0269 902.5,45.5 Z"/></g>
<g><path style="opacity:0.584" fill="#a2a1aa" d="M 1166.5,45.5 C 1166.57,47.0269 1165.91,48.0269 1164.5,48.5C 1164.43,46.9731 1165.09,45.9731 1166.5,45.5 Z"/></g>
<g><path style="opacity:0.604" fill="#9d9ca5" d="M 1080.5,46.5 C 1081.91,46.9731 1082.57,47.9731 1082.5,49.5C 1081.09,49.0269 1080.43,48.0269 1080.5,46.5 Z"/></g>
<g><path style="opacity:0.31" fill="#bbbbc1" d="M 726.5,48.5 C 726.573,50.0269 725.906,51.0269 724.5,51.5C 724.427,49.9731 725.094,48.9731 726.5,48.5 Z"/></g>
<g><path style="opacity:0.553" fill="#a1a1a9" d="M 904.5,48.5 C 905.906,48.9731 906.573,49.9731 906.5,51.5C 905.094,51.0269 904.427,50.0269 904.5,48.5 Z"/></g>
<g><path style="opacity:0.42" fill="#b2b1b9" d="M 846.5,53.5 C 848.027,53.427 849.027,54.0937 849.5,55.5C 847.973,55.573 846.973,54.9063 846.5,53.5 Z"/></g>
<g><path style="opacity:0.894" fill="#9b9ba5" d="M 553.5,55.5 C 555.698,55.1201 557.365,55.7868 558.5,57.5C 556.597,57.2041 554.93,56.5375 553.5,55.5 Z"/></g>
<g><path style="opacity:0.533" fill="#aaa9b2" d="M 849.5,55.5 C 851.027,55.427 852.027,56.0937 852.5,57.5C 850.973,57.573 849.973,56.9063 849.5,55.5 Z"/></g>
<g><path style="opacity:0.624" fill="#9c9ca5" d="M 1159.5,55.5 C 1159.57,57.0269 1158.91,58.0269 1157.5,58.5C 1157.43,56.9731 1158.09,55.9731 1159.5,55.5 Z"/></g>
<g><path style="opacity:0.576" fill="#a1a1aa" d="M 1087.5,56.5 C 1088.91,56.9731 1089.57,57.9731 1089.5,59.5C 1088.09,59.0269 1087.43,58.0269 1087.5,56.5 Z"/></g>
<g><path style="opacity:0.965" fill="#8c8c96" d="M 722.5,56.5 C 722.59,59.1522 721.924,61.4855 720.5,63.5C 720.41,60.8478 721.076,58.5145 722.5,56.5 Z"/></g>
<g><path style="opacity:0.714" fill="#9a9aa3" d="M 1157.5,58.5 C 1157.26,60.4044 1156.26,61.7377 1154.5,62.5C 1154.74,60.5956 1155.74,59.2623 1157.5,58.5 Z"/></g>
<g><path style="opacity:0.569" fill="#a09fa9" d="M 568.5,61.5 C 570.027,61.427 571.027,62.0937 571.5,63.5C 569.973,63.573 568.973,62.9063 568.5,61.5 Z"/></g>
<g><path style="opacity:0.553" fill="#a6a6ae" d="M 1154.5,62.5 C 1154.57,64.0269 1153.91,65.0269 1152.5,65.5C 1152.43,63.9731 1153.09,62.9731 1154.5,62.5 Z"/></g>
<g><path style="opacity:0.792" fill="#adacb4" d="M 573.5,65.5 C 575.5,65.5 576.5,66.5 576.5,68.5C 575.167,67.8333 574.167,66.8333 573.5,65.5 Z"/></g>
<g><path style="opacity:0.953" fill="#a2a1aa" d="M 1040.5,65.5 C 1042.45,66.0347 1043.45,67.368 1043.5,69.5C 1042.03,68.5637 1041.03,67.2303 1040.5,65.5 Z"/></g>
<g><path style="opacity:0.549" fill="#a5a5ad" d="M 1094.5,66.5 C 1095.91,66.9731 1096.57,67.9731 1096.5,69.5C 1095.09,69.0269 1094.43,68.0269 1094.5,66.5 Z"/></g>
<g><path style="opacity:0.961" fill="#9998a2" d="M 862.5,69.5 C 864.048,69.8212 864.715,70.8212 864.5,72.5C 863.599,71.7095 862.932,70.7095 862.5,69.5 Z"/></g>
<g><path style="opacity:0.129" fill="#cecdd2" d="M 193.5,73.5 C 192.833,73.5 192.167,73.5 191.5,73.5C 192.167,70.8333 192.833,70.8333 193.5,73.5 Z"/></g>
<g><path style="opacity:0.592" fill="#a0a0a9" d="M 1147.5,72.5 C 1147.57,74.0269 1146.91,75.0269 1145.5,75.5C 1145.43,73.9731 1146.09,72.9731 1147.5,72.5 Z"/></g>
<g><path style="opacity:0.965" fill="#a09fa8" d="M 1047.5,75.5 C 1049.45,76.0347 1050.45,77.368 1050.5,79.5C 1049.03,78.5637 1048.03,77.2303 1047.5,75.5 Z"/></g>
<g><path style="opacity:0.522" fill="#a9a8b1" d="M 1101.5,76.5 C 1102.91,76.9731 1103.57,77.9731 1103.5,79.5C 1102.09,79.0269 1101.43,78.0269 1101.5,76.5 Z"/></g>
<g><path style="opacity:0.659" fill="#9998a2" d="M 630.5,73.5 C 631.924,75.5145 632.59,77.8478 632.5,80.5C 631.076,78.4855 630.41,76.1522 630.5,73.5 Z"/></g>
<g><path style="opacity:0.616" fill="#9c9ba4" d="M 1103.5,79.5 C 1104.91,79.9731 1105.57,80.9731 1105.5,82.5C 1104.09,82.0269 1103.43,81.0269 1103.5,79.5 Z"/></g>
<g><path style="opacity:0.722" fill="#9b9ba5" d="M 1105.5,82.5 C 1107.26,83.2623 1108.26,84.5956 1108.5,86.5C 1106.74,85.7377 1105.74,84.4044 1105.5,82.5 Z"/></g>
<g><path style="opacity:0.631" fill="#9b9aa5" d="M 1140.5,82.5 C 1140.57,84.0269 1139.91,85.0269 1138.5,85.5C 1138.43,83.9731 1139.09,82.9731 1140.5,82.5 Z"/></g>
<g><path style="opacity:0.714" fill="#9a99a3" d="M 1138.5,85.5 C 1138.26,87.4044 1137.26,88.7377 1135.5,89.5C 1135.74,87.5956 1136.74,86.2623 1138.5,85.5 Z"/></g>
<g><path style="opacity:0.498" fill="#acacb4" d="M 1108.5,86.5 C 1109.91,86.9731 1110.57,87.9731 1110.5,89.5C 1109.09,89.0269 1108.43,88.0269 1108.5,86.5 Z"/></g>
<g><path style="opacity:0.588" fill="#9f9ea7" d="M 1110.5,89.5 C 1111.91,89.9731 1112.57,90.9731 1112.5,92.5C 1111.09,92.0269 1110.43,91.0269 1110.5,89.5 Z"/></g>
<g><path style="opacity:0.557" fill="#a6a5ae" d="M 1135.5,89.5 C 1135.57,91.0269 1134.91,92.0269 1133.5,92.5C 1133.43,90.9731 1134.09,89.9731 1135.5,89.5 Z"/></g>
<g><path style="opacity:0.133" fill="#dfdfe3" d="M 918.5,88.5 C 919.468,90.6074 919.802,92.9407 919.5,95.5C 903.167,95.5 886.833,95.5 870.5,95.5C 870.5,94.5 870.5,93.5 870.5,92.5C 886.26,94.4613 902.26,95.128 918.5,94.5C 918.5,92.5 918.5,90.5 918.5,88.5 Z"/></g>
<g><path style="opacity:1" fill="#1bb1ca" d="M 852.5,100.5 C 850.771,124.828 849.771,149.495 849.5,174.5C 847.542,177.792 845.209,180.792 842.5,183.5C 842.269,160.824 842.602,138.157 843.5,115.5C 843.483,112.087 842.816,109.087 841.5,106.5C 843.436,103.061 845.936,100.061 849,97.5C 850.642,97.9778 851.809,98.9778 852.5,100.5 Z"/></g>
<g><path style="opacity:1" fill="#13b2c4" d="M 852.5,100.5 C 860.719,105.778 868.386,111.778 875.5,118.5C 875.175,126.019 875.508,133.352 876.5,140.5C 868.714,150.791 860.714,160.958 852.5,171C 853.056,171.383 853.389,171.883 853.5,172.5C 851.938,172.733 850.605,173.4 849.5,174.5C 849.771,149.495 850.771,124.828 852.5,100.5 Z"/></g>
<g><path style="opacity:0.561" fill="#a3a3ab" d="M 1117.5,99.5 C 1118.91,99.9731 1119.57,100.973 1119.5,102.5C 1118.09,102.027 1117.43,101.027 1117.5,99.5 Z"/></g>
<g><path style="opacity:0.596" fill="#a09fa9" d="M 1128.5,99.5 C 1128.57,101.027 1127.91,102.027 1126.5,102.5C 1126.43,100.973 1127.09,99.9731 1128.5,99.5 Z"/></g>
<g><path style="opacity:0.698" fill="#9e9ea7" d="M 1126.5,102.5 C 1126.26,104.404 1125.26,105.738 1123.5,106.5C 1123.74,104.596 1124.74,103.262 1126.5,102.5 Z"/></g>
<g><path style="opacity:1" fill="#1aaecd" d="M 841.5,106.5 C 842.816,109.087 843.483,112.087 843.5,115.5C 842.602,138.157 842.269,160.824 842.5,183.5C 837.85,190.145 832.85,196.478 827.5,202.5C 827.5,176.833 827.5,151.167 827.5,125.5C 827.5,124.833 827.5,124.167 827.5,123.5C 832.197,117.809 836.863,112.142 841.5,106.5 Z"/></g>
<g><path style="opacity:0.898" fill="#9d9ca6" d="M 584.5,105.5 C 584.88,107.698 584.213,109.365 582.5,110.5C 582.796,108.597 583.463,106.93 584.5,105.5 Z"/></g>
<g><path style="opacity:0.953" fill="#a2a1aa" d="M 1070.5,108.5 C 1072.45,109.035 1073.45,110.368 1073.5,112.5C 1072.03,111.564 1071.03,110.23 1070.5,108.5 Z"/></g>
<g><path style="opacity:0.369" fill="#b8b8bf" d="M 581.5,113.5 C 581.573,115.027 580.906,116.027 579.5,116.5C 579.427,114.973 580.094,113.973 581.5,113.5 Z"/></g>
<g><path style="opacity:0.804" fill="#a1a0a8" d="M 579.5,116.5 C 579.573,118.027 578.906,119.027 577.5,119.5C 577.427,117.973 578.094,116.973 579.5,116.5 Z"/></g>
<g><path style="opacity:0.965" fill="#9f9ea7" d="M 1077.5,118.5 C 1079.45,119.035 1080.45,120.368 1080.5,122.5C 1079.03,121.564 1078.03,120.23 1077.5,118.5 Z"/></g>
<g><path style="opacity:1" fill="#3fbec6" d="M 875.5,118.5 C 879.625,121.453 883.625,124.619 887.5,128C 883.953,132.041 880.62,136.208 877.5,140.5C 877.167,140.5 876.833,140.5 876.5,140.5C 875.508,133.352 875.175,126.019 875.5,118.5 Z"/></g>
<g><path style="opacity:0.835" fill="#a5a5ad" d="M 740.5,126.5 C 742.404,126.738 743.738,127.738 744.5,129.5C 742.596,129.262 741.262,128.262 740.5,126.5 Z"/></g>
<g><path style="opacity:1" fill="#11aad0" d="M 827.5,125.5 C 827.5,151.167 827.5,176.833 827.5,202.5C 825.87,205.964 823.37,208.631 820,210.5C 816.502,208.176 813.336,205.51 810.5,202.5C 811.496,202.414 812.329,202.748 813,203.5C 813.333,202.167 813.667,200.833 814,199.5C 814.5,180.17 814.667,160.836 814.5,141.5C 818.106,135.562 822.439,130.229 827.5,125.5 Z"/></g>
<g><path style="opacity:0.973" fill="#7d7d8a" d="M 564.5,128.5 C 562.383,130.655 559.716,131.655 556.5,131.5C 558.936,130.129 561.603,129.129 564.5,128.5 Z"/></g>
<g><path style="opacity:0.533" fill="#a7a6af" d="M 744.5,129.5 C 746.027,129.427 747.027,130.094 747.5,131.5C 745.973,131.573 744.973,130.906 744.5,129.5 Z"/></g>
<g><path style="opacity:0.624" fill="#9898a2" d="M 747.5,131.5 C 749.027,131.427 750.027,132.094 750.5,133.5C 748.973,133.573 747.973,132.906 747.5,131.5 Z"/></g>
<g><path style="opacity:0.4" fill="#c3c3c8" d="M 481.5,53.5 C 481.5,80.1667 481.5,106.833 481.5,133.5C 501.5,133.5 521.5,133.5 541.5,133.5C 521.34,134.497 501.007,134.83 480.5,134.5C 480.169,107.328 480.502,80.3282 481.5,53.5 Z"/></g>
<g><path style="opacity:0.435" fill="#b1b0b8" d="M 750.5,133.5 C 752.027,133.427 753.027,134.094 753.5,135.5C 751.973,135.573 750.973,134.906 750.5,133.5 Z"/></g>
<g><path style="opacity:0.333" fill="#b9b8bf" d="M 759.5,138.5 C 761.027,138.427 762.027,139.094 762.5,140.5C 760.973,140.573 759.973,139.906 759.5,138.5 Z"/></g>
<g><path style="opacity:1" fill="#424153" d="M 876.5,140.5 C 876.833,140.5 877.167,140.5 877.5,140.5C 894.723,146.736 908.39,157.402 918.5,172.5C 918.427,174.027 919.094,175.027 920.5,175.5C 921.674,176.514 922.34,177.847 922.5,179.5C 922.12,181.698 922.787,183.365 924.5,184.5C 932.509,226.981 916.509,256.481 876.5,273C 853.068,281.041 829.068,283.708 804.5,281C 799.242,280.386 794.242,279.219 789.5,277.5C 787.485,276.076 785.152,275.41 782.5,275.5C 774.192,273.509 766.525,270.176 759.5,265.5C 759.027,264.094 758.027,263.427 756.5,263.5C 756.027,262.094 755.027,261.427 753.5,261.5C 753.027,260.094 752.027,259.427 750.5,259.5C 750.027,258.094 749.027,257.427 747.5,257.5C 746.5,257.167 745.833,256.5 745.5,255.5C 745.027,254.094 744.027,253.427 742.5,253.5C 724.55,237.937 714.217,218.271 711.5,194.5C 711.5,191.5 711.5,188.5 711.5,185.5C 727.5,185.5 743.5,185.5 759.5,185.5C 760.845,195.88 763.845,205.88 768.5,215.5C 768.427,217.027 769.094,218.027 770.5,218.5C 770.427,220.027 771.094,221.027 772.5,221.5C 774.167,222.5 775.5,223.833 776.5,225.5C 776.5,227.5 777.5,228.5 779.5,228.5C 798.078,243.451 819.078,247.951 842.5,242C 848.78,240.519 854.78,238.352 860.5,235.5C 862.027,235.573 863.027,234.906 863.5,233.5C 865.404,233.262 866.738,232.262 867.5,230.5C 867.833,229.5 868.5,228.833 869.5,228.5C 871.262,227.738 872.262,226.404 872.5,224.5C 873.906,224.027 874.573,223.027 874.5,221.5C 877.916,213.834 879.083,205.834 878,197.5C 876.274,191.282 873.108,185.949 868.5,181.5C 867.738,179.738 866.404,178.738 864.5,178.5C 864.027,177.094 863.027,176.427 861.5,176.5C 858.55,175.692 855.883,174.358 853.5,172.5C 853.389,171.883 853.056,171.383 852.5,171C 860.714,160.958 868.714,150.791 876.5,140.5 Z"/></g>
<g><path style="opacity:0.451" fill="#b4b4bb" d="M 1095.5,146.5 C 1095.57,148.027 1094.91,149.027 1093.5,149.5C 1093.43,147.973 1094.09,146.973 1095.5,146.5 Z"/></g>
<g><path style="opacity:0.898" fill="#a1a1aa" d="M 788.5,150.5 C 790.898,150.259 792.898,150.926 794.5,152.5C 792.214,152.405 790.214,151.738 788.5,150.5 Z"/></g>
<g><path style="opacity:1" fill="#23a9d7" d="M 814.5,141.5 C 814.667,160.836 814.5,180.17 814,199.5C 813.667,200.833 813.333,202.167 813,203.5C 812.329,202.748 811.496,202.414 810.5,202.5C 800.893,195.565 791.56,188.232 782.5,180.5C 788.883,171.797 795.216,163.13 801.5,154.5C 803.716,153.797 805.549,152.464 807,150.5C 809.364,147.31 811.864,144.31 814.5,141.5 Z"/></g>
<g><path style="opacity:0.529" fill="#a8a8b0" d="M 1151.5,148.5 C 1152.91,148.973 1153.57,149.973 1153.5,151.5C 1152.09,151.027 1151.43,150.027 1151.5,148.5 Z"/></g>
<g><path style="opacity:0.537" fill="#a8a7af" d="M 1093.5,149.5 C 1093.57,151.027 1092.91,152.027 1091.5,152.5C 1091.43,150.973 1092.09,149.973 1093.5,149.5 Z"/></g>
<g><path style="opacity:0.624" fill="#9c9ba5" d="M 1091.5,152.5 C 1091.57,154.027 1090.91,155.027 1089.5,155.5C 1089.43,153.973 1090.09,152.973 1091.5,152.5 Z"/></g>
<g><path style="opacity:0.584" fill="#a09fa9" d="M 1158.5,158.5 C 1159.91,158.973 1160.57,159.973 1160.5,161.5C 1159.09,161.027 1158.43,160.027 1158.5,158.5 Z"/></g>
<g><path style="opacity:0.8" fill="#686876" d="M 226.5,160.5 C 227.404,161.209 227.737,162.209 227.5,163.5C 203.824,163.833 180.157,163.5 156.5,162.5C 156.624,161.893 156.957,161.56 157.5,161.5C 168.828,162.167 180.328,162.5 192,162.5C 203.853,162.499 215.353,161.832 226.5,160.5 Z"/></g>
<g><path style="opacity:0.718" fill="#9c9ba5" d="M 1160.5,161.5 C 1162.26,162.262 1163.26,163.596 1163.5,165.5C 1161.74,164.738 1160.74,163.404 1160.5,161.5 Z"/></g>
<g><path style="opacity:0.58" fill="#a1a1aa" d="M 1084.5,162.5 C 1084.57,164.027 1083.91,165.027 1082.5,165.5C 1082.43,163.973 1083.09,162.973 1084.5,162.5 Z"/></g>
<g><path style="opacity:0.525" fill="#a9a9b0" d="M 1163.5,165.5 C 1164.91,165.973 1165.57,166.973 1165.5,168.5C 1164.09,168.027 1163.43,167.027 1163.5,165.5 Z"/></g>
<g><path style="opacity:0.125" fill="#c7c6cc" d="M 555.5,170.5 C 531.006,171.498 506.339,171.831 481.5,171.5C 481.5,206.167 481.5,240.833 481.5,275.5C 465.5,275.5 449.5,275.5 433.5,275.5C 433.5,275.167 433.5,274.833 433.5,274.5C 449.167,274.5 464.833,274.5 480.5,274.5C 480.5,239.833 480.5,205.167 480.5,170.5C 505.5,170.5 530.5,170.5 555.5,170.5 Z"/></g>
<g><path style="opacity:0.337" fill="#bcbcc2" d="M 918.5,172.5 C 919.906,172.973 920.573,173.973 920.5,175.5C 919.094,175.027 918.427,174.027 918.5,172.5 Z"/></g>
<g><path style="opacity:0.537" fill="#a8a7af" d="M 1077.5,172.5 C 1077.57,174.027 1076.91,175.027 1075.5,175.5C 1075.43,173.973 1076.09,172.973 1077.5,172.5 Z"/></g>
<g><path style="opacity:0.475" fill="#aeadb5" d="M 861.5,176.5 C 863.027,176.427 864.027,177.094 864.5,178.5C 862.973,178.573 861.973,177.906 861.5,176.5 Z"/></g>
<g><path style="opacity:0.627" fill="#9b9ba4" d="M 1075.5,175.5 C 1075.57,177.027 1074.91,178.027 1073.5,178.5C 1073.43,176.973 1074.09,175.973 1075.5,175.5 Z"/></g>
<g><path style="opacity:0.58" fill="#a2a1a9" d="M 1170.5,175.5 C 1171.91,175.973 1172.57,176.973 1172.5,178.5C 1171.09,178.027 1170.43,177.027 1170.5,175.5 Z"/></g>
<g><path style="opacity:0.875" fill="#9c9ca6" d="M 864.5,178.5 C 866.404,178.738 867.738,179.738 868.5,181.5C 866.596,181.262 865.262,180.262 864.5,178.5 Z"/></g>
<g><path style="opacity:0.706" fill="#9d9da6" d="M 1073.5,178.5 C 1073.26,180.404 1072.26,181.738 1070.5,182.5C 1070.74,180.596 1071.74,179.262 1073.5,178.5 Z"/></g>
<g><path style="opacity:0.714" fill="#9d9ca5" d="M 1172.5,178.5 C 1174.26,179.262 1175.26,180.596 1175.5,182.5C 1173.74,181.738 1172.74,180.404 1172.5,178.5 Z"/></g>
<g><path style="opacity:0.933" fill="#9c9ba5" d="M 922.5,179.5 C 923.537,180.93 924.204,182.597 924.5,184.5C 922.787,183.365 922.12,181.698 922.5,179.5 Z"/></g>
<g><path style="opacity:0.733" fill="#797885" d="M 759.5,185.5 C 743.5,185.5 727.5,185.5 711.5,185.5C 711.5,188.5 711.5,191.5 711.5,194.5C 710.521,191.375 710.187,188.042 710.5,184.5C 727.009,184.17 743.342,184.504 759.5,185.5 Z"/></g>
<g><path style="opacity:0.498" fill="#adadb5" d="M 1070.5,182.5 C 1070.57,184.027 1069.91,185.027 1068.5,185.5C 1068.43,183.973 1069.09,182.973 1070.5,182.5 Z"/></g>
<g><path style="opacity:0.518" fill="#abaab2" d="M 1175.5,182.5 C 1176.91,182.973 1177.57,183.973 1177.5,185.5C 1176.09,185.027 1175.43,184.027 1175.5,182.5 Z"/></g>
<g><path style="opacity:0.584" fill="#a1a0a9" d="M 1068.5,185.5 C 1068.57,187.027 1067.91,188.027 1066.5,188.5C 1066.43,186.973 1067.09,185.973 1068.5,185.5 Z"/></g>
<g><path style="opacity:0.961" fill="#a1a1aa" d="M 1127.5,190.5 C 1129.45,191.035 1130.45,192.368 1130.5,194.5C 1129.03,193.564 1128.03,192.23 1127.5,190.5 Z"/></g>
<g><path style="opacity:0.573" fill="#a2a1aa" d="M 1182.5,192.5 C 1183.91,192.973 1184.57,193.973 1184.5,195.5C 1183.09,195.027 1182.43,194.027 1182.5,192.5 Z"/></g>
<g><path style="opacity:0.541" fill="#a7a7af" d="M 1061.5,195.5 C 1061.57,197.027 1060.91,198.027 1059.5,198.5C 1059.43,196.973 1060.09,195.973 1061.5,195.5 Z"/></g>
<g><path style="opacity:0.867" fill="#5a5967" d="M 242.5,199.5 C 208.76,199.174 175.094,199.507 141.5,200.5C 157.986,199.167 174.82,198.5 192,198.5C 209.003,198.5 225.837,198.833 242.5,199.5 Z"/></g>
<g><path style="opacity:0.627" fill="#9a9aa3" d="M 1059.5,198.5 C 1059.57,200.027 1058.91,201.027 1057.5,201.5C 1057.43,199.973 1058.09,198.973 1059.5,198.5 Z"/></g>
<g><path style="opacity:0.961" fill="#a1a0a9" d="M 1134.5,200.5 C 1136.45,201.035 1137.45,202.368 1137.5,204.5C 1136.03,203.564 1135.03,202.23 1134.5,200.5 Z"/></g>
<g><path style="opacity:0.706" fill="#9d9ca5" d="M 1057.5,201.5 C 1057.26,203.404 1056.26,204.738 1054.5,205.5C 1054.74,203.596 1055.74,202.262 1057.5,201.5 Z"/></g>
<g><path style="opacity:0.631" fill="#9a99a3" d="M 1189.5,202.5 C 1190.91,202.973 1191.57,203.973 1191.5,205.5C 1190.09,205.027 1189.43,204.027 1189.5,202.5 Z"/></g>
<g><path style="opacity:0.502" fill="#adadb4" d="M 1054.5,205.5 C 1054.57,207.027 1053.91,208.027 1052.5,208.5C 1052.43,206.973 1053.09,205.973 1054.5,205.5 Z"/></g>
<g><path style="opacity:0.588" fill="#a0a0a9" d="M 1052.5,208.5 C 1052.57,210.027 1051.91,211.027 1050.5,211.5C 1050.43,209.973 1051.09,208.973 1052.5,208.5 Z"/></g>
<g><path style="opacity:0.965" fill="#a09fa8" d="M 1141.5,210.5 C 1143.45,211.035 1144.45,212.368 1144.5,214.5C 1143.03,213.564 1142.03,212.23 1141.5,210.5 Z"/></g>
<g><path style="opacity:0.569" fill="#a3a3ab" d="M 1194.5,209.5 C 1195.91,209.973 1196.57,210.973 1196.5,212.5C 1195.09,212.027 1194.43,211.027 1194.5,209.5 Z"/></g>
<g><path style="opacity:0.541" fill="#a1a0a9" d="M 768.5,215.5 C 769.906,215.973 770.573,216.973 770.5,218.5C 769.094,218.027 768.427,217.027 768.5,215.5 Z"/></g>
<g><path style="opacity:0.839" fill="#9a99a3" d="M 770.5,218.5 C 771.906,218.973 772.573,219.973 772.5,221.5C 771.094,221.027 770.427,220.027 770.5,218.5 Z"/></g>
<g><path style="opacity:0.545" fill="#a7a6af" d="M 1045.5,218.5 C 1045.57,220.027 1044.91,221.027 1043.5,221.5C 1043.43,219.973 1044.09,218.973 1045.5,218.5 Z"/></g>
<g><path style="opacity:0.965" fill="#a09fa8" d="M 1148.5,220.5 C 1150.45,221.035 1151.45,222.368 1151.5,224.5C 1150.03,223.564 1149.03,222.23 1148.5,220.5 Z"/></g>
<g><path style="opacity:0.624" fill="#9b9aa4" d="M 1201.5,219.5 C 1202.91,219.973 1203.57,220.973 1203.5,222.5C 1202.09,222.027 1201.43,221.027 1201.5,219.5 Z"/></g>
<g><path style="opacity:0.506" fill="#acabb3" d="M 874.5,221.5 C 874.573,223.027 873.906,224.027 872.5,224.5C 872.427,222.973 873.094,221.973 874.5,221.5 Z"/></g>
<g><path style="opacity:0.631" fill="#9a99a3" d="M 1043.5,221.5 C 1043.57,223.027 1042.91,224.027 1041.5,224.5C 1041.43,222.973 1042.09,221.973 1043.5,221.5 Z"/></g>
<g><path style="opacity:0.839" fill="#9e9da6" d="M 872.5,224.5 C 872.262,226.404 871.262,227.738 869.5,228.5C 869.738,226.596 870.738,225.262 872.5,224.5 Z"/></g>
<g><path style="opacity:0.733" fill="#b5b4bc" d="M 776.5,225.5 C 777.833,226.167 778.833,227.167 779.5,228.5C 777.5,228.5 776.5,227.5 776.5,225.5 Z"/></g>
<g><path style="opacity:0.706" fill="#9d9ca5" d="M 1041.5,224.5 C 1041.26,226.404 1040.26,227.738 1038.5,228.5C 1038.74,226.596 1039.74,225.262 1041.5,224.5 Z"/></g>
<g><path style="opacity:0.561" fill="#a4a3ac" d="M 1206.5,226.5 C 1207.91,226.973 1208.57,227.973 1208.5,229.5C 1207.09,229.027 1206.43,228.027 1206.5,226.5 Z"/></g>
<g><path style="opacity:0.502" fill="#adadb4" d="M 1038.5,228.5 C 1038.57,230.027 1037.91,231.027 1036.5,231.5C 1036.43,229.973 1037.09,228.973 1038.5,228.5 Z"/></g>
<g><path style="opacity:0.965" fill="#9f9fa7" d="M 1155.5,230.5 C 1157.45,231.035 1158.45,232.368 1158.5,234.5C 1157.03,233.564 1156.03,232.23 1155.5,230.5 Z"/></g>
<g><path style="opacity:0.667" fill="#a4a4ac" d="M 867.5,230.5 C 866.738,232.262 865.404,233.262 863.5,233.5C 864.262,231.738 865.596,230.738 867.5,230.5 Z"/></g>
<g><path style="opacity:0.588" fill="#a0a0a9" d="M 1036.5,231.5 C 1036.57,233.027 1035.91,234.027 1034.5,234.5C 1034.43,232.973 1035.09,231.973 1036.5,231.5 Z"/></g>
<g><path style="opacity:0.706" fill="#abaab2" d="M 863.5,233.5 C 863.027,234.906 862.027,235.573 860.5,235.5C 860.973,234.094 861.973,233.427 863.5,233.5 Z"/></g>
<g><path style="opacity:0.616" fill="#9c9ba4" d="M 1213.5,236.5 C 1214.91,236.973 1215.57,237.973 1215.5,239.5C 1214.09,239.027 1213.43,238.027 1213.5,236.5 Z"/></g>
<g><path style="opacity:0.545" fill="#a7a6af" d="M 1029.5,241.5 C 1029.57,243.027 1028.91,244.027 1027.5,244.5C 1027.43,242.973 1028.09,241.973 1029.5,241.5 Z"/></g>
<g><path style="opacity:0.557" fill="#a4a4ad" d="M 1218.5,243.5 C 1219.91,243.973 1220.57,244.973 1220.5,246.5C 1219.09,246.027 1218.43,245.027 1218.5,243.5 Z"/></g>
<g><path style="opacity:0.635" fill="#9999a2" d="M 1027.5,244.5 C 1027.57,246.027 1026.91,247.027 1025.5,247.5C 1025.43,245.973 1026.09,244.973 1027.5,244.5 Z"/></g>
<g><path style="opacity:0.71" fill="#9b9aa4" d="M 1025.5,247.5 C 1025.26,249.404 1024.26,250.738 1022.5,251.5C 1022.74,249.596 1023.74,248.262 1025.5,247.5 Z"/></g>
<g><path style="opacity:0.639" fill="#b7b7bd" d="M 742.5,253.5 C 744.027,253.427 745.027,254.094 745.5,255.5C 743.973,255.573 742.973,254.906 742.5,253.5 Z"/></g>
<g><path style="opacity:0.506" fill="#adacb4" d="M 1022.5,251.5 C 1022.57,253.027 1021.91,254.027 1020.5,254.5C 1020.43,252.973 1021.09,251.973 1022.5,251.5 Z"/></g>
<g><path style="opacity:0.612" fill="#9d9ca5" d="M 1225.5,253.5 C 1226.91,253.973 1227.57,254.973 1227.5,256.5C 1226.09,256.027 1225.43,255.027 1225.5,253.5 Z"/></g>
<g><path style="opacity:0.592" fill="#a09fa8" d="M 1020.5,254.5 C 1020.57,256.027 1019.91,257.027 1018.5,257.5C 1018.43,255.973 1019.09,254.973 1020.5,254.5 Z"/></g>
<g><path style="opacity:0.443" fill="#bab9c0" d="M 747.5,257.5 C 749.027,257.427 750.027,258.094 750.5,259.5C 748.973,259.573 747.973,258.906 747.5,257.5 Z"/></g>
<g><path style="opacity:0.533" fill="#a8a7b0" d="M 750.5,259.5 C 752.027,259.427 753.027,260.094 753.5,261.5C 751.973,261.573 750.973,260.906 750.5,259.5 Z"/></g>
<g><path style="opacity:0.502" fill="#a6a6ae" d="M 753.5,261.5 C 755.027,261.427 756.027,262.094 756.5,263.5C 754.973,263.573 753.973,262.906 753.5,261.5 Z"/></g>
<g><path style="opacity:0.549" fill="#a5a5ae" d="M 1230.5,260.5 C 1231.91,260.973 1232.57,261.973 1232.5,263.5C 1231.09,263.027 1230.43,262.027 1230.5,260.5 Z"/></g>
<g><path style="opacity:0.369" fill="#b7b7bd" d="M 756.5,263.5 C 758.027,263.427 759.027,264.094 759.5,265.5C 757.973,265.573 756.973,264.906 756.5,263.5 Z"/></g>
<g><path style="opacity:0.549" fill="#a7a6ae" d="M 1013.5,264.5 C 1013.57,266.027 1012.91,267.027 1011.5,267.5C 1011.43,265.973 1012.09,264.973 1013.5,264.5 Z"/></g>
<g><path style="opacity:0.604" fill="#9d9da6" d="M 1237.5,270.5 C 1238.91,270.973 1239.57,271.973 1239.5,273.5C 1238.09,273.027 1237.43,272.027 1237.5,270.5 Z"/></g>
<g><path style="opacity:0.533" fill="#9e9da6" d="M 63.5,273.5 C 80.0688,274.824 96.7355,274.824 113.5,273.5C 105.361,274.831 96.8606,275.498 88,275.5C 79.5,275.167 71,274.833 62.5,274.5C 62.6236,273.893 62.9569,273.56 63.5,273.5 Z"/></g>
<g><path style="opacity:0.533" fill="#9a99a3" d="M 320.5,269.5 C 321.738,271.214 322.405,273.214 322.5,275.5C 305.658,275.83 288.992,275.497 272.5,274.5C 288.837,274.667 305.17,274.5 321.5,274C 320.62,272.644 320.286,271.144 320.5,269.5 Z"/></g>
<g><path style="opacity:0.533" fill="#9d9ca5" d="M 1009.5,270.5 C 1009.49,272.017 1008.82,273.184 1007.5,274C 1025.16,274.5 1042.83,274.667 1060.5,274.5C 1042.34,275.662 1024,275.829 1005.5,275C 1006.33,273.008 1007.66,271.508 1009.5,270.5 Z"/></g>
<g><path style="opacity:0.533" fill="#9998a2" d="M 1185.5,273.5 C 1203.63,274.813 1221.63,274.813 1239.5,273.5C 1240.04,273.56 1240.38,273.893 1240.5,274.5C 1222.51,275.666 1204.51,275.833 1186.5,275C 1185.94,274.617 1185.61,274.117 1185.5,273.5 Z"/></g>
<g><path style="opacity:0.984" fill="#83838f" d="M 782.5,275.5 C 785.152,275.41 787.485,276.076 789.5,277.5C 786.848,277.59 784.515,276.924 782.5,275.5 Z"/></g>
<g><path style="opacity:1" fill="#434253" d="M 956.5,390.5 C 960.634,391.485 964.968,391.818 969.5,391.5C 969.5,395.833 969.5,400.167 969.5,404.5C 964.968,404.182 960.634,404.515 956.5,405.5C 956.5,425.5 956.5,445.5 956.5,465.5C 950.833,465.5 945.167,465.5 939.5,465.5C 939.5,445.167 939.5,424.833 939.5,404.5C 935.5,404.5 931.5,404.5 927.5,404.5C 927.5,399.833 927.5,395.167 927.5,390.5C 931.167,390.5 934.833,390.5 938.5,390.5C 936.184,362.646 948.184,353.646 974.5,363.5C 975.662,368.467 975.829,373.467 975,378.5C 970.755,376.856 966.421,375.522 962,374.5C 959.418,375.284 957.751,376.951 957,379.5C 956.501,383.152 956.335,386.818 956.5,390.5 Z"/></g>
<g><path style="opacity:0.71" fill="#878692" d="M 131.5,404.5 C 131.5,404.833 131.5,405.167 131.5,405.5C 115.833,405.5 100.167,405.5 84.5,405.5C 84.5,391.5 84.5,377.5 84.5,363.5C 79.1667,363.5 73.8333,363.5 68.5,363.5C 68.5,397.5 68.5,431.5 68.5,465.5C 68.1667,465.5 67.8333,465.5 67.5,465.5C 67.5,431.167 67.5,396.833 67.5,362.5C 73.5,362.5 79.5,362.5 85.5,362.5C 85.5,376.5 85.5,390.5 85.5,404.5C 100.833,404.5 116.167,404.5 131.5,404.5 Z"/></g>
<g><path style="opacity:1" fill="#3e3e4f" d="M 131.5,405.5 C 132.496,391.677 132.829,377.677 132.5,363.5C 137.833,363.5 143.167,363.5 148.5,363.5C 148.5,397.5 148.5,431.5 148.5,465.5C 143.167,465.5 137.833,465.5 132.5,465.5C 132.5,450.167 132.5,434.833 132.5,419.5C 116.5,419.5 100.5,419.5 84.5,419.5C 84.5,434.833 84.5,450.167 84.5,465.5C 79.1667,465.5 73.8333,465.5 68.5,465.5C 68.5,431.5 68.5,397.5 68.5,363.5C 73.8333,363.5 79.1667,363.5 84.5,363.5C 84.5,377.5 84.5,391.5 84.5,405.5C 100.167,405.5 115.833,405.5 131.5,405.5 Z"/></g>
<g><path style="opacity:0.741" fill="#696876" d="M 149.5,465.5 C 149.167,465.5 148.833,465.5 148.5,465.5C 148.5,431.5 148.5,397.5 148.5,363.5C 143.167,363.5 137.833,363.5 132.5,363.5C 132.829,377.677 132.496,391.677 131.5,405.5C 131.5,405.167 131.5,404.833 131.5,404.5C 131.5,390.5 131.5,376.5 131.5,362.5C 137.5,362.5 143.5,362.5 149.5,362.5C 149.5,396.833 149.5,431.167 149.5,465.5 Z"/></g>
<g><path style="opacity:0.592" fill="#90909a" d="M 362.5,363.5 C 356.833,363.5 351.167,363.5 345.5,363.5C 345.5,397.5 345.5,431.5 345.5,465.5C 351.167,465.5 356.833,465.5 362.5,465.5C 356.69,466.49 350.69,466.823 344.5,466.5C 344.5,431.833 344.5,397.167 344.5,362.5C 350.69,362.177 356.69,362.51 362.5,363.5 Z"/></g>
<g><path style="opacity:1" fill="#403f51" d="M 362.5,363.5 C 362.5,397.5 362.5,431.5 362.5,465.5C 356.833,465.5 351.167,465.5 345.5,465.5C 345.5,431.5 345.5,397.5 345.5,363.5C 351.167,363.5 356.833,363.5 362.5,363.5 Z"/></g>
<g><path style="opacity:0.188" fill="#d8d8dc" d="M 440.5,362.5 C 440.5,396.833 440.5,431.167 440.5,465.5C 446.167,465.5 451.833,465.5 457.5,465.5C 457.17,448.991 457.504,432.658 458.5,416.5C 458.5,433.167 458.5,449.833 458.5,466.5C 452.167,466.5 445.833,466.5 439.5,466.5C 439.168,431.663 439.502,396.996 440.5,362.5 Z"/></g>
<g><path style="opacity:1" fill="#414052" d="M 440.5,362.5 C 446.167,362.5 451.833,362.5 457.5,362.5C 457.333,374.505 457.5,386.505 458,398.5C 458.717,397.956 459.217,397.289 459.5,396.5C 466.11,390.007 474.11,387.507 483.5,389C 491.966,390.382 497.966,394.882 501.5,402.5C 501.41,405.152 502.076,407.485 503.5,409.5C 503.5,410.5 503.5,411.5 503.5,412.5C 503.5,430.167 503.5,447.833 503.5,465.5C 497.833,465.5 492.167,465.5 486.5,465.5C 486.83,447.659 486.497,429.992 485.5,412.5C 479.736,403.19 472.403,402.023 463.5,409C 461.686,411.479 460.019,413.979 458.5,416.5C 457.504,432.658 457.17,448.991 457.5,465.5C 451.833,465.5 446.167,465.5 440.5,465.5C 440.5,431.167 440.5,396.833 440.5,362.5 Z"/></g>
<g><path style="opacity:0.161" fill="#dfdfe2" d="M 457.5,362.5 C 458.167,373.833 458.833,385.167 459.5,396.5C 459.217,397.289 458.717,397.956 458,398.5C 457.5,386.505 457.333,374.505 457.5,362.5 Z"/></g>
<g><path style="opacity:1" fill="#444355" d="M 659.5,362.5 C 675.837,362.333 692.17,362.5 708.5,363C 716.026,364.588 722.026,368.421 726.5,374.5C 726.427,376.027 727.094,377.027 728.5,377.5C 736.322,391.753 734.656,404.92 723.5,417C 719.153,420.673 714.153,423.006 708.5,424C 698.172,424.5 687.839,424.666 677.5,424.5C 676.504,437.99 676.171,451.656 676.5,465.5C 670.833,465.5 665.167,465.5 659.5,465.5C 659.5,431.167 659.5,396.833 659.5,362.5 Z M 708.5,380.5 C 709.5,382.167 710.833,383.5 712.5,384.5C 716.514,392.285 715.514,399.452 709.5,406C 706.352,407.605 703.019,408.605 699.5,409C 692.174,409.5 684.841,409.666 677.5,409.5C 677.5,398.833 677.5,388.167 677.5,377.5C 688.033,376.875 698.366,377.875 708.5,380.5 Z"/></g>
<g><path style="opacity:1" fill="#403f51" d="M 754.5,363.5 C 760.167,363.5 765.833,363.5 771.5,363.5C 771.5,397.5 771.5,431.5 771.5,465.5C 765.833,465.5 760.167,465.5 754.5,465.5C 754.5,431.5 754.5,397.5 754.5,363.5 Z"/></g>
<g><path style="opacity:0.573" fill="#93929d" d="M 754.5,363.5 C 760.31,362.51 766.31,362.177 772.5,362.5C 772.5,397.167 772.5,431.833 772.5,466.5C 766.31,466.823 760.31,466.49 754.5,465.5C 760.167,465.5 765.833,465.5 771.5,465.5C 771.5,431.5 771.5,397.5 771.5,363.5C 765.833,363.5 760.167,363.5 754.5,363.5 Z"/></g>
<g><path style="opacity:0.737" fill="#7e7e8a" d="M 407.5,370.5 C 401.833,370.5 396.167,370.5 390.5,370.5C 390.824,377.354 390.491,384.021 389.5,390.5C 389.5,383.5 389.5,376.5 389.5,369.5C 395.69,369.177 401.69,369.51 407.5,370.5 Z"/></g>
<g><path style="opacity:1" fill="#434253" d="M 407.5,370.5 C 407.5,377.167 407.5,383.833 407.5,390.5C 411.833,390.5 416.167,390.5 420.5,390.5C 420.5,395.167 420.5,399.833 420.5,404.5C 415.968,404.182 411.634,404.515 407.5,405.5C 407.333,419.504 407.5,433.504 408,447.5C 408.273,449.329 409.107,450.829 410.5,452C 413.868,452.543 417.201,452.376 420.5,451.5C 421.8,453.223 422.467,455.39 422.5,458C 422.369,460.777 421.702,463.277 420.5,465.5C 419.391,466.29 418.058,466.79 416.5,467C 403.389,470.529 394.555,466.029 390,453.5C 389.5,437.503 389.333,421.503 389.5,405.5C 386.375,404.521 383.042,404.187 379.5,404.5C 379.5,399.833 379.5,395.167 379.5,390.5C 382.833,390.5 386.167,390.5 389.5,390.5C 390.491,384.021 390.824,377.354 390.5,370.5C 396.167,370.5 401.833,370.5 407.5,370.5 Z"/></g>
<g><path style="opacity:1" fill="#403f51" d="M 900.5,390.5 C 904.833,390.5 909.167,390.5 913.5,390.5C 913.5,395.167 913.5,399.833 913.5,404.5C 908.833,404.5 904.167,404.5 899.5,404.5C 899.171,419.343 899.504,434.01 900.5,448.5C 901.488,449.795 902.488,451.128 903.5,452.5C 904.449,453.152 905.615,453.486 907,453.5C 909.221,453.607 911.054,452.94 912.5,451.5C 912.833,451.5 913.167,451.5 913.5,451.5C 914.797,456.066 914.797,460.733 913.5,465.5C 907.329,467.417 900.996,467.917 894.5,467C 892.934,466.392 891.6,465.558 890.5,464.5C 889.738,462.738 888.404,461.738 886.5,461.5C 883.769,458.366 882.436,454.699 882.5,450.5C 882.5,435.167 882.5,419.833 882.5,404.5C 879.167,404.5 875.833,404.5 872.5,404.5C 872.5,399.833 872.5,395.167 872.5,390.5C 875.5,390.5 878.5,390.5 881.5,390.5C 882.491,384.021 882.824,377.354 882.5,370.5C 888.167,370.5 893.833,370.5 899.5,370.5C 899.176,377.354 899.509,384.021 900.5,390.5 Z"/></g>
<g><path style="opacity:0.463" fill="#b4b4bb" d="M 900.5,390.5 C 899.509,384.021 899.176,377.354 899.5,370.5C 893.833,370.5 888.167,370.5 882.5,370.5C 882.824,377.354 882.491,384.021 881.5,390.5C 881.5,383.5 881.5,376.5 881.5,369.5C 887.833,369.5 894.167,369.5 900.5,369.5C 900.5,376.5 900.5,383.5 900.5,390.5 Z"/></g>
<g><path style="opacity:0.545" fill="#a8a7b0" d="M 726.5,374.5 C 727.906,374.973 728.573,375.973 728.5,377.5C 727.094,377.027 726.427,376.027 726.5,374.5 Z"/></g>
<g><path style="opacity:0.831" fill="#adadb4" d="M 708.5,380.5 C 710.833,380.833 712.167,382.167 712.5,384.5C 710.833,383.5 709.5,382.167 708.5,380.5 Z"/></g>
<g><path style="opacity:1" fill="#464557" d="M 242.5,419.5 C 242.5,423.833 242.5,428.167 242.5,432.5C 225.325,432.17 208.325,432.503 191.5,433.5C 192.497,436.817 193.497,440.15 194.5,443.5C 194.427,445.027 195.094,446.027 196.5,446.5C 204.516,454.042 212.85,454.375 221.5,447.5C 222.906,447.027 223.573,446.027 223.5,444.5C 223.66,442.847 224.326,441.514 225.5,440.5C 230.74,439.551 236.073,439.218 241.5,439.5C 241.5,440.5 241.5,441.5 241.5,442.5C 234.735,461.893 221.069,470.06 200.5,467C 197.524,466.295 194.858,465.129 192.5,463.5C 192.027,462.094 191.027,461.427 189.5,461.5C 188.738,459.738 187.404,458.738 185.5,458.5C 182.148,455.305 179.315,451.638 177,447.5C 170.693,433.439 171.193,419.772 178.5,406.5C 179.906,406.027 180.573,405.027 180.5,403.5C 181.906,403.027 182.573,402.027 182.5,400.5C 195.263,387.784 209.929,385.284 226.5,393C 236.207,399.204 241.54,408.037 242.5,419.5 Z M 217.5,406.5 C 218.167,407.833 219.167,408.833 220.5,409.5C 222.116,411.738 223.449,414.071 224.5,416.5C 224.5,417.5 224.5,418.5 224.5,419.5C 213.833,419.5 203.167,419.5 192.5,419.5C 192.5,418.5 192.5,417.5 192.5,416.5C 197.566,405.137 205.899,401.803 217.5,406.5 Z"/></g>
<g><path style="opacity:1" fill="#464556" d="M 314.5,395.5 C 314.427,397.027 315.094,398.027 316.5,398.5C 318.262,399.262 319.262,400.596 319.5,402.5C 319.41,405.152 320.076,407.485 321.5,409.5C 321.201,423.549 321.535,437.549 322.5,451.5C 322.791,452.649 323.624,453.316 325,453.5C 326.07,453.472 326.903,453.139 327.5,452.5C 327.833,452.5 328.167,452.5 328.5,452.5C 330.423,456.029 331.089,460.029 330.5,464.5C 322.816,469.015 315.65,468.348 309,462.5C 308.209,461.255 307.709,459.922 307.5,458.5C 307.289,456.576 306.623,456.243 305.5,457.5C 297.437,466.353 287.437,469.52 275.5,467C 272.826,466.33 270.493,465.163 268.5,463.5C 268.027,462.094 267.027,461.427 265.5,461.5C 264.5,461.167 263.833,460.5 263.5,459.5C 263.446,457.368 262.446,456.035 260.5,455.5C 255.197,440.607 260.197,430.774 275.5,426C 284.127,423.791 292.46,420.791 300.5,417C 303.526,414.702 304.192,411.869 302.5,408.5C 302.5,406.5 301.5,405.5 299.5,405.5C 293.323,403.634 287.49,404.3 282,407.5C 280.295,409.577 279.128,411.91 278.5,414.5C 272.074,415.12 266.074,414.453 260.5,412.5C 260.5,412.167 260.5,411.833 260.5,411.5C 261.924,409.485 262.59,407.152 262.5,404.5C 263.906,404.027 264.573,403.027 264.5,401.5C 266.262,400.738 267.262,399.404 267.5,397.5C 269.027,397.573 270.027,396.906 270.5,395.5C 272.336,393.412 274.669,392.079 277.5,391.5C 280.152,391.59 282.485,390.924 284.5,389.5C 295.298,387.526 305.298,389.526 314.5,395.5 Z M 300.5,431.5 C 301.5,431.5 302.5,431.5 303.5,431.5C 303.5,434.167 303.5,436.833 303.5,439.5C 301.478,441.531 299.811,443.865 298.5,446.5C 296.596,446.738 295.262,447.738 294.5,449.5C 289.792,452.411 284.792,453.077 279.5,451.5C 278.833,450.167 277.833,449.167 276.5,448.5C 276.02,445.315 276.686,442.481 278.5,440C 285.568,436.259 292.901,433.426 300.5,431.5 Z"/></g>
<g><path style="opacity:1" fill="#484758" d="M 849.5,398.5 C 849.427,400.027 850.094,401.027 851.5,401.5C 852.793,402.842 853.626,404.509 854,406.5C 854.333,421.167 854.667,435.833 855,450.5C 856.444,452.155 858.278,452.822 860.5,452.5C 862.423,456.029 863.089,460.029 862.5,464.5C 851.642,470.635 843.809,467.968 839,456.5C 828.033,468.137 815.2,470.637 800.5,464C 792.781,458.399 789.615,450.899 791,441.5C 791.424,438.975 792.59,436.975 794.5,435.5C 795.833,434.833 796.833,433.833 797.5,432.5C 797.5,431.833 797.833,431.5 798.5,431.5C 800.027,431.573 801.027,430.906 801.5,429.5C 805.444,427.036 809.777,425.37 814.5,424.5C 820.7,423.658 826.367,421.658 831.5,418.5C 833.027,418.573 834.027,417.906 834.5,416.5C 837.499,410.335 835.499,406.501 828.5,405C 821.241,403.305 815.575,405.472 811.5,411.5C 810.596,412.209 810.263,413.209 810.5,414.5C 804.833,414.5 799.167,414.5 793.5,414.5C 793.5,412.833 793.5,411.167 793.5,409.5C 797.11,397.068 805.443,390.235 818.5,389C 827.198,388.061 835.532,389.394 843.5,393C 845.996,394.331 847.996,396.164 849.5,398.5 Z M 835.5,430.5 C 836.638,433.304 836.805,436.304 836,439.5C 831.813,447.028 825.479,451.362 817,452.5C 812.01,452.512 809.176,450.012 808.5,445C 809.083,442.501 810.416,440.501 812.5,439C 820.161,435.839 827.827,433.006 835.5,430.5 Z"/></g>
<g><path style="opacity:1" fill="#494859" d="M 1036.5,392.5 C 1036.82,394.048 1037.82,394.715 1039.5,394.5C 1041.39,395.604 1043.06,396.937 1044.5,398.5C 1044.43,400.027 1045.09,401.027 1046.5,401.5C 1049.79,404.4 1051.79,408.067 1052.5,412.5C 1052.41,415.152 1053.08,417.485 1054.5,419.5C 1057.97,436.264 1053.3,450.431 1040.5,462C 1027.95,468.711 1015.28,469.211 1002.5,463.5C 1002.03,462.094 1001.03,461.427 999.5,461.5C 998.833,461.5 998.5,461.167 998.5,460.5C 997.738,458.738 996.404,457.738 994.5,457.5C 987.019,449.237 983.352,439.404 983.5,428C 985.098,401.396 999.098,388.396 1025.5,389C 1029.42,389.474 1033.09,390.641 1036.5,392.5 Z M 1026.5,405.5 C 1026.97,406.906 1027.97,407.573 1029.5,407.5C 1038.31,418.979 1039.64,431.312 1033.5,444.5C 1031.17,446.167 1029.17,448.167 1027.5,450.5C 1016.23,454.433 1008.4,450.766 1004,439.5C 1000.1,427.07 1002.6,416.237 1011.5,407C 1016.26,404.28 1021.26,403.78 1026.5,405.5 Z"/></g>
<g><path style="opacity:1" fill="#424153" d="M 1119.5,392.5 C 1119.82,397.695 1119.49,402.695 1118.5,407.5C 1107.5,402.512 1099.83,405.512 1095.5,416.5C 1094.5,432.658 1094.17,448.991 1094.5,465.5C 1088.83,465.5 1083.17,465.5 1077.5,465.5C 1077.5,440.5 1077.5,415.5 1077.5,390.5C 1082.17,390.5 1086.83,390.5 1091.5,390.5C 1091.5,391.833 1091.5,393.167 1091.5,394.5C 1091.46,399.866 1092.79,400.532 1095.5,396.5C 1097.17,395.5 1098.5,394.167 1099.5,392.5C 1106.08,387.362 1112.74,387.362 1119.5,392.5 Z"/></g>
<g><path style="opacity:1" fill="#424152" d="M 1182.5,395.5 C 1182.74,397.404 1183.74,398.738 1185.5,399.5C 1186.22,399.918 1186.72,400.584 1187,401.5C 1187.38,400.944 1187.88,400.611 1188.5,400.5C 1190.83,398.833 1192.83,396.833 1194.5,394.5C 1203.71,387.366 1213.37,386.7 1223.5,392.5C 1224.03,394.446 1225.37,395.446 1227.5,395.5C 1227.74,397.404 1228.74,398.738 1230.5,399.5C 1233.21,402.6 1234.54,406.267 1234.5,410.5C 1234.5,428.833 1234.5,447.167 1234.5,465.5C 1228.83,465.5 1223.17,465.5 1217.5,465.5C 1217.83,446.992 1217.5,428.659 1216.5,410.5C 1216.71,408.821 1216.05,407.821 1214.5,407.5C 1208.8,403.334 1203.3,403.667 1198,408.5C 1196.48,410.898 1194.98,413.231 1193.5,415.5C 1192.5,431.992 1192.17,448.658 1192.5,465.5C 1186.83,465.5 1181.17,465.5 1175.5,465.5C 1175.83,447.326 1175.5,429.326 1174.5,411.5C 1172.08,405.623 1167.75,403.456 1161.5,405C 1156.08,407.708 1152.41,411.875 1150.5,417.5C 1149.5,433.325 1149.17,449.325 1149.5,465.5C 1143.83,465.5 1138.17,465.5 1132.5,465.5C 1132.5,440.5 1132.5,415.5 1132.5,390.5C 1138.17,390.5 1143.83,390.5 1149.5,390.5C 1149.34,393.187 1149.5,395.854 1150,398.5C 1150.72,397.956 1151.22,397.289 1151.5,396.5C 1158.39,389.193 1166.72,387.026 1176.5,390C 1179,391.331 1181,393.164 1182.5,395.5 Z"/></g>
<g><path style="opacity:0.961" fill="#898894" d="M 284.5,389.5 C 282.485,390.924 280.152,391.59 277.5,391.5C 279.515,390.076 281.848,389.41 284.5,389.5 Z"/></g>
<g><path style="opacity:1" fill="#494759" d="M 538.5,392.5 C 538.12,394.698 538.787,396.365 540.5,397.5C 542.696,403.421 544.696,409.421 546.5,415.5C 546.12,417.698 546.787,419.365 548.5,420.5C 550.565,425.696 552.232,431.03 553.5,436.5C 553.461,437.756 553.961,438.756 555,439.5C 556.269,438.095 556.769,436.429 556.5,434.5C 559.971,423.421 563.637,412.421 567.5,401.5C 569.213,400.365 569.88,398.698 569.5,396.5C 569.869,394.559 570.536,392.725 571.5,391C 577.833,390.333 584.167,390.333 590.5,391C 579.005,422.817 567.505,454.65 556,486.5C 548.346,496.869 538.846,499.203 527.5,493.5C 526.903,488.706 527.57,484.373 529.5,480.5C 533.574,482.452 537.074,481.785 540,478.5C 542.226,473.822 544.059,468.989 545.5,464C 536.639,439.779 527.639,415.612 518.5,391.5C 521.833,391.167 525.167,390.833 528.5,390.5C 532.239,390.514 535.572,391.18 538.5,392.5 Z"/></g>
<g><path style="opacity:0.796" fill="#696977" d="M 956.5,390.5 C 961.167,390.5 965.833,390.5 970.5,390.5C 970.5,395.5 970.5,400.5 970.5,405.5C 965.833,405.5 961.167,405.5 956.5,405.5C 960.634,404.515 964.968,404.182 969.5,404.5C 969.5,400.167 969.5,395.833 969.5,391.5C 964.968,391.818 960.634,391.485 956.5,390.5 Z"/></g>
<g><path style="opacity:0.251" fill="#ccccd1" d="M 1149.5,390.5 C 1150.17,392.5 1150.83,394.5 1151.5,396.5C 1151.22,397.289 1150.72,397.956 1150,398.5C 1149.5,395.854 1149.34,393.187 1149.5,390.5 Z"/></g>
<g><path style="opacity:0.941" fill="#9d9ca6" d="M 1036.5,392.5 C 1037.71,392.932 1038.71,393.599 1039.5,394.5C 1037.82,394.715 1036.82,394.048 1036.5,392.5 Z"/></g>
<g><path style="opacity:0.106" fill="#ececed" d="M 1119.5,392.5 C 1120.81,397.68 1120.81,403.014 1119.5,408.5C 1118.89,408.376 1118.56,408.043 1118.5,407.5C 1119.49,402.695 1119.82,397.695 1119.5,392.5 Z"/></g>
<g><path style="opacity:0.996" fill="#9998a2" d="M 1223.5,392.5 C 1225.23,393.026 1226.56,394.026 1227.5,395.5C 1225.37,395.446 1224.03,394.446 1223.5,392.5 Z"/></g>
<g><path style="opacity:0.631" fill="#b0b0b7" d="M 1099.5,392.5 C 1098.5,394.167 1097.17,395.5 1095.5,396.5C 1095.83,394.167 1097.17,392.833 1099.5,392.5 Z"/></g>
<g><path style="opacity:0.933" fill="#9a9aa4" d="M 538.5,392.5 C 539.537,393.93 540.204,395.597 540.5,397.5C 538.787,396.365 538.12,394.698 538.5,392.5 Z"/></g>
<g><path style="opacity:0.776" fill="#9c9ba4" d="M 270.5,395.5 C 270.027,396.906 269.027,397.573 267.5,397.5C 267.973,396.094 268.973,395.427 270.5,395.5 Z"/></g>
<g><path style="opacity:0.584" fill="#bab9c0" d="M 314.5,395.5 C 315.906,395.973 316.573,396.973 316.5,398.5C 315.094,398.027 314.427,397.027 314.5,395.5 Z"/></g>
<g><path style="opacity:0.91" fill="#9b9aa4" d="M 1182.5,395.5 C 1184.26,396.262 1185.26,397.596 1185.5,399.5C 1183.74,398.738 1182.74,397.404 1182.5,395.5 Z"/></g>
<g><path style="opacity:0.788" fill="#ababb2" d="M 1227.5,395.5 C 1229.26,396.262 1230.26,397.596 1230.5,399.5C 1228.74,398.738 1227.74,397.404 1227.5,395.5 Z"/></g>
<g><path style="opacity:0.929" fill="#8c8b95" d="M 1091.5,394.5 C 1092.16,395.398 1092.82,396.398 1093.5,397.5C 1094.18,397.137 1094.85,396.804 1095.5,396.5C 1092.79,400.532 1091.46,399.866 1091.5,394.5 Z"/></g>
<g><path style="opacity:0.702" fill="#aaa9b2" d="M 1194.5,394.5 C 1192.83,396.833 1190.83,398.833 1188.5,400.5C 1189.5,397.5 1191.5,395.5 1194.5,394.5 Z"/></g>
<g><path style="opacity:0.796" fill="#a9a9b1" d="M 267.5,397.5 C 267.262,399.404 266.262,400.738 264.5,401.5C 264.738,399.596 265.738,398.262 267.5,397.5 Z"/></g>
<g><path style="opacity:0.902" fill="#a09fa8" d="M 569.5,396.5 C 569.88,398.698 569.213,400.365 567.5,401.5C 567.796,399.597 568.463,397.93 569.5,396.5 Z"/></g>
<g><path style="opacity:0.675" fill="#b3b2ba" d="M 1044.5,398.5 C 1045.91,398.973 1046.57,399.973 1046.5,401.5C 1045.09,401.027 1044.43,400.027 1044.5,398.5 Z"/></g>
<g><path style="opacity:0.427" fill="#b5b4bb" d="M 849.5,398.5 C 850.906,398.973 851.573,399.973 851.5,401.5C 850.094,401.027 849.427,400.027 849.5,398.5 Z"/></g>
<g><path style="opacity:0.451" fill="#bab9c0" d="M 182.5,400.5 C 182.573,402.027 181.906,403.027 180.5,403.5C 180.427,401.973 181.094,400.973 182.5,400.5 Z"/></g>
<g><path style="opacity:0.341" fill="#bbbbc1" d="M 264.5,401.5 C 264.573,403.027 263.906,404.027 262.5,404.5C 262.427,402.973 263.094,401.973 264.5,401.5 Z"/></g>
<g><path style="opacity:0.4" fill="#babac0" d="M 379.5,390.5 C 379.5,395.167 379.5,399.833 379.5,404.5C 383.042,404.187 386.375,404.521 389.5,405.5C 385.833,405.5 382.167,405.5 378.5,405.5C 378.179,400.305 378.513,395.305 379.5,390.5 Z"/></g>
<g><path style="opacity:0.4" fill="#a8a8b0" d="M 420.5,390.5 C 421.487,395.305 421.821,400.305 421.5,405.5C 416.833,405.5 412.167,405.5 407.5,405.5C 411.634,404.515 415.968,404.182 420.5,404.5C 420.5,399.833 420.5,395.167 420.5,390.5 Z"/></g>
<g><path style="opacity:0.4" fill="#bbbbc1" d="M 872.5,390.5 C 872.5,395.167 872.5,399.833 872.5,404.5C 875.833,404.5 879.167,404.5 882.5,404.5C 882.5,419.833 882.5,435.167 882.5,450.5C 881.504,435.676 881.171,420.676 881.5,405.5C 878.167,405.5 874.833,405.5 871.5,405.5C 871.179,400.305 871.513,395.305 872.5,390.5 Z"/></g>
<g><path style="opacity:0.435" fill="#b2b2b9" d="M 180.5,403.5 C 180.573,405.027 179.906,406.027 178.5,406.5C 178.427,404.973 179.094,403.973 180.5,403.5 Z"/></g>
<g><path style="opacity:0.902" fill="#9b9aa4" d="M 299.5,405.5 C 301.5,405.5 302.5,406.5 302.5,408.5C 301.167,407.833 300.167,406.833 299.5,405.5 Z"/></g>
<g><path style="opacity:0.463" fill="#ababb3" d="M 913.5,390.5 C 914.487,395.305 914.821,400.305 914.5,405.5C 909.833,405.5 905.167,405.5 900.5,405.5C 900.5,419.833 900.5,434.167 900.5,448.5C 899.504,434.01 899.171,419.343 899.5,404.5C 904.167,404.5 908.833,404.5 913.5,404.5C 913.5,399.833 913.5,395.167 913.5,390.5 Z"/></g>
<g><path style="opacity:0.369" fill="#b7b7bd" d="M 927.5,390.5 C 927.5,395.167 927.5,399.833 927.5,404.5C 931.5,404.5 935.5,404.5 939.5,404.5C 939.5,424.833 939.5,445.167 939.5,465.5C 945.167,465.5 950.833,465.5 956.5,465.5C 950.69,466.49 944.69,466.823 938.5,466.5C 938.5,446.167 938.5,425.833 938.5,405.5C 934.5,405.5 930.5,405.5 926.5,405.5C 926.179,400.305 926.513,395.305 927.5,390.5 Z"/></g>
<g><path style="opacity:0.843" fill="#a4a3ac" d="M 217.5,406.5 C 219.5,406.5 220.5,407.5 220.5,409.5C 219.167,408.833 218.167,407.833 217.5,406.5 Z"/></g>
<g><path style="opacity:0.541" fill="#a8a7af" d="M 1026.5,405.5 C 1028.03,405.427 1029.03,406.094 1029.5,407.5C 1027.97,407.573 1026.97,406.906 1026.5,405.5 Z"/></g>
<g><path style="opacity:0.969" fill="#8c8c97" d="M 262.5,404.5 C 262.59,407.152 261.924,409.485 260.5,411.5C 260.41,408.848 261.076,406.515 262.5,404.5 Z"/></g>
<g><path style="opacity:0.906" fill="#9f9ea8" d="M 1214.5,407.5 C 1216.05,407.821 1216.71,408.821 1216.5,410.5C 1215.6,409.71 1214.93,408.71 1214.5,407.5 Z"/></g>
<g><path style="opacity:0.698" fill="#8e8d98" d="M 319.5,402.5 C 320.924,404.515 321.59,406.848 321.5,409.5C 320.076,407.485 319.41,405.152 319.5,402.5 Z"/></g>
<g><path style="opacity:0.69" fill="#94939e" d="M 501.5,402.5 C 502.924,404.515 503.59,406.848 503.5,409.5C 502.076,407.485 501.41,405.152 501.5,402.5 Z"/></g>
<g><path style="opacity:0.4" fill="#babac0" d="M 260.5,412.5 C 266.074,414.453 272.074,415.12 278.5,414.5C 272.355,415.49 266.022,415.823 259.5,415.5C 259.263,414.209 259.596,413.209 260.5,412.5 Z"/></g>
<g><path style="opacity:0.4" fill="#b7b7bd" d="M 793.5,409.5 C 793.5,411.167 793.5,412.833 793.5,414.5C 799.167,414.5 804.833,414.5 810.5,414.5C 810.263,413.209 810.596,412.209 811.5,411.5C 811.5,412.833 811.5,414.167 811.5,415.5C 805.167,415.5 798.833,415.5 792.5,415.5C 792.205,413.265 792.539,411.265 793.5,409.5 Z"/></g>
<g><path style="opacity:0.415" fill="#c8c8cd" d="M 1216.5,410.5 C 1217.5,428.659 1217.83,446.992 1217.5,465.5C 1223.17,465.5 1228.83,465.5 1234.5,465.5C 1234.5,447.167 1234.5,428.833 1234.5,410.5C 1235.5,428.993 1235.83,447.659 1235.5,466.5C 1229.17,466.5 1222.83,466.5 1216.5,466.5C 1216.5,447.833 1216.5,429.167 1216.5,410.5 Z"/></g>
<g><path style="opacity:0.396" fill="#c8c8cd" d="M 485.5,412.5 C 486.497,429.992 486.83,447.659 486.5,465.5C 492.167,465.5 497.833,465.5 503.5,465.5C 503.5,447.833 503.5,430.167 503.5,412.5C 504.497,430.326 504.83,448.326 504.5,466.5C 498.167,466.5 491.833,466.5 485.5,466.5C 485.5,448.5 485.5,430.5 485.5,412.5 Z"/></g>
<g><path style="opacity:0.769" fill="#9f9fa8" d="M 834.5,416.5 C 834.027,417.906 833.027,418.573 831.5,418.5C 831.973,417.094 832.973,416.427 834.5,416.5 Z"/></g>
<g><path style="opacity:0.918" fill="#9e9ea7" d="M 546.5,415.5 C 547.537,416.93 548.204,418.597 548.5,420.5C 546.787,419.365 546.12,417.698 546.5,415.5 Z"/></g>
<g><path style="opacity:0.753" fill="#888792" d="M 1052.5,412.5 C 1053.92,414.515 1054.59,416.848 1054.5,419.5C 1053.08,417.485 1052.41,415.152 1052.5,412.5 Z"/></g>
<g><path style="opacity:0.867" fill="#656472" d="M 192.5,416.5 C 192.5,417.5 192.5,418.5 192.5,419.5C 203.167,419.5 213.833,419.5 224.5,419.5C 224.5,418.5 224.5,417.5 224.5,416.5C 225.434,417.568 225.768,418.901 225.5,420.5C 214.167,420.5 202.833,420.5 191.5,420.5C 191.232,418.901 191.566,417.568 192.5,416.5 Z"/></g>
<g><path style="opacity:0.733" fill="#95959f" d="M 148.5,465.5 C 148.833,465.5 149.167,465.5 149.5,465.5C 143.69,466.49 137.69,466.823 131.5,466.5C 131.5,451.167 131.5,435.833 131.5,420.5C 116.167,420.5 100.833,420.5 85.5,420.5C 85.5,435.833 85.5,451.167 85.5,466.5C 79.31,466.823 73.31,466.49 67.5,465.5C 67.8333,465.5 68.1667,465.5 68.5,465.5C 73.8333,465.5 79.1667,465.5 84.5,465.5C 84.5,450.167 84.5,434.833 84.5,419.5C 100.5,419.5 116.5,419.5 132.5,419.5C 132.5,434.833 132.5,450.167 132.5,465.5C 137.833,465.5 143.167,465.5 148.5,465.5 Z"/></g>
<g><path style="opacity:0.291" fill="#d3d3d7" d="M 1077.5,390.5 C 1077.5,415.5 1077.5,440.5 1077.5,465.5C 1083.17,465.5 1088.83,465.5 1094.5,465.5C 1094.17,448.991 1094.5,432.658 1095.5,416.5C 1095.5,433.167 1095.5,449.833 1095.5,466.5C 1089.17,466.5 1082.83,466.5 1076.5,466.5C 1076.17,440.995 1076.5,415.661 1077.5,390.5 Z"/></g>
<g><path style="opacity:0.271" fill="#cfcfd3" d="M 1132.5,390.5 C 1132.5,415.5 1132.5,440.5 1132.5,465.5C 1138.17,465.5 1143.83,465.5 1149.5,465.5C 1149.17,449.325 1149.5,433.325 1150.5,417.5C 1150.5,433.833 1150.5,450.167 1150.5,466.5C 1144.17,466.5 1137.83,466.5 1131.5,466.5C 1131.17,440.995 1131.5,415.661 1132.5,390.5 Z"/></g>
<g><path style="opacity:0.184" fill="#d6d5d9" d="M 1174.5,411.5 C 1175.5,429.326 1175.83,447.326 1175.5,465.5C 1181.17,465.5 1186.83,465.5 1192.5,465.5C 1192.17,448.658 1192.5,431.992 1193.5,415.5C 1193.5,432.5 1193.5,449.5 1193.5,466.5C 1187.17,466.5 1180.83,466.5 1174.5,466.5C 1174.5,448.167 1174.5,429.833 1174.5,411.5 Z"/></g>
<g><path style="opacity:0.941" fill="#858490" d="M 831.5,418.5 C 826.367,421.658 820.7,423.658 814.5,424.5C 819.941,422.129 825.608,420.129 831.5,418.5 Z"/></g>
<g><path style="opacity:0.286" fill="#d1d0d5" d="M 659.5,362.5 C 659.5,396.833 659.5,431.167 659.5,465.5C 665.167,465.5 670.833,465.5 676.5,465.5C 676.171,451.656 676.504,437.99 677.5,424.5C 677.5,438.5 677.5,452.5 677.5,466.5C 671.167,466.5 664.833,466.5 658.5,466.5C 658.168,431.663 658.502,396.996 659.5,362.5 Z"/></g>
<g><path style="opacity:0.365" fill="#b7b7bd" d="M 303.5,439.5 C 303.5,436.833 303.5,434.167 303.5,431.5C 302.5,431.5 301.5,431.5 300.5,431.5C 301.531,430.751 302.698,430.085 304,429.5C 304.808,433.027 304.641,436.36 303.5,439.5 Z"/></g>
<g><path style="opacity:0.745" fill="#a7a6af" d="M 801.5,429.5 C 801.027,430.906 800.027,431.573 798.5,431.5C 798.973,430.094 799.973,429.427 801.5,429.5 Z"/></g>
<g><path style="opacity:0.4" fill="#b2b2b9" d="M 242.5,419.5 C 243.486,423.97 243.819,428.637 243.5,433.5C 226.167,433.5 208.833,433.5 191.5,433.5C 208.325,432.503 225.325,432.17 242.5,432.5C 242.5,428.167 242.5,423.833 242.5,419.5 Z"/></g>
<g><path style="opacity:0.616" fill="#a5a4ad" d="M 797.5,432.5 C 796.833,433.833 795.833,434.833 794.5,435.5C 794.5,433.5 795.5,432.5 797.5,432.5 Z"/></g>
<g><path style="opacity:0.4" fill="#b6b6bd" d="M 241.5,442.5 C 241.5,441.5 241.5,440.5 241.5,439.5C 236.073,439.218 230.74,439.551 225.5,440.5C 230.735,438.55 236.402,437.883 242.5,438.5C 242.768,440.099 242.434,441.432 241.5,442.5 Z"/></g>
<g><path style="opacity:0.267" fill="#b7b7bd" d="M 556.5,434.5 C 556.769,436.429 556.269,438.095 555,439.5C 553.961,438.756 553.461,437.756 553.5,436.5C 554.117,436.611 554.617,436.944 555,437.5C 555.232,436.263 555.732,435.263 556.5,434.5 Z"/></g>
<g><path style="opacity:0.549" fill="#a4a4ac" d="M 194.5,443.5 C 195.906,443.973 196.573,444.973 196.5,446.5C 195.094,446.027 194.427,445.027 194.5,443.5 Z"/></g>
<g><path style="opacity:0.62" fill="#9e9ea8" d="M 223.5,444.5 C 223.573,446.027 222.906,447.027 221.5,447.5C 221.427,445.973 222.094,444.973 223.5,444.5 Z"/></g>
<g><path style="opacity:0.635" fill="#a4a3ac" d="M 298.5,446.5 C 297.738,448.262 296.404,449.262 294.5,449.5C 295.262,447.738 296.596,446.738 298.5,446.5 Z"/></g>
<g><path style="opacity:0.765" fill="#92929c" d="M 1033.5,444.5 C 1032.5,447.5 1030.5,449.5 1027.5,450.5C 1029.17,448.167 1031.17,446.167 1033.5,444.5 Z"/></g>
<g><path style="opacity:0.851" fill="#a09fa7" d="M 276.5,448.5 C 277.833,449.167 278.833,450.167 279.5,451.5C 277.5,451.5 276.5,450.5 276.5,448.5 Z"/></g>
<g><path style="opacity:0.082" fill="#e6e6e9" d="M 328.5,452.5 C 329.209,451.596 330.209,451.263 331.5,451.5C 331.818,456.032 331.485,460.366 330.5,464.5C 331.089,460.029 330.423,456.029 328.5,452.5 Z"/></g>
<g><path style="opacity:0.196" fill="#d3d3d8" d="M 420.5,451.5 C 421.209,450.596 422.209,450.263 423.5,450.5C 423.5,455.5 423.5,460.5 423.5,465.5C 422.5,465.5 421.5,465.5 420.5,465.5C 421.702,463.277 422.369,460.777 422.5,458C 422.467,455.39 421.8,453.223 420.5,451.5 Z"/></g>
<g><path style="opacity:0.816" fill="#74737f" d="M 913.5,451.5 C 913.56,450.957 913.893,450.624 914.5,450.5C 914.833,453 915.167,455.5 915.5,458C 915.475,460.929 914.809,463.429 913.5,465.5C 914.797,460.733 914.797,456.066 913.5,451.5 Z"/></g>
<g><path style="opacity:0.243" fill="#adacb4" d="M 322.5,451.5 C 324.042,452.301 325.708,452.634 327.5,452.5C 326.903,453.139 326.07,453.472 325,453.5C 323.624,453.316 322.791,452.649 322.5,451.5 Z"/></g>
<g><path style="opacity:0.663" fill="#8e8d97" d="M 860.5,452.5 C 861.209,451.596 862.209,451.263 863.5,451.5C 863.818,456.032 863.485,460.366 862.5,464.5C 863.089,460.029 862.423,456.029 860.5,452.5 Z"/></g>
<g><path style="opacity:0.969" fill="#888893" d="M 912.5,451.5 C 911.054,452.94 909.221,453.607 907,453.5C 905.615,453.486 904.449,453.152 903.5,452.5C 906.545,452.492 909.545,452.159 912.5,451.5 Z"/></g>
<g><path style="opacity:0.965" fill="#9f9ea7" d="M 260.5,455.5 C 262.446,456.035 263.446,457.368 263.5,459.5C 262.026,458.564 261.026,457.23 260.5,455.5 Z"/></g>
<g><path style="opacity:0.455" fill="#ccccd0" d="M 305.5,457.5 C 306.623,456.243 307.289,456.576 307.5,458.5C 306.833,458.167 306.167,457.833 305.5,457.5 Z"/></g>
<g><path style="opacity:0.839" fill="#a5a4ac" d="M 994.5,457.5 C 996.404,457.738 997.738,458.738 998.5,460.5C 996.596,460.262 995.262,459.262 994.5,457.5 Z"/></g>
<g><path style="opacity:0.839" fill="#a3a2ab" d="M 185.5,458.5 C 187.404,458.738 188.738,459.738 189.5,461.5C 187.596,461.262 186.262,460.262 185.5,458.5 Z"/></g>
<g><path style="opacity:0.722" fill="#b3b2ba" d="M 886.5,461.5 C 888.404,461.738 889.738,462.738 890.5,464.5C 888.596,464.262 887.262,463.262 886.5,461.5 Z"/></g>
<g><path style="opacity:0.427" fill="#b0afb7" d="M 189.5,461.5 C 191.027,461.427 192.027,462.094 192.5,463.5C 190.973,463.573 189.973,462.906 189.5,461.5 Z"/></g>
<g><path style="opacity:0.561" fill="#a6a5ae" d="M 265.5,461.5 C 267.027,461.427 268.027,462.094 268.5,463.5C 266.973,463.573 265.973,462.906 265.5,461.5 Z"/></g>
<g><path style="opacity:0.329" fill="#c1c1c7" d="M 999.5,461.5 C 1001.03,461.427 1002.03,462.094 1002.5,463.5C 1000.97,463.573 999.973,462.906 999.5,461.5 Z"/></g>
<g><path style="opacity:0.263" fill="#cccbd0" d="M 529.5,480.5 C 527.57,484.373 526.903,488.706 527.5,493.5C 526.514,489.03 526.181,484.363 526.5,479.5C 527.791,479.263 528.791,479.596 529.5,480.5 Z"/></g>
</svg>
