<?xml version="1.0" encoding="UTF-8"?>
<!DOCTYPE svg PUBLIC "-//W3C//DTD SVG 1.1//EN" "http://www.w3.org/Graphics/SVG/1.1/DTD/svg11.dtd">
<svg xmlns="http://www.w3.org/2000/svg" version="1.1" width="1920px" height="689px" style="shape-rendering:geometricPrecision; text-rendering:geometricPrecision; image-rendering:optimizeQuality; fill-rule:evenodd; clip-rule:evenodd" xmlns:xlink="http://www.w3.org/1999/xlink">
<g><path style="opacity:1" fill="#14a7d6" d="M 377.5,48.5 C 377.821,50.0481 378.821,50.7148 380.5,50.5C 392.547,56.274 401.214,65.274 406.5,77.5C 406.631,78.3764 406.298,79.0431 405.5,79.5C 391.587,86.706 377.754,94.0393 364,101.5C 363.329,100.748 362.496,100.414 361.5,100.5C 358.319,96.6599 354.319,93.9932 349.5,92.5C 327.5,91.8333 305.5,91.1667 283.5,90.5C 287.471,78.8909 293.805,68.8909 302.5,60.5C 304.749,59.9202 306.415,58.5869 307.5,56.5C 316.047,49.0648 326.047,44.5648 337.5,43C 351.418,41.0662 364.751,42.8996 377.5,48.5 Z"/></g>
<g><path style="opacity:0.882" fill="#a2d7ed" d="M 377.5,48.5 C 378.71,48.9321 379.71,49.5987 380.5,50.5C 378.821,50.7148 377.821,50.0481 377.5,48.5 Z"/></g>
<g><path style="opacity:0.847" fill="#89cfe9" d="M 307.5,56.5 C 306.415,58.5869 304.749,59.9202 302.5,60.5C 303.585,58.4131 305.251,57.0798 307.5,56.5 Z"/></g>
<g><path style="opacity:1" fill="#0ca8d3" d="M 406.5,77.5 C 414.398,92.5094 421.732,107.843 428.5,123.5C 371.562,153.971 314.562,184.471 257.5,215C 253.121,217.694 248.454,219.527 243.5,220.5C 236.137,220.831 228.803,220.497 221.5,219.5C 234.941,190.953 248.608,162.62 262.5,134.5C 290.931,133.841 319.264,133.175 347.5,132.5C 360.717,129.415 366.55,121.081 365,107.5C 364.347,104.861 363.18,102.527 361.5,100.5C 362.496,100.414 363.329,100.748 364,101.5C 377.754,94.0393 391.587,86.706 405.5,79.5C 406.298,79.0431 406.631,78.3764 406.5,77.5 Z"/></g>
<g><path style="opacity:0.4" fill="#9adbee" d="M 283.5,90.5 C 305.5,91.1667 327.5,91.8333 349.5,92.5C 327.157,92.833 304.823,92.4997 282.5,91.5C 282.624,90.8933 282.957,90.56 283.5,90.5 Z"/></g>
<g><path style="opacity:1" fill="#08aad0" d="M 428.5,123.5 C 430.726,126.945 432.726,130.611 434.5,134.5C 475.222,135.017 515.889,135.85 556.5,137C 570.775,145.851 573.275,157.351 564,171.5C 561.397,174.278 558.23,175.944 554.5,176.5C 521.167,176.5 487.833,176.5 454.5,176.5C 454.263,177.791 454.596,178.791 455.5,179.5C 461.676,191.189 467.343,203.189 472.5,215.5C 472.719,216.675 472.386,217.675 471.5,218.5C 414.659,249.088 357.659,279.421 300.5,309.5C 299.479,308.099 298.479,306.765 297.5,305.5C 294.644,295.484 287.977,289.984 277.5,289C 247.833,288.667 218.167,288.333 188.5,288C 193.025,279.421 197.359,270.754 201.5,262C 216.167,261.667 230.833,261.333 245.5,261C 261.077,256.681 266.244,246.847 261,231.5C 256.765,225.14 250.931,221.473 243.5,220.5C 248.454,219.527 253.121,217.694 257.5,215C 314.562,184.471 371.562,153.971 428.5,123.5 Z"/></g>
<g><path style="opacity:0.4" fill="#99dcee" d="M 347.5,132.5 C 319.264,133.175 290.931,133.841 262.5,134.5C 290.48,132.508 318.814,131.842 347.5,132.5 Z"/></g>
<g><path style="opacity:0.969" fill="#fefefe" d="M 1460.5,247.5 C 1460.5,247.833 1460.5,248.167 1460.5,248.5C 1455.6,253.943 1450.94,259.61 1446.5,265.5C 1444.12,267.884 1442.12,270.55 1440.5,273.5C 1438.86,275.806 1436.86,277.806 1434.5,279.5C 1416.48,274.209 1399.14,267.042 1382.5,258C 1353.48,238.946 1344.31,212.779 1355,179.5C 1360.46,166.417 1369.29,156.25 1381.5,149C 1410.64,134.723 1441.3,130.056 1473.5,135C 1521.73,142.73 1548.06,170.897 1552.5,219.5C 1536.15,219.833 1519.82,219.499 1503.5,218.5C 1498.72,187.759 1480.72,171.759 1449.5,170.5C 1434.92,170.309 1421.58,174.142 1409.5,182C 1399.75,190.585 1396.92,201.085 1401,213.5C 1405.57,222.371 1412.41,228.871 1421.5,233C 1434.11,238.926 1447.11,243.76 1460.5,247.5 Z"/></g>
<g><path style="opacity:0.976" fill="#fefefe" d="M 797.5,139.5 C 815.836,139.333 834.17,139.5 852.5,140C 887.122,226.03 921.456,312.197 955.5,398.5C 938.513,399.499 921.513,399.833 904.5,399.5C 895.191,374.074 885.191,348.907 874.5,324C 841.168,323.5 807.835,323.333 774.5,323.5C 765.432,348.7 755.765,373.7 745.5,398.5C 728.847,399.499 712.18,399.833 695.5,399.5C 728.942,312.616 762.942,225.949 797.5,139.5 Z M 824.5,196.5 C 836.438,226.132 848.104,255.966 859.5,286C 836.502,286.5 813.502,286.667 790.5,286.5C 801.827,256.511 813.16,226.511 824.5,196.5 Z"/></g>
<g><path style="opacity:0.978" fill="#fefefe" d="M 1065.5,139.5 C 1104.5,139.333 1143.5,139.5 1182.5,140C 1214.53,141.257 1239.36,155.09 1257,181.5C 1273.73,216.956 1267.9,248.122 1239.5,275C 1226.77,284.861 1212.44,291.195 1196.5,294C 1168.86,295.419 1141.19,295.919 1113.5,295.5C 1113.5,330.167 1113.5,364.833 1113.5,399.5C 1097.5,399.5 1081.5,399.5 1065.5,399.5C 1065.5,312.833 1065.5,226.167 1065.5,139.5 Z M 1113.5,177.5 C 1133.5,177.333 1153.5,177.5 1173.5,178C 1189.74,178.616 1202.91,185.116 1213,197.5C 1225.17,231.669 1213.33,251.503 1177.5,257C 1156.17,257.5 1134.84,257.667 1113.5,257.5C 1113.5,230.833 1113.5,204.167 1113.5,177.5 Z"/></g>
<g><path style="opacity:0.968" fill="#fefefe" d="M 1638.5,140.5 C 1656.33,139.338 1674.33,139.171 1692.5,140C 1713.14,170.134 1734.14,199.967 1755.5,229.5C 1777,199.829 1798.33,169.996 1819.5,140C 1837.51,139.167 1855.51,139.334 1873.5,140.5C 1843.36,183.805 1813.03,226.972 1782.5,270C 1813.2,312.57 1843.54,355.403 1873.5,398.5C 1855.17,399.833 1836.83,399.833 1818.5,398.5C 1797.86,368.695 1777.03,339.028 1756,309.5C 1734.83,339.333 1713.67,369.167 1692.5,399C 1674.49,399.833 1656.49,399.666 1638.5,398.5C 1668.69,355.471 1698.69,312.305 1728.5,269C 1698.25,226.264 1668.25,183.43 1638.5,140.5 Z"/></g>
<g><path style="opacity:0.733" fill="#4dc3dd" d="M 554.5,176.5 C 521.321,176.835 488.321,177.835 455.5,179.5C 454.596,178.791 454.263,177.791 454.5,176.5C 487.833,176.5 521.167,176.5 554.5,176.5 Z"/></g>
<g><path style="opacity:1" fill="#06adcc" d="M 472.5,215.5 C 480.059,230.286 487.392,245.286 494.5,260.5C 514.492,261.333 534.492,261.833 554.5,262C 565.901,266.623 570.734,275.123 569,287.5C 566.46,295.878 560.96,300.878 552.5,302.5C 539.816,302.168 527.149,302.501 514.5,303.5C 514.624,304.107 514.957,304.44 515.5,304.5C 518.771,310.708 521.771,317.041 524.5,323.5C 524.67,324.822 524.337,325.989 523.5,327C 478.271,351.114 432.938,374.947 387.5,398.5C 360.291,381.8 333.624,382.634 307.5,401C 302.966,405.199 298.799,409.699 295,414.5C 287.136,430.227 279.303,445.894 271.5,461.5C 231.238,481.965 191.238,502.965 151.5,524.5C 150.702,524.043 150.369,523.376 150.5,522.5C 154.064,513.348 152.731,505.015 146.5,497.5C 146.027,496.094 145.027,495.427 143.5,495.5C 140.743,494.488 138.076,493.488 135.5,492.5C 121.167,491.833 106.833,491.167 92.5,490.5C 107.658,457.521 123.324,424.854 139.5,392.5C 139.517,394.028 140.184,394.528 141.5,394C 181.054,373.059 220.388,351.892 259.5,330.5C 266.022,330.823 272.355,330.49 278.5,329.5C 292.047,327.024 298.381,319.024 297.5,305.5C 298.479,306.765 299.479,308.099 300.5,309.5C 357.659,279.421 414.659,249.088 471.5,218.5C 472.386,217.675 472.719,216.675 472.5,215.5 Z"/></g>
<g><path style="opacity:1" fill="#19b1ca" d="M 1483.5,222.5 C 1483.5,247.167 1483.5,271.833 1483.5,296.5C 1481.31,300.207 1478.64,303.54 1475.5,306.5C 1475.83,280.83 1476,255.163 1476,229.5C 1475.62,230.056 1475.12,230.389 1474.5,230.5C 1476.26,227.564 1478.26,224.731 1480.5,222C 1481.58,221.53 1482.58,221.697 1483.5,222.5 Z"/></g>
<g><path style="opacity:1" fill="#12b3c5" d="M 1483.5,222.5 C 1490.17,227.833 1496.83,233.167 1503.5,238.5C 1502.82,249.821 1502.49,261.154 1502.5,272.5C 1496.09,280.236 1490.09,288.236 1484.5,296.5C 1484.17,296.5 1483.83,296.5 1483.5,296.5C 1483.5,271.833 1483.5,247.167 1483.5,222.5 Z"/></g>
<g><path style="opacity:1" fill="#17aecd" d="M 1475.5,306.5 C 1470.87,313.126 1465.87,319.46 1460.5,325.5C 1460.54,299.625 1460.54,273.958 1460.5,248.5C 1460.5,248.167 1460.5,247.833 1460.5,247.5C 1464.46,241.241 1469.13,235.575 1474.5,230.5C 1475.12,230.389 1475.62,230.056 1476,229.5C 1476,255.163 1475.83,280.83 1475.5,306.5 Z"/></g>
<g><path style="opacity:1" fill="#1ab6c2" d="M 1503.5,238.5 C 1505.17,239.833 1506.83,241.167 1508.5,242.5C 1508.97,249.773 1508.97,257.106 1508.5,264.5C 1506.88,267.455 1504.88,270.122 1502.5,272.5C 1502.49,261.154 1502.82,249.821 1503.5,238.5 Z"/></g>
<g><path style="opacity:0.999" fill="#42bfc6" d="M 1508.5,242.5 C 1512.54,245.194 1516.21,248.361 1519.5,252C 1516.85,256.157 1513.85,259.99 1510.5,263.5C 1509.83,263.833 1509.17,264.167 1508.5,264.5C 1508.97,257.106 1508.97,249.773 1508.5,242.5 Z"/></g>
<g><path style="opacity:1" fill="#11abd1" d="M 1460.5,248.5 C 1460.54,273.958 1460.54,299.625 1460.5,325.5C 1458.52,328.98 1456.02,331.98 1453,334.5C 1450.17,332.846 1447.67,330.846 1445.5,328.5C 1446.83,318.355 1447.5,307.855 1447.5,297C 1447.5,286.328 1447.17,275.828 1446.5,265.5C 1450.94,259.61 1455.6,253.943 1460.5,248.5 Z"/></g>
<g><path style="opacity:0.972" fill="#fefefe" d="M 1510.5,263.5 C 1520.27,268.557 1529.61,274.391 1538.5,281C 1555.2,295.762 1562.03,314.262 1559,336.5C 1555.43,362.495 1541.93,381.328 1518.5,393C 1492.56,404.118 1465.56,408.118 1437.5,405C 1393.64,399.452 1363.47,376.286 1347,335.5C 1344.45,326.667 1342.95,317.667 1342.5,308.5C 1359.17,308.5 1375.83,308.5 1392.5,308.5C 1396.43,345.767 1417.1,365.767 1454.5,368.5C 1468.25,368.313 1481.25,365.146 1493.5,359C 1510.2,346.921 1514.7,331.421 1507,312.5C 1500.76,305.305 1493.26,299.972 1484.5,296.5C 1490.09,288.236 1496.09,280.236 1502.5,272.5C 1504.88,270.122 1506.88,267.455 1508.5,264.5C 1509.17,264.167 1509.83,263.833 1510.5,263.5 Z"/></g>
<g><path style="opacity:1" fill="#0ea8d4" d="M 1446.5,265.5 C 1447.17,275.828 1447.5,286.328 1447.5,297C 1447.5,307.855 1446.83,318.355 1445.5,328.5C 1442.89,327.557 1440.89,325.89 1439.5,323.5C 1440.93,313.203 1441.6,302.703 1441.5,292C 1441.5,285.657 1441.17,279.491 1440.5,273.5C 1442.12,270.55 1444.12,267.884 1446.5,265.5 Z"/></g>
<g><path style="opacity:1" fill="#22a8d8" d="M 1440.5,273.5 C 1441.17,279.491 1441.5,285.657 1441.5,292C 1441.6,302.703 1440.93,313.203 1439.5,323.5C 1434.25,320.589 1429.59,316.922 1425.5,312.5C 1425.03,311.094 1424.03,310.427 1422.5,310.5C 1420.09,309.299 1418.09,307.633 1416.5,305.5C 1416.5,304.5 1416.5,303.5 1416.5,302.5C 1422.5,294.833 1428.5,287.167 1434.5,279.5C 1436.86,277.806 1438.86,275.806 1440.5,273.5 Z"/></g>
<g><path style="opacity:0.467" fill="#8ddae7" d="M 552.5,302.5 C 540.167,303.167 527.833,303.833 515.5,304.5C 514.957,304.44 514.624,304.107 514.5,303.5C 527.149,302.501 539.816,302.168 552.5,302.5 Z"/></g>
<g><path style="opacity:0.753" fill="#aadbf2" d="M 1416.5,302.5 C 1416.5,303.5 1416.5,304.5 1416.5,305.5C 1413.83,304.5 1413.83,303.5 1416.5,302.5 Z"/></g>
<g><path style="opacity:0.667" fill="#a9ddf1" d="M 1422.5,310.5 C 1424.03,310.427 1425.03,311.094 1425.5,312.5C 1423.97,312.573 1422.97,311.906 1422.5,310.5 Z"/></g>
<g><path style="opacity:1" fill="#04afc8" d="M 524.5,323.5 C 525.537,324.93 526.204,326.597 526.5,328.5C 556.148,330.492 586.148,331.159 616.5,330.5C 621.316,331.072 624.983,333.405 627.5,337.5C 625.669,339.776 623.336,341.609 620.5,343C 603.342,351.745 586.342,360.745 569.5,370C 561.989,370.171 554.655,370.671 547.5,371.5C 548.773,373.713 549.773,376.046 550.5,378.5C 550.631,379.376 550.298,380.043 549.5,380.5C 504.921,404.039 460.421,427.706 416,451.5C 415.802,449.618 415.302,447.952 414.5,446.5C 411.986,429.472 404.652,414.805 392.5,402.5C 392.027,401.094 391.027,400.427 389.5,400.5C 388.5,400.167 387.833,399.5 387.5,398.5C 432.938,374.947 478.271,351.114 523.5,327C 524.337,325.989 524.67,324.822 524.5,323.5 Z"/></g>
<g><path style="opacity:0.733" fill="#46c1dc" d="M 278.5,329.5 C 272.355,330.49 266.022,330.823 259.5,330.5C 229.093,330.175 198.76,330.508 168.5,331.5C 204.818,329.506 241.485,328.84 278.5,329.5 Z"/></g>
<g><path style="opacity:0.733" fill="#49c5d7" d="M 526.5,328.5 C 556.598,329.159 586.598,329.826 616.5,330.5C 586.148,331.159 556.148,330.492 526.5,328.5 Z"/></g>
<g><path style="opacity:1" fill="#0fabcf" d="M 259.5,330.5 C 220.388,351.892 181.054,373.059 141.5,394C 140.184,394.528 139.517,394.028 139.5,392.5C 148.384,371.734 158.051,351.4 168.5,331.5C 198.76,330.508 229.093,330.175 259.5,330.5 Z"/></g>
<g><path style="opacity:1" fill="#27b4ca" d="M 627.5,337.5 C 635.17,349.68 633.17,360.18 621.5,369C 619.5,369.667 617.5,370.333 615.5,371C 592.836,371.5 570.169,371.667 547.5,371.5C 554.655,370.671 561.989,370.171 569.5,370C 586.342,360.745 603.342,351.745 620.5,343C 623.336,341.609 625.669,339.776 627.5,337.5 Z"/></g>
<g><path style="opacity:1" fill="#06b2c4" d="M 550.5,378.5 C 573.009,424.188 595.009,470.188 616.5,516.5C 616.719,517.675 616.386,518.675 615.5,519.5C 528.946,565.274 442.613,611.274 356.5,657.5C 348.833,657.5 341.167,657.5 333.5,657.5C 311.865,654.851 295.532,644.184 284.5,625.5C 284.715,623.821 284.048,622.821 282.5,622.5C 269.377,587.817 276.377,557.651 303.5,532C 312.604,524.784 322.937,520.284 334.5,518.5C 356.219,520.077 375.552,514.244 392.5,501C 407.748,486.1 415.082,467.934 414.5,446.5C 415.302,447.952 415.802,449.618 416,451.5C 460.421,427.706 504.921,404.039 549.5,380.5C 550.298,380.043 550.631,379.376 550.5,378.5 Z"/></g>
<g><path style="opacity:0.671" fill="#a7e0ea" d="M 389.5,400.5 C 391.027,400.427 392.027,401.094 392.5,402.5C 390.973,402.573 389.973,401.906 389.5,400.5 Z"/></g>
<g><path style="opacity:1" fill="#0aafc9" d="M 271.5,461.5 C 257.676,491.812 243.343,521.812 228.5,551.5C 174.991,579.755 121.324,607.755 67.5,635.5C 59.4758,627.122 54.3091,617.122 52,605.5C 49.4823,592.695 50.649,580.362 55.5,568.5C 54.9426,570.949 54.9426,573.282 55.5,575.5C 82.4346,560.868 109.435,546.535 136.5,532.5C 139.355,531.883 142.022,530.883 144.5,529.5C 147.167,528.833 148.833,527.167 149.5,524.5C 149.328,523.508 149.662,522.842 150.5,522.5C 150.369,523.376 150.702,524.043 151.5,524.5C 191.238,502.965 231.238,481.965 271.5,461.5 Z"/></g>
<g><path style="opacity:0.945" fill="#fefefe" d="M 1585.5,483.5 C 1593.19,482.924 1600.53,484.258 1607.5,487.5C 1608.83,492.5 1608.83,497.5 1607.5,502.5C 1603.4,500.855 1599.23,499.522 1595,498.5C 1593.11,499.13 1591.44,500.13 1590,501.5C 1589.5,505.821 1589.33,510.154 1589.5,514.5C 1594.17,514.5 1598.83,514.5 1603.5,514.5C 1603.5,519.5 1603.5,524.5 1603.5,529.5C 1598.83,529.5 1594.17,529.5 1589.5,529.5C 1589.5,549.833 1589.5,570.167 1589.5,590.5C 1583.5,590.5 1577.5,590.5 1571.5,590.5C 1571.5,570.167 1571.5,549.833 1571.5,529.5C 1567.5,529.5 1563.5,529.5 1559.5,529.5C 1559.5,524.5 1559.5,519.5 1559.5,514.5C 1563.5,514.5 1567.5,514.5 1571.5,514.5C 1571.33,507.825 1571.5,501.158 1572,494.5C 1574.93,488.801 1579.43,485.134 1585.5,483.5 Z"/></g>
<g><path style="opacity:0.916" fill="#fefefe" d="M 699.5,486.5 C 705.833,486.5 712.167,486.5 718.5,486.5C 718.5,500.5 718.5,514.5 718.5,528.5C 733.5,528.5 748.5,528.5 763.5,528.5C 763.5,514.5 763.5,500.5 763.5,486.5C 769.833,486.5 776.167,486.5 782.5,486.5C 782.5,521.167 782.5,555.833 782.5,590.5C 776.167,590.5 769.833,590.5 763.5,590.5C 763.5,575.167 763.5,559.833 763.5,544.5C 748.5,544.5 733.5,544.5 718.5,544.5C 718.5,559.833 718.5,575.167 718.5,590.5C 712.167,590.5 705.833,590.5 699.5,590.5C 699.5,555.833 699.5,521.167 699.5,486.5 Z"/></g>
<g><path style="opacity:0.91" fill="#fefefe" d="M 976.5,486.5 C 982.833,486.5 989.167,486.5 995.5,486.5C 995.5,521.167 995.5,555.833 995.5,590.5C 989.167,590.5 982.833,590.5 976.5,590.5C 976.5,555.833 976.5,521.167 976.5,486.5 Z"/></g>
<g><path style="opacity:0.949" fill="#fefefe" d="M 1072.5,486.5 C 1078.5,486.5 1084.5,486.5 1090.5,486.5C 1090.33,497.838 1090.5,509.172 1091,520.5C 1102.03,511.423 1113.86,510.256 1126.5,517C 1131.69,520.524 1134.86,525.357 1136,531.5C 1136.5,551.164 1136.67,570.831 1136.5,590.5C 1130.5,590.5 1124.5,590.5 1118.5,590.5C 1118.67,573.497 1118.5,556.497 1118,539.5C 1114.67,527.956 1107.84,525.456 1097.5,532C 1094.19,534.778 1092.03,538.278 1091,542.5C 1090.5,558.497 1090.33,574.497 1090.5,590.5C 1084.5,590.5 1078.5,590.5 1072.5,590.5C 1072.5,555.833 1072.5,521.167 1072.5,486.5 Z"/></g>
<g><path style="opacity:0.954" fill="#fefefe" d="M 1291.5,486.5 C 1309.22,486.055 1326.89,486.555 1344.5,488C 1362.7,496.244 1369.2,510.077 1364,529.5C 1359.51,539.329 1352.01,545.495 1341.5,548C 1330.84,548.5 1320.17,548.667 1309.5,548.5C 1309.5,562.5 1309.5,576.5 1309.5,590.5C 1303.5,590.5 1297.5,590.5 1291.5,590.5C 1291.5,555.833 1291.5,521.167 1291.5,486.5 Z M 1309.5,501.5 C 1318.55,501.236 1327.55,501.736 1336.5,503C 1346.91,507.333 1350.08,514.833 1346,525.5C 1343.74,528.433 1340.9,530.6 1337.5,532C 1328.22,533.353 1318.89,533.853 1309.5,533.5C 1309.5,522.833 1309.5,512.167 1309.5,501.5 Z"/></g>
<g><path style="opacity:0.91" fill="#fefefe" d="M 1386.5,486.5 C 1392.83,486.5 1399.17,486.5 1405.5,486.5C 1405.5,521.167 1405.5,555.833 1405.5,590.5C 1399.17,590.5 1392.83,590.5 1386.5,590.5C 1386.5,555.833 1386.5,521.167 1386.5,486.5 Z"/></g>
<g><path style="opacity:0.733" fill="#4bc4da" d="M 92.5,490.5 C 106.833,491.167 121.167,491.833 135.5,492.5C 120.818,492.833 106.152,492.499 91.5,491.5C 91.6236,490.893 91.9569,490.56 92.5,490.5 Z"/></g>
<g><path style="opacity:0.928" fill="#fefefe" d="M 1021.5,493.5 C 1027.83,493.5 1034.17,493.5 1040.5,493.5C 1040.5,500.5 1040.5,507.5 1040.5,514.5C 1045.17,514.5 1049.83,514.5 1054.5,514.5C 1054.5,519.5 1054.5,524.5 1054.5,529.5C 1049.83,529.5 1045.17,529.5 1040.5,529.5C 1040.33,544.17 1040.5,558.837 1041,573.5C 1045.09,576.991 1049.59,577.324 1054.5,574.5C 1055.49,579.456 1055.83,584.456 1055.5,589.5C 1048.61,591.326 1041.61,591.826 1034.5,591C 1027.15,588.497 1022.98,583.33 1022,575.5C 1021.5,560.17 1021.33,544.837 1021.5,529.5C 1018.17,529.5 1014.83,529.5 1011.5,529.5C 1011.5,524.5 1011.5,519.5 1011.5,514.5C 1014.83,514.5 1018.17,514.5 1021.5,514.5C 1021.5,507.5 1021.5,500.5 1021.5,493.5 Z"/></g>
<g><path style="opacity:0.925" fill="#fefefe" d="M 1514.5,493.5 C 1520.83,493.5 1527.17,493.5 1533.5,493.5C 1533.5,500.5 1533.5,507.5 1533.5,514.5C 1537.83,514.5 1542.17,514.5 1546.5,514.5C 1546.5,519.5 1546.5,524.5 1546.5,529.5C 1542.17,529.5 1537.83,529.5 1533.5,529.5C 1533.33,544.17 1533.5,558.837 1534,573.5C 1534.76,575.91 1536.42,576.91 1539,576.5C 1542.2,575.932 1545.37,575.265 1548.5,574.5C 1548.5,579.5 1548.5,584.5 1548.5,589.5C 1541.28,591.348 1533.94,591.848 1526.5,591C 1520.51,588.341 1516.67,583.841 1515,577.5C 1514.5,561.503 1514.33,545.503 1514.5,529.5C 1510.83,529.5 1507.17,529.5 1503.5,529.5C 1503.5,524.5 1503.5,519.5 1503.5,514.5C 1507.17,514.5 1510.83,514.5 1514.5,514.5C 1514.5,507.5 1514.5,500.5 1514.5,493.5 Z"/></g>
<g><path style="opacity:0.71" fill="#a2dee9" d="M 143.5,495.5 C 145.027,495.427 146.027,496.094 146.5,497.5C 144.973,497.573 143.973,496.906 143.5,495.5 Z"/></g>
<g><path style="opacity:0.931" fill="#fefefe" d="M 836.5,512.5 C 855.035,511.337 867.535,519.337 874,536.5C 875.339,543.426 875.839,550.426 875.5,557.5C 858.5,557.5 841.5,557.5 824.5,557.5C 826.984,573.196 835.651,578.696 850.5,574C 854.145,571.042 856.812,567.375 858.5,563C 864.196,562.17 869.863,562.337 875.5,563.5C 866.757,588.591 849.757,596.758 824.5,588C 809.212,577.175 803.045,562.342 806,543.5C 809.712,526.623 819.878,516.29 836.5,512.5 Z M 836.5,528.5 C 847.695,527.42 854.695,532.254 857.5,543C 846.505,543.5 835.505,543.667 824.5,543.5C 825.903,536.332 829.903,531.332 836.5,528.5 Z"/></g>
<g><path style="opacity:0.928" fill="#fefefe" d="M 918.5,512.5 C 930.605,511.147 941.105,514.481 950,522.5C 952.146,525.126 953.479,528.126 954,531.5C 954.333,545.833 954.667,560.167 955,574.5C 955.674,575.578 956.674,576.245 958,576.5C 959.825,576.057 961.658,575.723 963.5,575.5C 963.666,579.846 963.499,584.179 963,588.5C 952.403,594.367 944.236,592.034 938.5,581.5C 927.342,592.171 914.675,594.337 900.5,588C 890.044,579.971 887.878,570.138 894,558.5C 897.293,555.213 901.127,552.713 905.5,551C 915.778,548.133 925.611,544.3 935,539.5C 936.665,536.437 936.165,533.604 933.5,531C 922.836,525.603 915.169,528.27 910.5,539C 904.509,539.499 898.509,539.666 892.5,539.5C 892.387,530.434 896.054,523.268 903.5,518C 908.434,515.637 913.434,513.804 918.5,512.5 Z M 935.5,554.5 C 936.634,556.966 936.801,559.633 936,562.5C 932.153,570.586 925.82,575.252 917,576.5C 911.751,576.419 908.918,573.752 908.5,568.5C 909.219,566.272 910.552,564.439 912.5,563C 920.161,559.839 927.827,557.006 935.5,554.5 Z"/></g>
<g><path style="opacity:0.922" fill="#fefefe" d="M 1451.5,512.5 C 1462.91,511.559 1473.08,514.559 1482,521.5C 1484.77,525.035 1486.43,529.035 1487,533.5C 1487.33,547.5 1487.67,561.5 1488,575.5C 1490.77,576.523 1493.61,576.523 1496.5,575.5C 1496.67,579.846 1496.5,584.179 1496,588.5C 1485.25,594.34 1476.91,592.006 1471,581.5C 1461.64,591.284 1450.47,594.117 1437.5,590C 1424.21,583.453 1420.37,573.286 1426,559.5C 1427.87,557.291 1430.04,555.458 1432.5,554C 1441.2,549.906 1450.2,546.573 1459.5,544C 1462.76,542.789 1465.59,540.956 1468,538.5C 1468,531.504 1464.33,528.171 1457,528.5C 1450.1,528.566 1445.6,531.9 1443.5,538.5C 1437.17,539.833 1430.83,539.833 1424.5,538.5C 1427,522.999 1436,514.332 1451.5,512.5 Z M 1465.5,555.5 C 1466.5,555.5 1467.5,555.5 1468.5,555.5C 1468.25,567.589 1462.08,574.589 1450,576.5C 1442.5,575.503 1440.17,571.503 1443,564.5C 1444.25,563.789 1445.42,562.956 1446.5,562C 1452.89,559.662 1459.23,557.495 1465.5,555.5 Z"/></g>
<g><path style="opacity:0.931" fill="#fefefe" d="M 1646.5,512.5 C 1675.65,513.156 1689.48,528.156 1688,557.5C 1684.25,583.299 1669.42,594.466 1643.5,591C 1628.72,586.552 1619.89,576.719 1617,561.5C 1614.96,549.421 1616.96,538.088 1623,527.5C 1628.87,519.322 1636.7,514.322 1646.5,512.5 Z M 1648.5,528.5 C 1659.94,528.432 1666.78,534.098 1669,545.5C 1670.49,554.005 1669.16,562.005 1665,569.5C 1656.03,579.01 1647.36,578.677 1639,568.5C 1632.46,555.564 1633.63,543.397 1642.5,532C 1644.43,530.541 1646.43,529.375 1648.5,528.5 Z"/></g>
<g><path style="opacity:0.938" fill="#fefefe" d="M 1737.5,512.5 C 1742.45,512.237 1747.11,513.237 1751.5,515.5C 1752.66,521.137 1752.83,526.804 1752,532.5C 1739.27,526.201 1731.27,529.867 1728,543.5C 1727.5,559.163 1727.33,574.83 1727.5,590.5C 1721.5,590.5 1715.5,590.5 1709.5,590.5C 1709.5,565.167 1709.5,539.833 1709.5,514.5C 1714.21,514.173 1718.88,514.507 1723.5,515.5C 1724.43,517.795 1725.27,520.129 1726,522.5C 1728.82,517.839 1732.65,514.505 1737.5,512.5 Z"/></g>
<g><path style="opacity:0.938" fill="#fefefe" d="M 1797.5,512.5 C 1807.95,511.808 1815.45,516.141 1820,525.5C 1828.5,513.583 1839.66,510.083 1853.5,515C 1862.84,520.012 1867.67,527.846 1868,538.5C 1868.5,555.83 1868.67,573.163 1868.5,590.5C 1862.17,590.5 1855.83,590.5 1849.5,590.5C 1849.67,572.164 1849.5,553.83 1849,535.5C 1845.28,528.052 1839.78,526.552 1832.5,531C 1828.91,534.016 1826.74,537.849 1826,542.5C 1825.5,558.497 1825.33,574.497 1825.5,590.5C 1819.5,590.5 1813.5,590.5 1807.5,590.5C 1807.67,572.497 1807.5,554.497 1807,536.5C 1806.17,531.34 1803.17,528.673 1798,528.5C 1791.31,529.521 1786.64,533.188 1784,539.5C 1782.56,556.444 1782.06,573.444 1782.5,590.5C 1776.5,590.5 1770.5,590.5 1764.5,590.5C 1764.5,565.167 1764.5,539.833 1764.5,514.5C 1770.5,514.5 1776.5,514.5 1782.5,514.5C 1782.34,516.857 1782.5,519.19 1783,521.5C 1787.05,517.066 1791.89,514.066 1797.5,512.5 Z"/></g>
<g><path style="opacity:0.933" fill="#fefefe" d="M 1151.5,514.5 C 1158.09,514.189 1164.59,514.522 1171,515.5C 1176.33,530.833 1181.67,546.167 1187,561.5C 1192.76,546.304 1198.26,530.971 1203.5,515.5C 1209.83,514.167 1216.17,514.167 1222.5,515.5C 1211.9,545.462 1201.4,575.462 1191,605.5C 1184.47,619.604 1174.14,623.604 1160,617.5C 1159.5,612.845 1159.33,608.179 1159.5,603.5C 1162.03,604.011 1164.53,604.678 1167,605.5C 1168.63,605.375 1170.13,604.875 1171.5,604C 1174.29,598.98 1176.29,593.647 1177.5,588C 1168.93,563.44 1160.26,538.94 1151.5,514.5 Z"/></g>
<g><path style="opacity:1" fill="#06b5c0" d="M 616.5,516.5 C 617.725,517.937 618.725,519.604 619.5,521.5C 636.528,522.089 653.528,522.922 670.5,524C 675.906,525.906 679.906,529.406 682.5,534.5C 682.762,535.978 682.429,537.311 681.5,538.5C 607.167,578 532.833,617.5 458.5,657C 424.502,657.5 390.502,657.667 356.5,657.5C 442.613,611.274 528.946,565.274 615.5,519.5C 616.386,518.675 616.719,517.675 616.5,516.5 Z"/></g>
<g><path style="opacity:0.725" fill="#8ed6e4" d="M 149.5,524.5 C 148.833,527.167 147.167,528.833 144.5,529.5C 145.833,527.5 147.5,525.833 149.5,524.5 Z"/></g>
<g><path style="opacity:1" fill="#2cb2cd" d="M 136.5,532.5 C 109.435,546.535 82.4346,560.868 55.5,575.5C 54.9426,573.282 54.9426,570.949 55.5,568.5C 60.5477,556.736 65.881,545.069 71.5,533.5C 93.1564,532.5 114.823,532.167 136.5,532.5 Z"/></g>
<g><path style="opacity:1" fill="#14b7c0" d="M 682.5,534.5 C 686.928,545.317 684.595,554.483 675.5,562C 672.794,563.908 669.794,564.741 666.5,564.5C 657.475,564.168 648.475,564.502 639.5,565.5C 639.624,566.107 639.957,566.44 640.5,566.5C 651.205,596.513 644.872,622.346 621.5,644C 611.778,651.577 600.778,656.244 588.5,658C 503.332,658.832 418.332,658.666 333.5,657.5C 341.167,657.5 348.833,657.5 356.5,657.5C 390.502,657.667 424.502,657.5 458.5,657C 532.833,617.5 607.167,578 681.5,538.5C 682.429,537.311 682.762,535.978 682.5,534.5 Z"/></g>
<g><path style="opacity:1" fill="#15b2c7" d="M 228.5,551.5 C 217.285,576.265 205.785,600.932 194,625.5C 182.558,643.926 166.058,654.759 144.5,658C 132.5,658.667 120.5,658.667 108.5,658C 91.7953,655.655 78.1287,648.155 67.5,635.5C 121.324,607.755 174.991,579.755 228.5,551.5 Z"/></g>
<g><path style="opacity:0.2" fill="#cdf0f2" d="M 666.5,564.5 C 657.833,565.167 649.167,565.833 640.5,566.5C 639.957,566.44 639.624,566.107 639.5,565.5C 648.475,564.502 657.475,564.168 666.5,564.5 Z"/></g>
<g><path style="opacity:0.847" fill="#a6e0e6" d="M 282.5,622.5 C 284.048,622.821 284.715,623.821 284.5,625.5C 283.599,624.71 282.932,623.71 282.5,622.5 Z"/></g>
</svg>
