<svg width="186" height="38" viewBox="0 0 186 38" fill="none" xmlns="http://www.w3.org/2000/svg">
<path d="M0 11.252H18.6109V14.7901H4.52888V22.928H17.1248V26.3954H4.52888V34.5332H18.6109V38.0006H0V11.252Z" fill="url(#paint0_linear_432_28536)"/>
<path d="M31.1361 24.6971L21.7953 11.252H27.0318L33.8251 21.1589L40.6892 11.252H45.9257L36.5849 24.6971L46.138 38.0006H40.8307L33.8251 28.2352L26.8903 38.0006H21.583L31.1361 24.6971Z" fill="url(#paint1_linear_432_28536)"/>
<path fill-rule="evenodd" clip-rule="evenodd" d="M59.3706 11.252H64.3948L74.5848 38.0006H69.9144L67.2254 31.1366H56.4693L53.851 38.0006H49.1099L59.3706 11.252ZM66.5177 27.6691L61.9181 15.3562L57.2477 27.6691H66.5177Z" fill="url(#paint2_linear_432_28536)"/>
<path d="M88.5962 11.252H93.2666L101.758 28.5891L110.179 11.252H114.85V38.0006H110.321V18.6114L103.103 33.401H100.343L93.0543 18.6114V38.0006H88.5962V11.252Z" fill="url(#paint3_linear_432_28536)"/>
<path d="M120.085 11.252H138.696V14.7901H124.614V22.928H137.14V26.3954H124.614V34.5332H138.696V38.0006H120.085V11.252Z" fill="url(#paint4_linear_432_28536)"/>
<path fill-rule="evenodd" clip-rule="evenodd" d="M142.942 11.252H153.769C157.779 11.252 160.728 12.3134 162.615 14.4363C164.502 16.6064 165.445 20.0738 165.445 24.8386C165.445 29.3675 164.502 32.6934 162.615 34.8163C160.728 36.9392 157.779 38.0006 153.769 38.0006H142.942V11.252ZM153.062 34.5332C154.901 34.5332 156.387 34.2737 157.52 33.7548C158.652 33.1887 159.501 32.198 160.067 30.7827C160.633 29.3675 160.916 27.3861 160.916 24.8386C160.916 22.2439 160.657 20.2154 160.138 18.7529C159.572 17.2905 158.746 16.2762 157.661 15.7101C156.529 15.0968 154.996 14.7901 153.062 14.7901H147.471V34.5332H153.062Z" fill="url(#paint5_linear_432_28536)"/>
<path d="M176.273 26.5369H170.116V22.9988H176.273V16.9131H179.882V22.9988H185.967V26.5369H179.882V32.4103H176.273V26.5369Z" fill="url(#paint6_linear_432_28536)"/>
<path d="M0 11.252H18.6109V14.7901H4.52888V22.928H17.1248V26.3954H4.52888V34.5332H18.6109V38.0006H0V11.252Z" fill="#F73ABB"/>
<path d="M31.1361 24.6971L21.7953 11.252H27.0318L33.8251 21.1589L40.6892 11.252H45.9257L36.5849 24.6971L46.138 38.0006H40.8307L33.8251 28.2352L26.8903 38.0006H21.583L31.1361 24.6971Z" fill="#F73ABB"/>
<path fill-rule="evenodd" clip-rule="evenodd" d="M59.3706 11.252H64.3948L74.5848 38.0006H69.9144L67.2254 31.1366H56.4693L53.851 38.0006H49.1099L59.3706 11.252ZM66.5177 27.6691L61.9181 15.3562L57.2477 27.6691H66.5177Z" fill="#F73ABB"/>
<path d="M88.5962 11.252H93.2666L101.758 28.5891L110.179 11.252H114.85V38.0006H110.321V18.6114L103.103 33.401H100.343L93.0543 18.6114V38.0006H88.5962V11.252Z" fill="#545457"/>
<path d="M120.085 11.252H138.696V14.7901H124.614V22.928H137.14V26.3954H124.614V34.5332H138.696V38.0006H120.085V11.252Z" fill="#545457"/>
<path fill-rule="evenodd" clip-rule="evenodd" d="M142.942 11.252H153.769C157.779 11.252 160.728 12.3134 162.615 14.4363C164.502 16.6064 165.445 20.0738 165.445 24.8386C165.445 29.3675 164.502 32.6934 162.615 34.8163C160.728 36.9392 157.779 38.0006 153.769 38.0006H142.942V11.252ZM153.062 34.5332C154.901 34.5332 156.387 34.2737 157.52 33.7548C158.652 33.1887 159.501 32.198 160.067 30.7827C160.633 29.3675 160.916 27.3861 160.916 24.8386C160.916 22.2439 160.657 20.2154 160.138 18.7529C159.572 17.2905 158.746 16.2762 157.661 15.7101C156.529 15.0968 154.996 14.7901 153.062 14.7901H147.471V34.5332H153.062Z" fill="#545457"/>
<path d="M176.273 26.5369H170.116V22.9988H176.273V16.9131H179.882V22.9988H185.967V26.5369H179.882V32.4103H176.273V26.5369Z" fill="#545457"/>
<path d="M143.438 6.43895V2.68848H144.429V6.22666C144.429 6.36819 144.452 6.46254 144.499 6.50972C144.547 6.60407 144.641 6.65124 144.782 6.65124H145.207V7.35888H144.358C143.745 7.35888 143.438 7.05224 143.438 6.43895Z" fill="url(#paint7_linear_432_28536)"/>
<path d="M146.835 7.35933C146.504 7.31216 146.221 7.21781 145.985 7.07628V4.74108H147.825L147.896 5.44871H146.905V6.58093C147.141 6.67528 147.448 6.72246 147.825 6.72246C148.155 6.72246 148.438 6.67528 148.674 6.58093C148.863 6.4394 149.005 6.2507 149.099 6.01482C149.193 5.77894 149.24 5.4723 149.24 5.09489C149.24 4.62314 149.193 4.26932 149.099 4.03344C148.957 3.79756 148.792 3.63244 148.604 3.53809C148.368 3.44374 148.037 3.39657 147.613 3.39657C147.047 3.39657 146.528 3.46733 146.056 3.60886V2.90122C146.292 2.80687 146.575 2.7361 146.905 2.68893C147.188 2.64175 147.495 2.61816 147.825 2.61816C148.627 2.61816 149.217 2.83046 149.594 3.25504C149.972 3.63244 150.16 4.24573 150.16 5.09489C150.16 5.84971 149.972 6.4394 149.594 6.86399C149.217 7.24139 148.627 7.4301 147.825 7.4301C147.495 7.4301 147.165 7.40651 146.835 7.35933Z" fill="url(#paint8_linear_432_28536)"/>
<path d="M146.622 1.76909C146.433 1.58039 146.339 1.34451 146.339 1.06146C146.339 0.731225 146.433 0.471758 146.622 0.283055C146.858 0.0943513 147.141 0 147.471 0H149.594V0.566109H147.542C147.353 0.566109 147.212 0.589697 147.117 0.636873C147.023 0.731225 146.976 0.872752 146.976 1.06146C146.976 1.34451 147.141 1.48604 147.471 1.48604C147.801 1.48604 147.966 1.3681 147.966 1.13222V0.919928H148.533V1.13222C148.533 1.22657 148.556 1.32092 148.603 1.41527C148.698 1.46245 148.792 1.48604 148.886 1.48604H149.452V1.98138H148.886C148.698 1.98138 148.556 1.95779 148.462 1.91062C148.367 1.86344 148.297 1.81627 148.249 1.76909C148.202 1.81627 148.084 1.88703 147.896 1.98138C147.754 2.02856 147.589 2.05215 147.4 2.05215C147.07 2.05215 146.811 1.9578 146.622 1.76909Z" fill="url(#paint9_linear_432_28536)"/>
<path d="M151.15 5.661C151.15 5.09489 151.363 4.74108 151.787 4.59955L150.867 4.38726V3.39657C151.15 3.20786 151.48 3.01916 151.858 2.83046C152.235 2.68893 152.66 2.61816 153.132 2.61816C153.839 2.61816 154.358 2.75969 154.688 3.04275C155.066 3.37298 155.255 3.84474 155.255 4.45802V7.35933H154.264V4.45802C154.264 4.08061 154.193 3.79756 154.052 3.60886C153.863 3.46733 153.533 3.39657 153.061 3.39657C152.778 3.39657 152.518 3.44374 152.282 3.53809C152.047 3.58527 151.858 3.67962 151.716 3.82115V3.96268L152.636 4.24573V4.8826C152.448 4.92978 152.306 5.00054 152.212 5.09489C152.117 5.23642 152.07 5.44871 152.07 5.73177V7.35933H151.15V5.661Z" fill="url(#paint10_linear_432_28536)"/>
<path d="M156.741 7.00551C156.411 6.72246 156.246 6.32146 156.246 5.80253V5.44871C156.246 5.26001 156.293 5.07131 156.388 4.8826C156.529 4.6939 156.694 4.48161 156.883 4.24573C157.024 4.05703 157.119 3.9155 157.166 3.82115C157.213 3.7268 157.237 3.65603 157.237 3.60886C157.237 3.46733 157.19 3.39657 157.095 3.39657C156.954 3.39657 156.859 3.44374 156.812 3.53809V3.89191H156.175V2.68893H156.812V2.97198C156.907 2.87763 157.001 2.80687 157.095 2.75969C157.19 2.71252 157.308 2.68893 157.449 2.68893C157.685 2.68893 157.85 2.75969 157.944 2.90122C158.039 2.99557 158.086 3.16069 158.086 3.39657C158.086 3.58527 158.062 3.75038 158.015 3.89191C157.921 4.03344 157.803 4.22214 157.661 4.45802C157.473 4.64672 157.355 4.81184 157.308 4.95337C157.213 5.09489 157.166 5.26001 157.166 5.44871V5.80253C157.166 6.08559 157.26 6.32146 157.449 6.51017C157.638 6.6517 157.897 6.72246 158.227 6.72246C158.935 6.72246 159.289 6.39223 159.289 5.73177V5.16566C159.289 4.92978 159.242 4.74108 159.147 4.59955C159.053 4.5052 158.911 4.45802 158.723 4.45802H158.44L158.51 3.82115H158.652C158.888 3.82115 159.053 3.75038 159.147 3.60886C159.242 3.51451 159.289 3.3258 159.289 3.04275V2.61816H160.28V3.04275C160.28 3.3258 160.232 3.56168 160.138 3.75038C160.044 3.89191 159.879 4.00985 159.643 4.1042C159.879 4.24573 160.044 4.38726 160.138 4.52878C160.232 4.71749 160.28 4.95337 160.28 5.23642V5.73177C160.28 6.2507 160.091 6.67528 159.713 7.00551C159.383 7.28857 158.888 7.4301 158.227 7.4301C157.614 7.4301 157.119 7.28857 156.741 7.00551Z" fill="url(#paint11_linear_432_28536)"/>
<path d="M158.227 0.77832H160.704V1.41519H159.005V1.9813H158.227V0.77832Z" fill="url(#paint12_linear_432_28536)"/>
<path d="M161.766 7.00551C161.436 6.72246 161.27 6.32146 161.27 5.80253V5.44871C161.27 5.26001 161.318 5.07131 161.412 4.8826C161.553 4.6939 161.719 4.48161 161.907 4.24573C162.002 4.05703 162.096 3.9155 162.19 3.82115C162.238 3.7268 162.261 3.65603 162.261 3.60886C162.261 3.46733 162.19 3.39657 162.049 3.39657C161.954 3.39657 161.86 3.44374 161.766 3.53809V3.89191H161.129V2.68893H161.837V2.97198C161.931 2.87763 162.025 2.80687 162.12 2.75969C162.214 2.71252 162.332 2.68893 162.473 2.68893C162.662 2.68893 162.827 2.75969 162.969 2.90122C163.063 2.99557 163.11 3.16069 163.11 3.39657C163.11 3.58527 163.063 3.75038 162.969 3.89191C162.922 4.03344 162.804 4.22214 162.615 4.45802C162.473 4.64672 162.379 4.81184 162.332 4.95337C162.238 5.09489 162.19 5.26001 162.19 5.44871V5.80253C162.19 6.08559 162.285 6.32146 162.473 6.51017C162.662 6.6517 162.922 6.72246 163.252 6.72246C163.959 6.72246 164.313 6.39223 164.313 5.73177V5.16566C164.313 4.92978 164.266 4.74108 164.172 4.59955C164.077 4.5052 163.912 4.45802 163.676 4.45802H163.464L163.535 3.82115H163.676C163.912 3.82115 164.077 3.75038 164.172 3.60886C164.266 3.51451 164.313 3.3258 164.313 3.04275V2.61816H165.233V3.04275C165.233 3.3258 165.21 3.56168 165.162 3.75038C165.068 3.89191 164.903 4.00985 164.667 4.1042C164.903 4.24573 165.068 4.38726 165.162 4.52878C165.21 4.71749 165.233 4.95337 165.233 5.23642V5.73177C165.233 6.2507 165.068 6.67528 164.738 7.00551C164.36 7.28857 163.865 7.4301 163.252 7.4301C162.591 7.4301 162.096 7.28857 161.766 7.00551Z" fill="url(#paint13_linear_432_28536)"/>
<path d="M164.313 0.56543H165.233V1.9807H164.313V0.56543Z" fill="url(#paint14_linear_432_28536)"/>
<path d="M168.134 4.45802C168.134 4.17497 168.11 3.96268 168.063 3.82115C167.969 3.67962 167.851 3.58527 167.709 3.53809C167.568 3.44374 167.355 3.39657 167.072 3.39657C166.931 3.39657 166.742 3.42015 166.506 3.46733C166.27 3.5145 166.081 3.56168 165.94 3.60886V2.90122C166.081 2.80687 166.294 2.7361 166.577 2.68893C166.813 2.64175 167.049 2.61816 167.284 2.61816C167.898 2.61816 168.346 2.75969 168.629 3.04275C168.912 3.3258 169.054 3.75038 169.054 4.31649V7.35933H168.134V4.45802Z" fill="url(#paint15_linear_432_28536)"/>
<path d="M173.371 6.43895V2.68848H174.291V6.22666C174.291 6.36819 174.315 6.46254 174.362 6.50972C174.409 6.60407 174.503 6.65124 174.645 6.65124H175.069V7.35888H174.22C173.654 7.35888 173.371 7.05224 173.371 6.43895Z" fill="url(#paint16_linear_432_28536)"/>
<path d="M177.617 7.28812C177.334 7.19377 177.098 7.05224 176.909 6.86353L176.838 7.35888H175.989V2.68848H176.909V6.1559C177.051 6.29743 177.239 6.43895 177.475 6.58048C177.711 6.67483 177.947 6.72201 178.183 6.72201C178.513 6.72201 178.749 6.62766 178.891 6.43895C179.079 6.29743 179.174 6.06155 179.174 5.73132V2.68848H180.094V5.73132C180.094 6.29743 179.952 6.72201 179.669 7.00506C179.386 7.28812 179.009 7.42965 178.537 7.42965C178.159 7.42965 177.853 7.38247 177.617 7.28812Z" fill="url(#paint17_linear_432_28536)"/>
<path d="M181.509 6.86399C181.178 6.48658 181.013 5.89688 181.013 5.09489C181.013 4.34008 181.202 3.7268 181.579 3.25504C182.004 2.83046 182.617 2.61816 183.419 2.61816C183.891 2.61816 184.292 2.71252 184.622 2.90122C185 3.08992 185.259 3.3258 185.401 3.60886C185.542 3.89191 185.613 4.19855 185.613 4.52878V7.35933H184.693V4.59955C184.693 4.22214 184.599 3.9155 184.41 3.67962C184.174 3.49092 183.82 3.39657 183.348 3.39657C182.877 3.39657 182.523 3.53809 182.287 3.82115C182.051 4.1042 181.933 4.52878 181.933 5.09489C181.933 5.661 182.027 6.08559 182.216 6.36864C182.405 6.60452 182.688 6.72246 183.065 6.72246C183.348 6.72246 183.561 6.69887 183.702 6.6517V7.35933C183.466 7.40651 183.207 7.4301 182.924 7.4301C182.358 7.4301 181.886 7.24139 181.509 6.86399Z" fill="url(#paint18_linear_432_28536)"/>
<path d="M143.438 6.43895V2.68848H144.429V6.22666C144.429 6.36819 144.452 6.46254 144.499 6.50972C144.547 6.60407 144.641 6.65124 144.782 6.65124H145.207V7.35888H144.358C143.745 7.35888 143.438 7.05224 143.438 6.43895Z" fill="#545457"/>
<path d="M146.835 7.35933C146.504 7.31216 146.221 7.21781 145.985 7.07628V4.74108H147.825L147.896 5.44871H146.905V6.58093C147.141 6.67528 147.448 6.72246 147.825 6.72246C148.155 6.72246 148.438 6.67528 148.674 6.58093C148.863 6.4394 149.005 6.2507 149.099 6.01482C149.193 5.77894 149.24 5.4723 149.24 5.09489C149.24 4.62314 149.193 4.26932 149.099 4.03344C148.957 3.79756 148.792 3.63244 148.604 3.53809C148.368 3.44374 148.037 3.39657 147.613 3.39657C147.047 3.39657 146.528 3.46733 146.056 3.60886V2.90122C146.292 2.80687 146.575 2.7361 146.905 2.68893C147.188 2.64175 147.495 2.61816 147.825 2.61816C148.627 2.61816 149.217 2.83046 149.594 3.25504C149.972 3.63244 150.16 4.24573 150.16 5.09489C150.16 5.84971 149.972 6.4394 149.594 6.86399C149.217 7.24139 148.627 7.4301 147.825 7.4301C147.495 7.4301 147.165 7.40651 146.835 7.35933Z" fill="#545457"/>
<path d="M146.622 1.76909C146.433 1.58039 146.339 1.34451 146.339 1.06146C146.339 0.731225 146.433 0.471758 146.622 0.283055C146.858 0.0943513 147.141 0 147.471 0H149.594V0.566109H147.542C147.353 0.566109 147.212 0.589697 147.117 0.636873C147.023 0.731225 146.976 0.872752 146.976 1.06146C146.976 1.34451 147.141 1.48604 147.471 1.48604C147.801 1.48604 147.966 1.3681 147.966 1.13222V0.919928H148.533V1.13222C148.533 1.22657 148.556 1.32092 148.603 1.41527C148.698 1.46245 148.792 1.48604 148.886 1.48604H149.452V1.98138H148.886C148.698 1.98138 148.556 1.95779 148.462 1.91062C148.367 1.86344 148.297 1.81627 148.249 1.76909C148.202 1.81627 148.084 1.88703 147.896 1.98138C147.754 2.02856 147.589 2.05215 147.4 2.05215C147.07 2.05215 146.811 1.9578 146.622 1.76909Z" fill="#545457"/>
<path d="M151.15 5.661C151.15 5.09489 151.363 4.74108 151.787 4.59955L150.867 4.38726V3.39657C151.15 3.20786 151.48 3.01916 151.858 2.83046C152.235 2.68893 152.66 2.61816 153.132 2.61816C153.839 2.61816 154.358 2.75969 154.688 3.04275C155.066 3.37298 155.255 3.84474 155.255 4.45802V7.35933H154.264V4.45802C154.264 4.08061 154.193 3.79756 154.052 3.60886C153.863 3.46733 153.533 3.39657 153.061 3.39657C152.778 3.39657 152.518 3.44374 152.282 3.53809C152.047 3.58527 151.858 3.67962 151.716 3.82115V3.96268L152.636 4.24573V4.8826C152.448 4.92978 152.306 5.00054 152.212 5.09489C152.117 5.23642 152.07 5.44871 152.07 5.73177V7.35933H151.15V5.661Z" fill="#545457"/>
<path d="M156.741 7.00551C156.411 6.72246 156.246 6.32146 156.246 5.80253V5.44871C156.246 5.26001 156.293 5.07131 156.388 4.8826C156.529 4.6939 156.694 4.48161 156.883 4.24573C157.024 4.05703 157.119 3.9155 157.166 3.82115C157.213 3.7268 157.237 3.65603 157.237 3.60886C157.237 3.46733 157.19 3.39657 157.095 3.39657C156.954 3.39657 156.859 3.44374 156.812 3.53809V3.89191H156.175V2.68893H156.812V2.97198C156.907 2.87763 157.001 2.80687 157.095 2.75969C157.19 2.71252 157.308 2.68893 157.449 2.68893C157.685 2.68893 157.85 2.75969 157.944 2.90122C158.039 2.99557 158.086 3.16069 158.086 3.39657C158.086 3.58527 158.062 3.75038 158.015 3.89191C157.921 4.03344 157.803 4.22214 157.661 4.45802C157.473 4.64672 157.355 4.81184 157.308 4.95337C157.213 5.09489 157.166 5.26001 157.166 5.44871V5.80253C157.166 6.08559 157.26 6.32146 157.449 6.51017C157.638 6.6517 157.897 6.72246 158.227 6.72246C158.935 6.72246 159.289 6.39223 159.289 5.73177V5.16566C159.289 4.92978 159.242 4.74108 159.147 4.59955C159.053 4.5052 158.911 4.45802 158.723 4.45802H158.44L158.51 3.82115H158.652C158.888 3.82115 159.053 3.75038 159.147 3.60886C159.242 3.51451 159.289 3.3258 159.289 3.04275V2.61816H160.28V3.04275C160.28 3.3258 160.232 3.56168 160.138 3.75038C160.044 3.89191 159.879 4.00985 159.643 4.1042C159.879 4.24573 160.044 4.38726 160.138 4.52878C160.232 4.71749 160.28 4.95337 160.28 5.23642V5.73177C160.28 6.2507 160.091 6.67528 159.713 7.00551C159.383 7.28857 158.888 7.4301 158.227 7.4301C157.614 7.4301 157.119 7.28857 156.741 7.00551Z" fill="#545457"/>
<path d="M158.227 0.77832H160.704V1.41519H159.005V1.9813H158.227V0.77832Z" fill="#545457"/>
<path d="M161.766 7.00551C161.436 6.72246 161.27 6.32146 161.27 5.80253V5.44871C161.27 5.26001 161.318 5.07131 161.412 4.8826C161.553 4.6939 161.719 4.48161 161.907 4.24573C162.002 4.05703 162.096 3.9155 162.19 3.82115C162.238 3.7268 162.261 3.65603 162.261 3.60886C162.261 3.46733 162.19 3.39657 162.049 3.39657C161.954 3.39657 161.86 3.44374 161.766 3.53809V3.89191H161.129V2.68893H161.837V2.97198C161.931 2.87763 162.025 2.80687 162.12 2.75969C162.214 2.71252 162.332 2.68893 162.473 2.68893C162.662 2.68893 162.827 2.75969 162.969 2.90122C163.063 2.99557 163.11 3.16069 163.11 3.39657C163.11 3.58527 163.063 3.75038 162.969 3.89191C162.922 4.03344 162.804 4.22214 162.615 4.45802C162.473 4.64672 162.379 4.81184 162.332 4.95337C162.238 5.09489 162.19 5.26001 162.19 5.44871V5.80253C162.19 6.08559 162.285 6.32146 162.473 6.51017C162.662 6.6517 162.922 6.72246 163.252 6.72246C163.959 6.72246 164.313 6.39223 164.313 5.73177V5.16566C164.313 4.92978 164.266 4.74108 164.172 4.59955C164.077 4.5052 163.912 4.45802 163.676 4.45802H163.464L163.535 3.82115H163.676C163.912 3.82115 164.077 3.75038 164.172 3.60886C164.266 3.51451 164.313 3.3258 164.313 3.04275V2.61816H165.233V3.04275C165.233 3.3258 165.21 3.56168 165.162 3.75038C165.068 3.89191 164.903 4.00985 164.667 4.1042C164.903 4.24573 165.068 4.38726 165.162 4.52878C165.21 4.71749 165.233 4.95337 165.233 5.23642V5.73177C165.233 6.2507 165.068 6.67528 164.738 7.00551C164.36 7.28857 163.865 7.4301 163.252 7.4301C162.591 7.4301 162.096 7.28857 161.766 7.00551Z" fill="#545457"/>
<path d="M164.313 0.56543H165.233V1.9807H164.313V0.56543Z" fill="#545457"/>
<path d="M168.134 4.45802C168.134 4.17497 168.11 3.96268 168.063 3.82115C167.969 3.67962 167.851 3.58527 167.709 3.53809C167.568 3.44374 167.355 3.39657 167.072 3.39657C166.931 3.39657 166.742 3.42015 166.506 3.46733C166.27 3.5145 166.081 3.56168 165.94 3.60886V2.90122C166.081 2.80687 166.294 2.7361 166.577 2.68893C166.813 2.64175 167.049 2.61816 167.284 2.61816C167.898 2.61816 168.346 2.75969 168.629 3.04275C168.912 3.3258 169.054 3.75038 169.054 4.31649V7.35933H168.134V4.45802Z" fill="#545457"/>
<path d="M173.371 6.43895V2.68848H174.291V6.22666C174.291 6.36819 174.315 6.46254 174.362 6.50972C174.409 6.60407 174.503 6.65124 174.645 6.65124H175.069V7.35888H174.22C173.654 7.35888 173.371 7.05224 173.371 6.43895Z" fill="#545457"/>
<path d="M177.617 7.28812C177.334 7.19377 177.098 7.05224 176.909 6.86353L176.838 7.35888H175.989V2.68848H176.909V6.1559C177.051 6.29743 177.239 6.43895 177.475 6.58048C177.711 6.67483 177.947 6.72201 178.183 6.72201C178.513 6.72201 178.749 6.62766 178.891 6.43895C179.079 6.29743 179.174 6.06155 179.174 5.73132V2.68848H180.094V5.73132C180.094 6.29743 179.952 6.72201 179.669 7.00506C179.386 7.28812 179.009 7.42965 178.537 7.42965C178.159 7.42965 177.853 7.38247 177.617 7.28812Z" fill="#545457"/>
<path d="M181.509 6.86399C181.178 6.48658 181.013 5.89688 181.013 5.09489C181.013 4.34008 181.202 3.7268 181.579 3.25504C182.004 2.83046 182.617 2.61816 183.419 2.61816C183.891 2.61816 184.292 2.71252 184.622 2.90122C185 3.08992 185.259 3.3258 185.401 3.60886C185.542 3.89191 185.613 4.19855 185.613 4.52878V7.35933H184.693V4.59955C184.693 4.22214 184.599 3.9155 184.41 3.67962C184.174 3.49092 183.82 3.39657 183.348 3.39657C182.877 3.39657 182.523 3.53809 182.287 3.82115C182.051 4.1042 181.933 4.52878 181.933 5.09489C181.933 5.661 182.027 6.08559 182.216 6.36864C182.405 6.60452 182.688 6.72246 183.065 6.72246C183.348 6.72246 183.561 6.69887 183.702 6.6517V7.35933C183.466 7.40651 183.207 7.4301 182.924 7.4301C182.358 7.4301 181.886 7.24139 181.509 6.86399Z" fill="#545457"/>
<defs>
<linearGradient id="paint0_linear_432_28536" x1="-0.0275978" y1="11.2612" x2="18.63" y2="11.2612" gradientUnits="userSpaceOnUse">
<stop stop-color="white"/>
<stop offset="1" stop-color="#231F20"/>
</linearGradient>
<linearGradient id="paint1_linear_432_28536" x1="21.6" y1="11.2612" x2="46.1168" y2="11.2612" gradientUnits="userSpaceOnUse">
<stop stop-color="white"/>
<stop offset="1" stop-color="#231F20"/>
</linearGradient>
<linearGradient id="paint2_linear_432_28536" x1="49.1304" y1="11.2612" x2="74.5614" y2="11.2612" gradientUnits="userSpaceOnUse">
<stop stop-color="white"/>
<stop offset="1" stop-color="#231F20"/>
</linearGradient>
<linearGradient id="paint3_linear_432_28536" x1="88.5969" y1="11.2612" x2="114.818" y2="11.2612" gradientUnits="userSpaceOnUse">
<stop stop-color="white"/>
<stop offset="1" stop-color="#231F20"/>
</linearGradient>
<linearGradient id="paint4_linear_432_28536" x1="120.053" y1="11.2612" x2="138.71" y2="11.2612" gradientUnits="userSpaceOnUse">
<stop stop-color="white"/>
<stop offset="1" stop-color="#231F20"/>
</linearGradient>
<linearGradient id="paint5_linear_432_28536" x1="142.908" y1="11.2612" x2="165.43" y2="11.2612" gradientUnits="userSpaceOnUse">
<stop stop-color="white"/>
<stop offset="1" stop-color="#231F20"/>
</linearGradient>
<linearGradient id="paint6_linear_432_28536" x1="170.132" y1="16.9329" x2="185.964" y2="16.9329" gradientUnits="userSpaceOnUse">
<stop stop-color="white"/>
<stop offset="1" stop-color="#231F20"/>
</linearGradient>
<linearGradient id="paint7_linear_432_28536" x1="143.468" y1="2.71749" x2="145.174" y2="2.71749" gradientUnits="userSpaceOnUse">
<stop stop-color="white"/>
<stop offset="1" stop-color="#231F20"/>
</linearGradient>
<linearGradient id="paint8_linear_432_28536" x1="145.983" y1="2.63161" x2="150.134" y2="2.63161" gradientUnits="userSpaceOnUse">
<stop stop-color="white"/>
<stop offset="1" stop-color="#231F20"/>
</linearGradient>
<linearGradient id="paint9_linear_432_28536" x1="146.345" y1="-0.0120298" x2="149.609" y2="-0.0120298" gradientUnits="userSpaceOnUse">
<stop stop-color="white"/>
<stop offset="1" stop-color="#231F20"/>
</linearGradient>
<linearGradient id="paint10_linear_432_28536" x1="150.874" y1="2.63161" x2="155.233" y2="2.63161" gradientUnits="userSpaceOnUse">
<stop stop-color="white"/>
<stop offset="1" stop-color="#231F20"/>
</linearGradient>
<linearGradient id="paint11_linear_432_28536" x1="156.146" y1="2.63161" x2="160.245" y2="2.63161" gradientUnits="userSpaceOnUse">
<stop stop-color="white"/>
<stop offset="1" stop-color="#231F20"/>
</linearGradient>
<linearGradient id="paint12_linear_432_28536" x1="158.204" y1="0.754261" x2="160.736" y2="0.754261" gradientUnits="userSpaceOnUse">
<stop stop-color="white"/>
<stop offset="1" stop-color="#231F20"/>
</linearGradient>
<linearGradient id="paint13_linear_432_28536" x1="161.159" y1="2.63161" x2="165.258" y2="2.63161" gradientUnits="userSpaceOnUse">
<stop stop-color="white"/>
<stop offset="1" stop-color="#231F20"/>
</linearGradient>
<linearGradient id="paint14_linear_432_28536" x1="164.319" y1="0.590197" x2="165.258" y2="0.590197" gradientUnits="userSpaceOnUse">
<stop stop-color="white"/>
<stop offset="1" stop-color="#231F20"/>
</linearGradient>
<linearGradient id="paint15_linear_432_28536" x1="165.92" y1="2.63161" x2="169.046" y2="2.63161" gradientUnits="userSpaceOnUse">
<stop stop-color="white"/>
<stop offset="1" stop-color="#231F20"/>
</linearGradient>
<linearGradient id="paint16_linear_432_28536" x1="173.346" y1="2.71749" x2="175.051" y2="2.71749" gradientUnits="userSpaceOnUse">
<stop stop-color="white"/>
<stop offset="1" stop-color="#231F20"/>
</linearGradient>
<linearGradient id="paint17_linear_432_28536" x1="175.972" y1="2.71749" x2="180.089" y2="2.71749" gradientUnits="userSpaceOnUse">
<stop stop-color="white"/>
<stop offset="1" stop-color="#231F20"/>
</linearGradient>
<linearGradient id="paint18_linear_432_28536" x1="181.01" y1="2.63161" x2="185.627" y2="2.63161" gradientUnits="userSpaceOnUse">
<stop stop-color="white"/>
<stop offset="1" stop-color="#231F20"/>
</linearGradient>
</defs>
</svg>
