<?xml version="1.0" encoding="UTF-8"?>
<!DOCTYPE svg PUBLIC "-//W3C//DTD SVG 1.1//EN" "http://www.w3.org/Graphics/SVG/1.1/DTD/svg11.dtd">
<svg xmlns="http://www.w3.org/2000/svg" version="1.1" width="724px" height="668px" style="shape-rendering:geometricPrecision; text-rendering:geometricPrecision; image-rendering:optimizeQuality; fill-rule:evenodd; clip-rule:evenodd" xmlns:xlink="http://www.w3.org/1999/xlink">
<g><path style="opacity:1" fill="#14a7d6" d="M 391.5,49.5 C 391.427,51.0269 392.094,52.0269 393.5,52.5C 396.579,55.2565 398.912,58.5899 400.5,62.5C 400.631,63.3764 400.298,64.0431 399.5,64.5C 385.27,72.1148 370.936,79.4482 356.5,86.5C 352.601,81.7149 347.601,78.7149 341.5,77.5C 320.167,76.8333 298.833,76.1667 277.5,75.5C 279.965,67.2293 283.965,59.896 289.5,53.5C 290.906,53.0269 291.573,52.0269 291.5,50.5C 309.255,30.8603 331.255,23.6936 357.5,29C 371.249,32.0322 382.582,38.8655 391.5,49.5 Z"/></g>
<g><path style="opacity:0.757" fill="#99d7eb" d="M 391.5,49.5 C 392.906,49.9731 393.573,50.9731 393.5,52.5C 392.094,52.0269 391.427,51.0269 391.5,49.5 Z"/></g>
<g><path style="opacity:0.647" fill="#abdef0" d="M 291.5,50.5 C 291.573,52.0269 290.906,53.0269 289.5,53.5C 289.427,51.9731 290.094,50.9731 291.5,50.5 Z"/></g>
<g><path style="opacity:1" fill="#12a9d4" d="M 400.5,62.5 C 408.009,76.8544 415.009,91.5211 421.5,106.5C 421.67,107.822 421.337,108.989 420.5,110C 360.992,141.921 301.325,173.588 241.5,205C 232.84,205.5 224.173,205.666 215.5,205.5C 228.876,176.412 242.543,147.412 256.5,118.5C 285.828,117.667 315.161,117.167 344.5,117C 358.341,110.805 362.341,100.638 356.5,86.5C 370.936,79.4482 385.27,72.1148 399.5,64.5C 400.298,64.0431 400.631,63.3764 400.5,62.5 Z"/></g>
<g><path style="opacity:0.533" fill="#79d0e9" d="M 277.5,75.5 C 298.833,76.1667 320.167,76.8333 341.5,77.5C 319.823,77.833 298.156,77.4997 276.5,76.5C 276.624,75.8933 276.957,75.56 277.5,75.5 Z"/></g>
<g><path style="opacity:1" fill="#07aad0" d="M 421.5,106.5 C 423.87,110.586 425.87,114.919 427.5,119.5C 466.486,121.494 505.819,122.161 545.5,121.5C 556.684,123.357 562.684,130.023 563.5,141.5C 563.185,150.302 559.185,156.802 551.5,161C 517.227,162.313 482.894,162.98 448.5,163C 454.791,175.378 460.791,187.878 466.5,200.5C 466.719,201.675 466.386,202.675 465.5,203.5C 407.875,233.965 350.375,264.632 293,295.5C 292.809,293.292 292.309,291.292 291.5,289.5C 288.684,281.354 283.017,276.354 274.5,274.5C 244.167,273.833 213.833,273.167 183.5,272.5C 186.616,264.268 190.282,256.268 194.5,248.5C 209.598,247.848 224.598,247.182 239.5,246.5C 250.242,243.92 256.242,237.086 257.5,226C 256.204,216.708 251.204,210.374 242.5,207C 232.753,206.845 223.753,206.345 215.5,205.5C 224.173,205.666 232.84,205.5 241.5,205C 301.325,173.588 360.992,141.921 420.5,110C 421.337,108.989 421.67,107.822 421.5,106.5 Z"/></g>
<g><path style="opacity:0.333" fill="#aae2ef" d="M 427.5,119.5 C 466.931,120.161 506.264,120.828 545.5,121.5C 505.819,122.161 466.486,121.494 427.5,119.5 Z"/></g>
<g><path style="opacity:1" fill="#07adcc" d="M 466.5,200.5 C 474.059,215.286 481.392,230.286 488.5,245.5C 508.158,246.333 527.825,246.833 547.5,247C 561.659,252.791 566.159,262.958 561,277.5C 558.029,282.98 553.529,286.314 547.5,287.5C 534.5,287.5 521.5,287.5 508.5,287.5C 508.263,288.791 508.596,289.791 509.5,290.5C 512.737,296.643 515.737,302.976 518.5,309.5C 518.586,310.496 518.252,311.329 517.5,312C 472.5,335.833 427.5,359.667 382.5,383.5C 381.583,382.873 380.583,382.539 379.5,382.5C 352.736,366.953 326.736,368.12 301.5,386C 295.922,390.907 291.089,396.407 287,402.5C 279.548,417.07 272.381,431.737 265.5,446.5C 225.281,466.944 185.281,487.944 145.5,509.5C 144.702,509.043 144.369,508.376 144.5,507.5C 148.472,497.422 146.472,488.756 138.5,481.5C 138.027,480.094 137.027,479.427 135.5,479.5C 133.146,479.162 130.813,478.662 128.5,478C 114.155,477.833 99.8217,477.333 85.5,476.5C 101.002,442.832 117.002,409.499 133.5,376.5C 133.272,378.355 133.939,379.188 135.5,379C 174.833,358 214.167,337 253.5,316C 223.168,315.5 192.835,315.333 162.5,315.5C 199.998,314.667 237.664,314.167 275.5,314C 287.426,310.225 292.76,302.058 291.5,289.5C 292.309,291.292 292.809,293.292 293,295.5C 350.375,264.632 407.875,233.965 465.5,203.5C 466.386,202.675 466.719,201.675 466.5,200.5 Z"/></g>
<g><path style="opacity:0.6" fill="#6acbe3" d="M 239.5,246.5 C 224.598,247.182 209.598,247.848 194.5,248.5C 209.129,246.516 224.129,245.85 239.5,246.5 Z"/></g>
<g><path style="opacity:0.2" fill="#cbedf5" d="M 183.5,272.5 C 213.833,273.167 244.167,273.833 274.5,274.5C 243.826,274.833 213.159,274.5 182.5,273.5C 182.624,272.893 182.957,272.56 183.5,272.5 Z"/></g>
<g><path style="opacity:0.6" fill="#75d2e2" d="M 547.5,287.5 C 534.634,287.84 521.967,288.84 509.5,290.5C 508.596,289.791 508.263,288.791 508.5,287.5C 521.5,287.5 534.5,287.5 547.5,287.5 Z"/></g>
<g><path style="opacity:1" fill="#05afc8" d="M 518.5,309.5 C 519.674,310.514 520.34,311.847 520.5,313.5C 549.815,315.492 579.481,316.159 609.5,315.5C 611.655,315.372 613.655,315.872 615.5,317C 618.409,318.406 620.409,320.572 621.5,323.5C 602.167,334.167 582.833,344.833 563.5,355.5C 555.804,355.169 548.138,355.503 540.5,356.5C 540.624,357.107 540.957,357.44 541.5,357.5C 543.065,359.509 544.065,361.843 544.5,364.5C 499.72,388.726 454.72,412.726 409.5,436.5C 408.833,433.358 408.166,430.358 407.5,427.5C 403.853,408.875 394.52,393.875 379.5,382.5C 380.583,382.539 381.583,382.873 382.5,383.5C 427.5,359.667 472.5,335.833 517.5,312C 518.252,311.329 518.586,310.496 518.5,309.5 Z"/></g>
<g><path style="opacity:0.6" fill="#69cfdf" d="M 520.5,313.5 C 550.264,314.159 579.931,314.826 609.5,315.5C 579.481,316.159 549.815,315.492 520.5,313.5 Z"/></g>
<g><path style="opacity:1" fill="#0eabcf" d="M 162.5,315.5 C 192.835,315.333 223.168,315.5 253.5,316C 214.167,337 174.833,358 135.5,379C 133.939,379.188 133.272,378.355 133.5,376.5C 142.93,355.976 152.597,335.643 162.5,315.5 Z"/></g>
<g><path style="opacity:1" fill="#17b2c8" d="M 621.5,323.5 C 623.41,324.975 624.576,326.975 625,329.5C 627.068,338.29 624.901,345.79 618.5,352C 615.928,354.287 612.928,355.453 609.5,355.5C 594.167,355.5 578.833,355.5 563.5,355.5C 582.833,344.833 602.167,334.167 621.5,323.5 Z"/></g>
<g><path style="opacity:0.6" fill="#6bd1dd" d="M 563.5,355.5 C 578.833,355.5 594.167,355.5 609.5,355.5C 586.833,356.167 564.167,356.833 541.5,357.5C 540.957,357.44 540.624,357.107 540.5,356.5C 548.138,355.503 555.804,355.169 563.5,355.5 Z"/></g>
<g><path style="opacity:1" fill="#06b2c4" d="M 544.5,364.5 C 567.009,410.188 589.009,456.188 610.5,502.5C 610.631,503.376 610.298,504.043 609.5,504.5C 522.946,550.274 436.613,596.274 350.5,642.5C 342.167,642.5 333.833,642.5 325.5,642.5C 300.936,638.777 283.769,625.444 274,602.5C 264.109,569.167 271.942,540.667 297.5,517C 305.79,510.523 315.124,506.189 325.5,504C 337.25,503.26 348.917,501.926 360.5,500C 394.109,487.646 409.775,463.479 407.5,427.5C 408.166,430.358 408.833,433.358 409.5,436.5C 454.72,412.726 499.72,388.726 544.5,364.5 Z"/></g>
<g><path style="opacity:1" fill="#0aafc9" d="M 265.5,446.5 C 251.437,476.959 237.104,507.292 222.5,537.5C 216.874,538.808 211.541,540.975 206.5,544C 158.659,569.755 110.659,595.255 62.5,620.5C 61.5832,619.873 60.5832,619.539 59.5,619.5C 45.2253,601.128 41.2253,580.794 47.5,558.5C 47.3505,559.552 47.5172,560.552 48,561.5C 74.482,547.011 100.982,532.678 127.5,518.5C 134.662,517.089 140.329,513.422 144.5,507.5C 144.369,508.376 144.702,509.043 145.5,509.5C 185.281,487.944 225.281,466.944 265.5,446.5 Z"/></g>
<g><path style="opacity:0.373" fill="#abe2ec" d="M 135.5,479.5 C 137.027,479.427 138.027,480.094 138.5,481.5C 136.973,481.573 135.973,480.906 135.5,479.5 Z"/></g>
<g><path style="opacity:1" fill="#01b4c0" d="M 610.5,502.5 C 611.725,503.937 612.725,505.604 613.5,507.5C 630.157,508.333 646.823,508.833 663.5,509C 669.911,510.583 674.244,514.416 676.5,520.5C 676.5,521.5 676.5,522.5 676.5,523.5C 601.729,562.72 527.062,602.22 452.5,642C 418.502,642.5 384.502,642.667 350.5,642.5C 436.613,596.274 522.946,550.274 609.5,504.5C 610.298,504.043 610.631,503.376 610.5,502.5 Z"/></g>
<g><path style="opacity:1" fill="#13afcb" d="M 127.5,518.5 C 100.982,532.678 74.482,547.011 48,561.5C 47.5172,560.552 47.3505,559.552 47.5,558.5C 52.6155,544.935 58.2821,531.602 64.5,518.5C 85.5,518.5 106.5,518.5 127.5,518.5 Z"/></g>
<g><path style="opacity:1" fill="#11b7bf" d="M 676.5,523.5 C 677.423,527.064 677.756,530.731 677.5,534.5C 675.381,542.953 670.048,547.953 661.5,549.5C 652.167,549.5 642.833,549.5 633.5,549.5C 633.263,550.791 633.596,551.791 634.5,552.5C 645.603,587.027 636.269,614.527 606.5,635C 599.034,639.266 591.034,641.933 582.5,643C 496.666,643.832 410.999,643.666 325.5,642.5C 333.833,642.5 342.167,642.5 350.5,642.5C 384.502,642.667 418.502,642.5 452.5,642C 527.062,602.22 601.729,562.72 676.5,523.5 Z"/></g>
<g><path style="opacity:0.49" fill="#96dee3" d="M 676.5,520.5 C 677.973,523.017 678.64,525.85 678.5,529C 678.494,531.033 678.161,532.866 677.5,534.5C 677.756,530.731 677.423,527.064 676.5,523.5C 676.5,522.5 676.5,521.5 676.5,520.5 Z"/></g>
<g><path style="opacity:1" fill="#13b2c7" d="M 222.5,537.5 C 210.953,562.262 199.12,586.929 187,611.5C 176.004,629.141 160.171,639.641 139.5,643C 126.833,643.667 114.167,643.667 101.5,643C 89.6324,641.726 79.299,637.226 70.5,629.5C 70.0269,628.094 69.0269,627.427 67.5,627.5C 64.5,625.167 61.8333,622.5 59.5,619.5C 60.5832,619.539 61.5832,619.873 62.5,620.5C 110.659,595.255 158.659,569.755 206.5,544C 211.541,540.975 216.874,538.808 222.5,537.5 Z"/></g>
<g><path style="opacity:0.333" fill="#b1e9eb" d="M 661.5,549.5 C 652.287,549.844 643.287,550.844 634.5,552.5C 633.596,551.791 633.263,550.791 633.5,549.5C 642.833,549.5 652.167,549.5 661.5,549.5 Z"/></g>
<g><path style="opacity:0.671" fill="#a8e1e9" d="M 67.5,627.5 C 69.0269,627.427 70.0269,628.094 70.5,629.5C 68.9731,629.573 67.9731,628.906 67.5,627.5 Z"/></g>
</svg>
