<?xml version="1.0" encoding="UTF-8"?>
<!DOCTYPE svg PUBLIC "-//W3C//DTD SVG 1.1//EN" "http://www.w3.org/Graphics/SVG/1.1/DTD/svg11.dtd">
<svg xmlns="http://www.w3.org/2000/svg" version="1.1" width="1277px" height="580px" style="shape-rendering:geometricPrecision; text-rendering:geometricPrecision; image-rendering:optimizeQuality; fill-rule:evenodd; clip-rule:evenodd" xmlns:xlink="http://www.w3.org/1999/xlink">
<g><path style="opacity:0.969" fill="#fefefe" d="M 808.5,182.5 C 808.5,182.833 808.5,183.167 808.5,183.5C 808.167,184.167 807.833,184.833 807.5,185.5C 802.698,190.427 798.365,195.76 794.5,201.5C 792.529,203.808 790.529,206.142 788.5,208.5C 786.471,210.858 784.471,213.192 782.5,215.5C 782.53,214.503 782.03,213.836 781,213.5C 760.458,207.884 741.291,199.384 723.5,188C 700.276,168.58 693.442,144.414 703,115.5C 709.307,100.858 719.473,89.6914 733.5,82C 763.651,68.7607 794.984,65.094 827.5,71C 872.8,80.3976 897.133,108.231 900.5,154.5C 884.167,154.5 867.833,154.5 851.5,154.5C 847.516,122.854 829.516,106.521 797.5,105.5C 784.384,105.695 772.051,108.862 760.5,115C 747.19,125.554 744.356,138.388 752,153.5C 761.247,163.547 772.413,170.714 785.5,175C 793.169,177.612 800.836,180.112 808.5,182.5 Z"/></g>
<g><path style="opacity:0.976" fill="#fefefe" d="M 145.5,74.5 C 164.179,74.1671 182.845,74.5004 201.5,75.5C 235.902,161.711 269.902,248.044 303.5,334.5C 286.82,334.833 270.153,334.499 253.5,333.5C 243.304,308.913 233.304,284.247 223.5,259.5C 190.172,258.333 156.838,258.167 123.5,259C 113.337,283.99 103.671,309.156 94.5,334.5C 77.4869,334.833 60.4869,334.499 43.5,333.5C 77.9017,247.289 111.902,160.956 145.5,74.5 Z M 172.5,132.5 C 174.284,133.574 175.451,135.24 176,137.5C 186.805,165.419 197.305,193.419 207.5,221.5C 184.498,221.667 161.498,221.5 138.5,221C 150.329,191.677 161.663,162.177 172.5,132.5 Z"/></g>
<g><path style="opacity:0.97" fill="#fefefe" d="M 413.5,74.5 C 452.168,74.3333 490.835,74.5 529.5,75C 556.069,75.7048 578.569,85.5382 597,104.5C 621.616,137.392 621.282,170.059 596,202.5C 579.689,219.069 559.856,228.236 536.5,230C 511.836,230.5 487.169,230.667 462.5,230.5C 462.5,265.167 462.5,299.833 462.5,334.5C 446.167,334.5 429.833,334.5 413.5,334.5C 413.5,247.833 413.5,161.167 413.5,74.5 Z M 462.5,112.5 C 482.169,112.333 501.836,112.5 521.5,113C 538.409,113.37 551.909,120.204 562,133.5C 569.698,150.77 567.531,166.604 555.5,181C 546.915,187.419 537.248,191.085 526.5,192C 505.169,192.5 483.836,192.667 462.5,192.5C 462.5,165.833 462.5,139.167 462.5,112.5 Z"/></g>
<g><path style="opacity:0.968" fill="#fefefe" d="M 987.5,74.5 C 1005.17,74.3334 1022.84,74.5001 1040.5,75C 1061.79,105.079 1082.96,135.246 1104,165.5C 1125.04,135.246 1146.21,105.079 1167.5,75C 1185.83,74.3333 1204.17,74.3333 1222.5,75C 1191.97,118.028 1161.64,161.195 1131.5,204.5C 1161.5,247.5 1191.5,290.5 1221.5,333.5C 1203.51,334.666 1185.51,334.833 1167.5,334C 1146.38,304.254 1125.38,274.421 1104.5,244.5C 1083.27,273.954 1062.27,303.62 1041.5,333.5C 1023.18,334.666 1004.84,334.833 986.5,334C 1016.75,290.824 1046.75,247.491 1076.5,204C 1048.8,164.096 1020.96,124.263 993,84.5C 990.888,81.2729 989.055,77.9396 987.5,74.5 Z"/></g>
<g><path style="opacity:1" fill="#18b1c9" d="M 831.5,157.5 C 831.755,182.849 831.421,208.182 830.5,233.5C 828.542,236.792 826.209,239.792 823.5,242.5C 823.254,219.49 823.588,196.49 824.5,173.5C 824.478,170.41 823.812,167.743 822.5,165.5C 822.833,164.5 823.5,163.833 824.5,163.5C 825.906,163.027 826.573,162.027 826.5,160.5C 827.431,158.978 828.598,157.645 830,156.5C 830.765,156.57 831.265,156.903 831.5,157.5 Z"/></g>
<g><path style="opacity:1" fill="#14b3c6" d="M 831.5,157.5 C 838.48,162.484 845.146,167.817 851.5,173.5C 850.505,184.654 850.172,195.988 850.5,207.5C 844.909,215.764 838.909,223.764 832.5,231.5C 832.167,232.5 831.5,233.167 830.5,233.5C 831.421,208.182 831.755,182.849 831.5,157.5 Z"/></g>
<g><path style="opacity:0.718" fill="#9fdee8" d="M 826.5,160.5 C 826.573,162.027 825.906,163.027 824.5,163.5C 824.427,161.973 825.094,160.973 826.5,160.5 Z"/></g>
<g><path style="opacity:1" fill="#14aecd" d="M 822.5,165.5 C 823.812,167.743 824.478,170.41 824.5,173.5C 823.588,196.49 823.254,219.49 823.5,242.5C 818.85,249.145 813.85,255.478 808.5,261.5C 808.831,235.995 808.498,210.661 807.5,185.5C 807.833,184.833 808.167,184.167 808.5,183.5C 809.906,183.027 810.573,182.027 810.5,180.5C 810.833,179.5 811.5,178.833 812.5,178.5C 813.906,178.027 814.573,177.027 814.5,175.5C 814.833,174.5 815.5,173.833 816.5,173.5C 817.906,173.027 818.573,172.027 818.5,170.5C 818.833,169.5 819.5,168.833 820.5,168.5C 821.906,168.027 822.573,167.027 822.5,165.5 Z"/></g>
<g><path style="opacity:0.718" fill="#9fdde8" d="M 822.5,165.5 C 822.573,167.027 821.906,168.027 820.5,168.5C 820.427,166.973 821.094,165.973 822.5,165.5 Z"/></g>
<g><path style="opacity:0.718" fill="#9fdce9" d="M 818.5,170.5 C 818.573,172.027 817.906,173.027 816.5,173.5C 816.427,171.973 817.094,170.973 818.5,170.5 Z"/></g>
<g><path style="opacity:1" fill="#19b6c2" d="M 851.5,173.5 C 853.389,174.604 855.055,175.937 856.5,177.5C 856.5,185.167 856.5,192.833 856.5,200.5C 855.2,203.432 853.2,205.766 850.5,207.5C 850.172,195.988 850.505,184.654 851.5,173.5 Z"/></g>
<g><path style="opacity:0.718" fill="#a0dce9" d="M 814.5,175.5 C 814.573,177.027 813.906,178.027 812.5,178.5C 812.427,176.973 813.094,175.973 814.5,175.5 Z"/></g>
<g><path style="opacity:1" fill="#3fbfc6" d="M 856.5,177.5 C 860.625,180.453 864.625,183.619 868.5,187C 864.953,191.041 861.62,195.208 858.5,199.5C 857.833,199.833 857.167,200.167 856.5,200.5C 856.5,192.833 856.5,185.167 856.5,177.5 Z"/></g>
<g><path style="opacity:0.714" fill="#a0dcea" d="M 810.5,180.5 C 810.573,182.027 809.906,183.027 808.5,183.5C 808.5,183.167 808.5,182.833 808.5,182.5C 808.833,181.5 809.5,180.833 810.5,180.5 Z"/></g>
<g><path style="opacity:1" fill="#10abd1" d="M 807.5,185.5 C 808.498,210.661 808.831,235.995 808.5,261.5C 806.749,265.771 803.749,268.271 799.5,269C 798.29,267.961 797.29,266.794 796.5,265.5C 796.027,264.094 795.027,263.427 793.5,263.5C 792.5,263.167 791.833,262.5 791.5,261.5C 792.496,261.414 793.329,261.748 794,262.5C 794.333,260.833 794.667,259.167 795,257.5C 795.829,238.662 795.662,219.995 794.5,201.5C 798.365,195.76 802.698,190.427 807.5,185.5 Z"/></g>
<g><path style="opacity:0.972" fill="#fefefe" d="M 858.5,199.5 C 878.734,206.566 893.901,219.566 904,238.5C 914.834,287.37 896.334,319.537 848.5,335C 810.333,345.946 773.666,342.279 738.5,324C 708.816,305.455 693.15,278.621 691.5,243.5C 707.837,243.333 724.17,243.5 740.5,244C 745.422,280.589 766.255,300.423 803,303.5C 819.903,303.822 835.069,298.988 848.5,289C 866.847,264.773 862.513,245.773 835.5,232C 834.552,231.517 833.552,231.351 832.5,231.5C 838.909,223.764 844.909,215.764 850.5,207.5C 853.2,205.766 855.2,203.432 856.5,200.5C 857.167,200.167 857.833,199.833 858.5,199.5 Z"/></g>
<g><path style="opacity:1" fill="#07a8d3" d="M 794.5,201.5 C 795.662,219.995 795.829,238.662 795,257.5C 794.667,259.167 794.333,260.833 794,262.5C 793.329,261.748 792.496,261.414 791.5,261.5C 791.027,260.094 790.027,259.427 788.5,259.5C 787.5,259.167 786.833,258.5 786.5,257.5C 787.827,253.217 788.493,248.551 788.5,243.5C 789.405,231.664 789.405,219.998 788.5,208.5C 790.529,206.142 792.529,203.808 794.5,201.5 Z"/></g>
<g><path style="opacity:1" fill="#19a7d8" d="M 788.5,208.5 C 789.405,219.998 789.405,231.664 788.5,243.5C 788.493,248.551 787.827,253.217 786.5,257.5C 786.027,256.094 785.027,255.427 783.5,255.5C 782.5,255.167 781.833,254.5 781.5,253.5C 781.027,252.094 780.027,251.427 778.5,251.5C 777.5,251.167 776.833,250.5 776.5,249.5C 776.027,248.094 775.027,247.427 773.5,247.5C 772.5,247.167 771.833,246.5 771.5,245.5C 771.027,244.094 770.027,243.427 768.5,243.5C 762.253,240.526 762.253,237.193 768.5,233.5C 769.906,233.027 770.573,232.027 770.5,230.5C 770.833,229.5 771.5,228.833 772.5,228.5C 773.906,228.027 774.573,227.027 774.5,225.5C 774.833,224.5 775.5,223.833 776.5,223.5C 777.906,223.027 778.573,222.027 778.5,220.5C 778.833,219.5 779.5,218.833 780.5,218.5C 781.906,218.027 782.573,217.027 782.5,215.5C 784.471,213.192 786.471,210.858 788.5,208.5 Z"/></g>
<g><path style="opacity:0.71" fill="#a1daef" d="M 782.5,215.5 C 782.573,217.027 781.906,218.027 780.5,218.5C 780.427,216.973 781.094,215.973 782.5,215.5 Z"/></g>
<g><path style="opacity:0.71" fill="#a1d9ef" d="M 778.5,220.5 C 778.573,222.027 777.906,223.027 776.5,223.5C 776.427,221.973 777.094,220.973 778.5,220.5 Z"/></g>
<g><path style="opacity:0.71" fill="#a1d9ef" d="M 774.5,225.5 C 774.573,227.027 773.906,228.027 772.5,228.5C 772.427,226.973 773.094,225.973 774.5,225.5 Z"/></g>
<g><path style="opacity:0.71" fill="#a2d9f0" d="M 770.5,230.5 C 770.573,232.027 769.906,233.027 768.5,233.5C 768.427,231.973 769.094,230.973 770.5,230.5 Z"/></g>
<g><path style="opacity:0.737" fill="#9fd7ef" d="M 768.5,243.5 C 770.027,243.427 771.027,244.094 771.5,245.5C 769.973,245.573 768.973,244.906 768.5,243.5 Z"/></g>
<g><path style="opacity:0.737" fill="#9fd8ee" d="M 773.5,247.5 C 775.027,247.427 776.027,248.094 776.5,249.5C 774.973,249.573 773.973,248.906 773.5,247.5 Z"/></g>
<g><path style="opacity:0.737" fill="#9fd9ee" d="M 778.5,251.5 C 780.027,251.427 781.027,252.094 781.5,253.5C 779.973,253.573 778.973,252.906 778.5,251.5 Z"/></g>
<g><path style="opacity:0.737" fill="#9fd9ed" d="M 783.5,255.5 C 785.027,255.427 786.027,256.094 786.5,257.5C 784.973,257.573 783.973,256.906 783.5,255.5 Z"/></g>
<g><path style="opacity:0.737" fill="#9fd9ec" d="M 788.5,259.5 C 790.027,259.427 791.027,260.094 791.5,261.5C 789.973,261.573 788.973,260.906 788.5,259.5 Z"/></g>
<g><path style="opacity:0.733" fill="#9fdbec" d="M 793.5,263.5 C 795.027,263.427 796.027,264.094 796.5,265.5C 794.973,265.573 793.973,264.906 793.5,263.5 Z"/></g>
<g><path style="opacity:0.947" fill="#fefefe" d="M 934.5,418.5 C 941.9,417.808 948.9,419.141 955.5,422.5C 956.662,427.467 956.829,432.467 956,437.5C 951.755,435.856 947.421,434.522 943,433.5C 940.418,434.284 938.751,435.951 938,438.5C 937.501,442.152 937.335,445.818 937.5,449.5C 942.167,449.5 946.833,449.5 951.5,449.5C 951.5,454.5 951.5,459.5 951.5,464.5C 946.833,464.5 942.167,464.5 937.5,464.5C 937.5,484.833 937.5,505.167 937.5,525.5C 931.5,525.5 925.5,525.5 919.5,525.5C 919.5,505.167 919.5,484.833 919.5,464.5C 915.5,464.5 911.5,464.5 907.5,464.5C 907.5,459.5 907.5,454.5 907.5,449.5C 911.5,449.5 915.5,449.5 919.5,449.5C 919.116,442.411 919.616,435.411 921,428.5C 924.061,423.069 928.561,419.735 934.5,418.5 Z"/></g>
<g><path style="opacity:0.955" fill="#fefefe" d="M 48.5,421.5 C 54.5,421.5 60.5,421.5 66.5,421.5C 66.5,435.5 66.5,449.5 66.5,463.5C 81.8333,463.5 97.1667,463.5 112.5,463.5C 112.5,449.5 112.5,435.5 112.5,421.5C 118.5,421.5 124.5,421.5 130.5,421.5C 130.5,456.167 130.5,490.833 130.5,525.5C 124.5,525.5 118.5,525.5 112.5,525.5C 112.5,510.167 112.5,494.833 112.5,479.5C 97.1667,479.5 81.8333,479.5 66.5,479.5C 66.5,494.833 66.5,510.167 66.5,525.5C 60.5,525.5 54.5,525.5 48.5,525.5C 48.5,490.833 48.5,456.167 48.5,421.5 Z"/></g>
<g><path style="opacity:0.96" fill="#fefefe" d="M 325.5,421.5 C 331.5,421.5 337.5,421.5 343.5,421.5C 343.5,456.167 343.5,490.833 343.5,525.5C 337.5,525.5 331.5,525.5 325.5,525.5C 325.5,490.833 325.5,456.167 325.5,421.5 Z"/></g>
<g><path style="opacity:0.913" fill="#fefefe" d="M 420.5,421.5 C 426.833,421.5 433.167,421.5 439.5,421.5C 439.333,432.838 439.5,444.172 440,455.5C 451.522,445.899 463.689,445.065 476.5,453C 482.165,457.832 484.998,463.999 485,471.5C 485.5,489.497 485.667,507.497 485.5,525.5C 479.167,525.5 472.833,525.5 466.5,525.5C 466.667,507.497 466.5,489.497 466,471.5C 463.451,464.642 458.617,462.142 451.5,464C 445.667,465.833 441.833,469.667 440,475.5C 439.5,492.163 439.333,508.83 439.5,525.5C 433.167,525.5 426.833,525.5 420.5,525.5C 420.5,490.833 420.5,456.167 420.5,421.5 Z"/></g>
<g><path style="opacity:0.933" fill="#fefefe" d="M 639.5,421.5 C 656.17,421.333 672.837,421.5 689.5,422C 709.34,428.512 717.174,442.012 713,462.5C 709.137,473.853 701.303,480.687 689.5,483C 679.172,483.5 668.839,483.666 658.5,483.5C 658.5,497.5 658.5,511.5 658.5,525.5C 652.167,525.5 645.833,525.5 639.5,525.5C 639.5,490.833 639.5,456.167 639.5,421.5 Z M 658.5,436.5 C 668.308,435.973 677.974,436.806 687.5,439C 696.646,445.085 698.479,452.918 693,462.5C 689.557,465.874 685.39,467.707 680.5,468C 673.174,468.5 665.841,468.666 658.5,468.5C 658.5,457.833 658.5,447.167 658.5,436.5 Z"/></g>
<g><path style="opacity:0.96" fill="#fefefe" d="M 735.5,421.5 C 741.5,421.5 747.5,421.5 753.5,421.5C 753.5,456.167 753.5,490.833 753.5,525.5C 747.5,525.5 741.5,525.5 735.5,525.5C 735.5,490.833 735.5,456.167 735.5,421.5 Z"/></g>
<g><path style="opacity:0.95" fill="#fefefe" d="M 370.5,428.5 C 376.5,428.5 382.5,428.5 388.5,428.5C 388.5,435.5 388.5,442.5 388.5,449.5C 393.167,449.5 397.833,449.5 402.5,449.5C 402.5,454.5 402.5,459.5 402.5,464.5C 397.833,464.5 393.167,464.5 388.5,464.5C 388.049,479.572 388.549,494.572 390,509.5C 391.299,510.98 392.966,511.646 395,511.5C 398.2,510.932 401.367,510.265 404.5,509.5C 404.5,514.5 404.5,519.5 404.5,524.5C 397.276,526.348 389.942,526.848 382.5,526C 376.508,523.341 372.675,518.841 371,512.5C 370.5,496.503 370.333,480.503 370.5,464.5C 366.833,464.5 363.167,464.5 359.5,464.5C 359.5,459.5 359.5,454.5 359.5,449.5C 363.167,449.5 366.833,449.5 370.5,449.5C 370.5,442.5 370.5,435.5 370.5,428.5 Z"/></g>
<g><path style="opacity:0.928" fill="#fefefe" d="M 862.5,428.5 C 868.833,428.5 875.167,428.5 881.5,428.5C 881.5,435.5 881.5,442.5 881.5,449.5C 886.167,449.5 890.833,449.5 895.5,449.5C 895.5,454.5 895.5,459.5 895.5,464.5C 890.833,464.5 886.167,464.5 881.5,464.5C 881.333,478.837 881.5,493.171 882,507.5C 882.865,510.203 884.699,511.536 887.5,511.5C 890.251,511.146 892.917,510.479 895.5,509.5C 896.494,514.456 896.827,519.456 896.5,524.5C 889.609,526.326 882.609,526.826 875.5,526C 868.329,522.844 864.162,517.344 863,509.5C 862.5,494.504 862.333,479.504 862.5,464.5C 859.167,464.5 855.833,464.5 852.5,464.5C 852.5,459.5 852.5,454.5 852.5,449.5C 855.833,449.5 859.167,449.5 862.5,449.5C 862.5,442.5 862.5,435.5 862.5,428.5 Z"/></g>
<g><path style="opacity:0.931" fill="#fefefe" d="M 184.5,447.5 C 213.21,448.554 226.543,463.554 224.5,492.5C 207.163,492.333 189.83,492.5 172.5,493C 176.172,509.165 185.506,514.165 200.5,508C 203.093,505.234 205.093,502.067 206.5,498.5C 212.128,497.505 217.794,497.171 223.5,497.5C 220.619,512.217 211.952,521.717 197.5,526C 174.635,528.654 160.468,518.82 155,496.5C 151.66,480.35 155.827,466.517 167.5,455C 172.782,451.353 178.448,448.853 184.5,447.5 Z M 184.5,463.5 C 196.298,461.983 203.298,466.983 205.5,478.5C 194.833,478.5 184.167,478.5 173.5,478.5C 174.483,471.519 178.149,466.519 184.5,463.5 Z"/></g>
<g><path style="opacity:0.932" fill="#fefefe" d="M 266.5,447.5 C 277.394,446.643 287.394,449.143 296.5,455C 299.164,457.669 300.998,460.836 302,464.5C 302.333,479.167 302.667,493.833 303,508.5C 303.374,509.416 303.874,510.25 304.5,511C 307.192,511.43 309.859,511.263 312.5,510.5C 314.924,523.477 309.591,528.643 296.5,526C 292,524.167 288.833,521 287,516.5C 275.179,527.624 262.013,529.458 247.5,522C 239.1,514.186 237.267,505.02 242,494.5C 246.064,490.214 250.897,487.048 256.5,485C 262.88,483.155 269.214,481.155 275.5,479C 278.759,477.789 281.592,475.956 284,473.5C 283.916,466.264 280.083,462.931 272.5,463.5C 264.774,463.229 260.441,466.896 259.5,474.5C 253.167,474.5 246.833,474.5 240.5,474.5C 242.384,458.95 251.051,449.95 266.5,447.5 Z M 281.5,490.5 C 282.5,490.5 283.5,490.5 284.5,490.5C 285.235,498.263 282.235,504.096 275.5,508C 269.387,512.748 263.554,512.582 258,507.5C 256.29,501.531 258.457,497.697 264.5,496C 270.333,494.3 276,492.467 281.5,490.5 Z"/></g>
<g><path style="opacity:0.931" fill="#fefefe" d="M 799.5,447.5 C 812.165,446.11 822.999,449.777 832,458.5C 833.275,460.717 834.275,463.051 835,465.5C 835.333,480.167 835.667,494.833 836,509.5C 836.804,510.804 837.971,511.471 839.5,511.5C 841.135,510.954 842.801,510.62 844.5,510.5C 844.666,514.846 844.499,519.179 844,523.5C 832.867,529.678 824.867,527.011 820,515.5C 809.033,527.137 796.2,529.637 781.5,523C 770.788,514.338 768.955,504.172 776,492.5C 778.564,490.273 781.397,488.439 784.5,487C 793.833,483.667 803.167,480.333 812.5,477C 819.167,473 819.167,469 812.5,465C 805.511,462.18 799.344,463.346 794,468.5C 792.872,470.345 792.372,472.345 792.5,474.5C 786.167,474.5 779.833,474.5 773.5,474.5C 775.386,458.948 784.053,449.948 799.5,447.5 Z M 816.5,489.5 C 817.638,492.304 817.805,495.304 817,498.5C 812.813,506.028 806.479,510.362 798,511.5C 793.01,511.512 790.176,509.012 789.5,504C 790.083,501.501 791.416,499.501 793.5,498C 801.161,494.839 808.827,492.006 816.5,489.5 Z"/></g>
<g><path style="opacity:0.932" fill="#fefefe" d="M 995.5,447.5 C 1017.57,446.746 1031.07,457.079 1036,478.5C 1038.91,495.426 1034.08,509.593 1021.5,521C 1008.34,527.95 995.008,528.284 981.5,522C 968.401,511.726 962.901,498.226 965,481.5C 967.388,462.956 977.554,451.623 995.5,447.5 Z M 996.5,463.5 C 1005.93,462.767 1012.43,466.767 1016,475.5C 1020.63,488.342 1018.13,499.509 1008.5,509C 995.343,513.158 987.176,508.325 984,494.5C 981.081,481.072 985.248,470.739 996.5,463.5 Z"/></g>
<g><path style="opacity:0.906" fill="#fefefe" d="M 1086.5,447.5 C 1091.76,447.356 1096.59,448.689 1101,451.5C 1101.83,456.864 1101.66,462.198 1100.5,467.5C 1091.24,462.083 1083.74,463.75 1078,472.5C 1076.54,490.098 1076.04,507.764 1076.5,525.5C 1070.17,525.5 1063.83,525.5 1057.5,525.5C 1057.5,500.167 1057.5,474.833 1057.5,449.5C 1062.5,449.5 1067.5,449.5 1072.5,449.5C 1072.57,457.254 1074.57,458.087 1078.5,452C 1081.1,450.205 1083.77,448.705 1086.5,447.5 Z"/></g>
<g><path style="opacity:0.915" fill="#fefefe" d="M 1145.5,447.5 C 1156.22,446.278 1163.72,450.612 1168,460.5C 1176.84,448.413 1188.34,444.913 1202.5,450C 1210.32,454.125 1214.82,460.625 1216,469.5C 1216.5,488.164 1216.67,506.83 1216.5,525.5C 1210.17,525.5 1203.83,525.5 1197.5,525.5C 1197.67,506.83 1197.5,488.164 1197,469.5C 1192.76,462.983 1187.26,461.817 1180.5,466C 1178.27,468.564 1176.44,471.397 1175,474.5C 1174.5,491.497 1174.33,508.497 1174.5,525.5C 1168.17,525.5 1161.83,525.5 1155.5,525.5C 1155.67,506.83 1155.5,488.164 1155,469.5C 1152.37,464.268 1148.2,462.435 1142.5,464C 1137.01,466.468 1133.51,470.635 1132,476.5C 1131.5,492.83 1131.33,509.163 1131.5,525.5C 1125.17,525.5 1118.83,525.5 1112.5,525.5C 1112.5,500.167 1112.5,474.833 1112.5,449.5C 1118.83,449.5 1125.17,449.5 1131.5,449.5C 1131.34,451.527 1131.5,453.527 1132,455.5C 1135.9,451.641 1140.4,448.975 1145.5,447.5 Z"/></g>
<g><path style="opacity:0.933" fill="#fefefe" d="M 499.5,449.5 C 506.2,449.17 512.866,449.503 519.5,450.5C 524.741,465.971 530.241,481.304 536,496.5C 541.333,481.167 546.667,465.833 552,450.5C 558.418,449.357 564.918,449.19 571.5,450C 560.005,481.817 548.505,513.65 537,545.5C 529.284,555.905 519.617,558.238 508,552.5C 507.501,547.845 507.334,543.179 507.5,538.5C 511.087,539.756 514.754,540.256 518.5,540C 522.5,535.019 525.167,529.352 526.5,523C 517.395,498.515 508.395,474.015 499.5,449.5 Z"/></g>
</svg>
