<svg width="31" height="33" viewBox="0 0 31 33" fill="none" xmlns="http://www.w3.org/2000/svg">
<path d="M18.0834 8.9375V14.8377C18.0834 15.0254 18.1362 15.2094 18.2359 15.3685L26.1664 28.0317C26.5835 28.6977 26.1047 29.5625 25.3189 29.5625H4.38955C3.60371 29.5625 3.12494 28.6977 3.54204 28.0317L11.4726 15.3685C11.5722 15.2094 11.625 15.0254 11.625 14.8377V8.9375" stroke="white" stroke-width="3" stroke-linejoin="round"/>
<path d="M19.375 3.80774H19.4199C20.8218 3.80774 21.9583 4.94425 21.9583 6.3462V6.3462C21.9583 7.74815 20.8218 8.88466 19.4199 8.88466H10.2885C8.88651 8.88466 7.75 7.74815 7.75 6.3462V6.3462C7.75 4.94425 8.88651 3.80774 10.2885 3.80774H14.2083" stroke="white" stroke-width="2" stroke-linecap="round" stroke-linejoin="round"/>
<path d="M18.0833 5.07697C18.0833 5.77795 17.505 6.3462 16.7917 6.3462C16.0783 6.3462 15.5 5.77795 15.5 5.07697C15.5 4.37599 16.0783 3.80774 16.7917 3.80774C17.505 3.80774 18.0833 4.37599 18.0833 5.07697Z" fill="white"/>
<path d="M20.6666 25.3846L18.0246 21.5769H11.6837L9.04163 25.3846H20.6666Z" fill="white"/>
</svg>
