<svg width="26" height="30" viewBox="0 0 26 30" fill="none" xmlns="http://www.w3.org/2000/svg">
<path fill-rule="evenodd" clip-rule="evenodd" d="M17.0846 7.31998C17.0846 9.51586 15.2803 11.34 13 11.34C10.7197 11.34 8.91542 9.51586 8.91542 7.31998C8.91542 5.12409 10.7197 3.29998 13 3.29998C15.2803 3.29998 17.0846 5.12409 17.0846 7.31998ZM19.7846 7.31998C19.7846 11.0313 16.7471 14.04 13 14.04C9.25299 14.04 6.21542 11.0313 6.21542 7.31998C6.21542 3.60862 9.25299 0.599976 13 0.599976C16.7471 0.599976 19.7846 3.60862 19.7846 7.31998ZM10.2342 18.66H15.7659C19.6041 18.66 22.9 21.9318 22.9 26.2C22.9 26.3739 22.8345 26.5072 22.7525 26.5925C22.6724 26.676 22.594 26.7 22.5269 26.7H3.4732C3.40607 26.7 3.32766 26.676 3.24753 26.5925C3.16555 26.5072 3.10002 26.3739 3.10002 26.2C3.10002 21.9318 6.39596 18.66 10.2342 18.66ZM0.400024 26.2C0.400024 20.5446 4.80292 15.96 10.2342 15.96H15.7659C21.1971 15.96 25.6 20.5446 25.6 26.2C25.6 27.9673 24.2241 29.4 22.5269 29.4H3.4732C1.77593 29.4 0.400024 27.9673 0.400024 26.2Z" fill="white"/>
</svg>

