<svg width="30" height="30" viewBox="0 0 30 30" fill="none" xmlns="http://www.w3.org/2000/svg">
<path d="M13.4201 7.65026C13.0807 7.65026 12.4021 7.42133 12.4021 6.50561C12.4021 5.5899 14.0987 6.12407 14.947 6.50561C15.6257 6.12407 17.0848 5.5899 17.4919 6.50561C17.8991 7.42133 16.6436 7.6503 15.965 7.65032M11.3841 7.07799C10.7055 7.84109 10.1625 9.36728 13.4201 9.36728M10.3662 9.36728C10.1965 10.1304 10.5697 11.5421 13.4201 11.0842M9.85718 11.6566C9.85718 12.4197 10.6716 13.7169 13.9291 12.8012M9.85718 13.9459C10.0268 14.709 10.9769 15.8918 13.4201 14.5182M14.947 13.9459C14.438 15.472 13.1147 18.41 11.8931 17.9521C10.6716 17.4943 10.3662 16.6167 10.3662 16.2351M14.947 12.8012C14.438 11.275 13.7254 8.22264 14.947 8.22264C16.1686 8.22264 15.456 11.275 14.947 12.8012Z" stroke="white" stroke-linecap="round" stroke-linejoin="round"/>
<path d="M18.6001 6.59741C19.2858 7.39407 19.8344 8.9874 16.543 8.9874M19.6287 8.9874C19.8001 9.78406 19.423 11.2579 16.543 10.7799M20.1429 11.3774C20.1429 12.1741 19.3201 13.5284 16.0286 12.5724M20.1429 13.7674C19.9715 14.564 19.0115 15.7989 16.5429 14.3649M15.0001 13.7674C15.5144 15.3607 16.8515 18.4279 18.0858 17.9499C19.3201 17.4719 19.6287 16.5557 19.6287 16.1574" stroke="white" stroke-linecap="round" stroke-linejoin="round"/>
<rect x="1.5" y="1.5" width="27" height="27" rx="3.5" stroke="white" stroke-width="3"/>
<path d="M6.53963 22.515L4.77563 20.107H5.59463L6.95263 21.955L8.31063 20.107H9.12963L7.35863 22.515L9.19263 25H8.37363L6.95263 23.068L5.53163 25H4.71263L6.53963 22.515ZM9.83258 22.627H12.0656V23.208H9.83258V22.627ZM12.8368 20.107H14.8038C15.3265 20.107 15.7278 20.233 16.0078 20.485C16.2878 20.737 16.4278 21.1057 16.4278 21.591C16.4278 21.9503 16.3322 22.256 16.1408 22.508C15.9495 22.7553 15.6788 22.9233 15.3288 23.012L16.4068 25H15.6648L14.6218 23.068H13.5508V25H12.8368V20.107ZM14.6848 22.466C14.9975 22.466 15.2448 22.3937 15.4268 22.249C15.6135 22.0997 15.7068 21.8803 15.7068 21.591C15.7068 21.2737 15.6158 21.0473 15.4338 20.912C15.2565 20.7767 15.0068 20.709 14.6848 20.709H13.5508V22.466H14.6848ZM18.6967 20.107H19.3827L21.3357 25H20.6077L20.1177 23.782H17.9547L17.4787 25H16.7437L18.6967 20.107ZM19.9217 23.187L19.0397 20.898L18.1577 23.187H19.9217ZM22.801 23.145L21.023 20.107H21.786L23.151 22.466L24.537 20.107H25.293L23.494 23.145V25H22.801V23.145Z" fill="white"/>
</svg>
