<svg width="35" height="30" viewBox="0 0 35 30" fill="none" xmlns="http://www.w3.org/2000/svg">
<path d="M5.92725 10.2805V26.2997C5.92725 27.2425 5.92725 27.7139 6.22014 28.0068C6.51303 28.2997 6.98444 28.2997 7.92725 28.2997H27.9452C28.888 28.2997 29.3594 28.2997 29.6523 28.0068C29.9452 27.7139 29.9452 27.2425 29.9452 26.2997V10.2805" stroke="#00AD98" stroke-width="3"/>
<path d="M33.434 12.9733L18.2895 2.39968C17.9456 2.15959 17.4884 2.15959 17.1445 2.39968L2 12.9733" stroke="#00AD98" stroke-width="3" stroke-linecap="round"/>
<path d="M22.3397 27.8154V18.842C22.3397 17.7375 21.4442 16.842 20.3397 16.842H15.0944C13.9898 16.842 13.0944 17.7375 13.0944 18.842V27.8154" stroke="#00AD98" stroke-width="3" stroke-linejoin="round"/>
<path d="M27.8868 8.8629V2.46179" stroke="#00AD98" stroke-width="3" stroke-linecap="round"/>
</svg>
