<svg width="27" height="30" viewBox="0 0 27 30" fill="none" xmlns="http://www.w3.org/2000/svg">
<path d="M17.0834 6.9375V12.8377C17.0834 13.0254 17.1362 13.2094 17.2359 13.3685L25.1664 26.0317C25.5835 26.6977 25.1047 27.5625 24.3189 27.5625H3.38955C2.60371 27.5625 2.12494 26.6977 2.54204 26.0317L10.4726 13.3685C10.5722 13.2094 10.625 13.0254 10.625 12.8377V6.9375" stroke="#00AD98" stroke-width="3" stroke-linejoin="round"/>
<path d="M18.375 1.80774H18.4199C19.8218 1.80774 20.9583 2.94425 20.9583 4.3462V4.3462C20.9583 5.74815 19.8218 6.88466 18.4199 6.88466H9.28846C7.88651 6.88466 6.75 5.74815 6.75 4.3462V4.3462C6.75 2.94425 7.88651 1.80774 9.28846 1.80774H13.2083" stroke="#00AD98" stroke-width="2" stroke-linecap="round" stroke-linejoin="round"/>
<path d="M17.0833 3.07697C17.0833 3.77795 16.505 4.3462 15.7917 4.3462C15.0783 4.3462 14.5 3.77795 14.5 3.07697C14.5 2.37599 15.0783 1.80774 15.7917 1.80774C16.505 1.80774 17.0833 2.37599 17.0833 3.07697Z" fill="#00AD98"/>
<path d="M19.6666 23.3846L17.0246 19.5769H10.6837L8.04163 23.3846H19.6666Z" fill="#00AD98"/>
</svg>
